<svg width="997" height="188" viewBox="0 0 997 188" fill="none" xmlns="http://www.w3.org/2000/svg">
<mask id="path-1-outside-1_53_65" maskUnits="userSpaceOnUse" x="-1" y="-1" width="999" height="190" fill="black">
<rect fill="white" x="-1" y="-1" width="999" height="190"/>
<path d="M30.3381 2.99999H69.0781L98.7181 185H70.1181L64.9181 148.86V149.38H32.4181L27.2181 185H0.698125L30.3381 2.99999ZM61.5381 124.68L48.7981 34.72H48.2781L35.7981 124.68H61.5381ZM112.594 2.99999H141.194V159H188.254V185H112.594V2.99999ZM201.969 2.99999H230.569V159H277.629V185H201.969V2.99999ZM332.984 2.99999H375.104C389.318 2.99999 399.978 6.81332 407.084 14.44C414.191 22.0667 417.744 33.2467 417.744 47.98V65.92C417.744 80.6533 414.191 91.8333 407.084 99.46C399.978 107.087 389.318 110.9 375.104 110.9H361.584V185H332.984V2.99999ZM375.104 84.9C379.784 84.9 383.251 83.6 385.504 81C387.931 78.4 389.144 73.98 389.144 67.74V46.16C389.144 39.92 387.931 35.5 385.504 32.9C383.251 30.3 379.784 29 375.104 29H361.584V84.9H375.104ZM433.277 2.99999H511.277V29H461.877V77.1H501.137V103.1H461.877V159H511.277V185H433.277V2.99999ZM527.73 2.99999H570.11C584.844 2.99999 595.59 6.46666 602.35 13.4C609.11 20.16 612.49 30.6467 612.49 44.86V56.04C612.49 74.9333 606.25 86.8933 593.77 91.92V92.44C600.704 94.52 605.557 98.7667 608.33 105.18C611.277 111.593 612.75 120.173 612.75 130.92V162.9C612.75 168.1 612.924 172.347 613.27 175.64C613.617 178.76 614.484 181.88 615.87 185H586.75C585.71 182.053 585.017 179.28 584.67 176.68C584.324 174.08 584.15 169.4 584.15 162.64V129.36C584.15 121.04 582.764 115.233 579.99 111.94C577.39 108.647 572.797 107 566.21 107H556.33V185H527.73V2.99999ZM566.73 81C572.45 81 576.697 79.5267 579.47 76.58C582.417 73.6333 583.89 68.6933 583.89 61.76V47.72C583.89 41.1333 582.677 36.3667 580.25 33.42C577.997 30.4733 574.357 29 569.33 29H556.33V81H566.73ZM632.594 2.99999H708.254V29H661.194V79.7H698.114V105.7H661.194V185H632.594V2.99999ZM721.969 2.99999H799.969V29H750.569V77.1H789.829V103.1H750.569V159H799.969V185H721.969V2.99999ZM856.722 187.6C843.028 187.6 832.542 183.7 825.262 175.9C818.155 168.1 814.602 157.093 814.602 142.88V45.12C814.602 30.9067 818.155 19.9 825.262 12.1C832.542 4.29999 843.028 0.39999 856.722 0.39999C870.415 0.39999 880.815 4.29999 887.922 12.1C895.202 19.9 898.842 30.9067 898.842 45.12V64.36H871.802V43.3C871.802 32.0333 867.035 26.4 857.502 26.4C847.968 26.4 843.202 32.0333 843.202 43.3V144.96C843.202 156.053 847.968 161.6 857.502 161.6C867.035 161.6 871.802 156.053 871.802 144.96V117.14H898.842V142.88C898.842 157.093 895.202 168.1 887.922 175.9C880.815 183.7 870.415 187.6 856.722 187.6ZM938.313 29H908.413V2.99999H996.813V29H966.913V185H938.313V29Z"/>
</mask>
<path d="M30.3381 2.99999V1.99999H29.4878L29.3511 2.83925L30.3381 2.99999ZM69.0781 2.99999L70.0651 2.83925L69.9284 1.99999H69.0781V2.99999ZM98.7181 185V186H99.8942L99.7051 184.839L98.7181 185ZM70.1181 185L69.1283 185.142L69.2517 186H70.1181V185ZM64.9181 148.86L65.9079 148.718L63.9181 148.86H64.9181ZM64.9181 149.38V150.38H65.9181V149.38H64.9181ZM32.4181 149.38V148.38H31.5535L31.4286 149.236L32.4181 149.38ZM27.2181 185V186H28.0827L28.2076 185.144L27.2181 185ZM0.698125 185L-0.288872 184.839L-0.477907 186H0.698125V185ZM61.5381 124.68V125.68H62.6897L62.5282 124.54L61.5381 124.68ZM48.7981 34.72L49.7882 34.5798L49.6665 33.72H48.7981V34.72ZM48.2781 34.72V33.72H47.4073L47.2876 34.5826L48.2781 34.72ZM35.7981 124.68L34.8076 124.543L34.6498 125.68H35.7981V124.68ZM30.3381 3.99999H69.0781V1.99999H30.3381V3.99999ZM68.0911 3.16073L97.7311 185.161L99.7051 184.839L70.0651 2.83925L68.0911 3.16073ZM98.7181 184H70.1181V186H98.7181V184ZM71.1079 184.858L65.9079 148.718L63.9283 149.002L69.1283 185.142L71.1079 184.858ZM63.9181 148.86V149.38H65.9181V148.86H63.9181ZM64.9181 148.38H32.4181V150.38H64.9181V148.38ZM31.4286 149.236L26.2286 184.856L28.2076 185.144L33.4076 149.524L31.4286 149.236ZM27.2181 184H0.698125V186H27.2181V184ZM1.68512 185.161L31.3251 3.16073L29.3511 2.83925L-0.288872 184.839L1.68512 185.161ZM62.5282 124.54L49.7882 34.5798L47.808 34.8602L60.548 124.82L62.5282 124.54ZM48.7981 33.72H48.2781V35.72H48.7981V33.72ZM47.2876 34.5826L34.8076 124.543L36.7886 124.817L49.2686 34.8574L47.2876 34.5826ZM35.7981 125.68H61.5381V123.68H35.7981V125.68ZM112.594 2.99999V1.99999H111.594V2.99999H112.594ZM141.194 2.99999H142.194V1.99999H141.194V2.99999ZM141.194 159H140.194V160H141.194V159ZM188.254 159H189.254V158H188.254V159ZM188.254 185V186H189.254V185H188.254ZM112.594 185H111.594V186H112.594V185ZM112.594 3.99999H141.194V1.99999H112.594V3.99999ZM140.194 2.99999V159H142.194V2.99999H140.194ZM141.194 160H188.254V158H141.194V160ZM187.254 159V185H189.254V159H187.254ZM188.254 184H112.594V186H188.254V184ZM113.594 185V2.99999H111.594V185H113.594ZM201.969 2.99999V1.99999H200.969V2.99999H201.969ZM230.569 2.99999H231.569V1.99999H230.569V2.99999ZM230.569 159H229.569V160H230.569V159ZM277.629 159H278.629V158H277.629V159ZM277.629 185V186H278.629V185H277.629ZM201.969 185H200.969V186H201.969V185ZM201.969 3.99999H230.569V1.99999H201.969V3.99999ZM229.569 2.99999V159H231.569V2.99999H229.569ZM230.569 160H277.629V158H230.569V160ZM276.629 159V185H278.629V159H276.629ZM277.629 184H201.969V186H277.629V184ZM202.969 185V2.99999H200.969V185H202.969ZM332.984 2.99999V1.99999H331.984V2.99999H332.984ZM407.084 14.44L406.353 15.1217L406.353 15.1217L407.084 14.44ZM407.084 99.46L406.353 98.7783L406.353 98.7783L407.084 99.46ZM361.584 110.9V109.9H360.584V110.9H361.584ZM361.584 185V186H362.584V185H361.584ZM332.984 185H331.984V186H332.984V185ZM385.504 81L384.773 80.3177L384.761 80.3311L384.749 80.3451L385.504 81ZM385.504 32.9L384.749 33.5549L384.761 33.5688L384.773 33.5823L385.504 32.9ZM361.584 29V28H360.584V29H361.584ZM361.584 84.9H360.584V85.9H361.584V84.9ZM332.984 3.99999H375.104V1.99999H332.984V3.99999ZM375.104 3.99999C389.145 3.99999 399.496 7.7636 406.353 15.1217L407.816 13.7583C400.459 5.86305 389.491 1.99999 375.104 1.99999V3.99999ZM406.353 15.1217C413.227 22.4988 416.744 33.395 416.744 47.98H418.744C418.744 33.0983 415.155 21.6345 407.816 13.7583L406.353 15.1217ZM416.744 47.98V65.92H418.744V47.98H416.744ZM416.744 65.92C416.744 80.505 413.227 91.4012 406.353 98.7783L407.816 100.142C415.155 92.2655 418.744 80.8017 418.744 65.92H416.744ZM406.353 98.7783C399.496 106.136 389.145 109.9 375.104 109.9V111.9C389.491 111.9 400.459 108.037 407.816 100.142L406.353 98.7783ZM375.104 109.9H361.584V111.9H375.104V109.9ZM360.584 110.9V185H362.584V110.9H360.584ZM361.584 184H332.984V186H361.584V184ZM333.984 185V2.99999H331.984V185H333.984ZM375.104 85.9C379.965 85.9 383.755 84.5452 386.26 81.6549L384.749 80.3451C382.747 82.6548 379.604 83.9 375.104 83.9V85.9ZM386.235 81.6823C388.925 78.8 390.144 74.0584 390.144 67.74H388.144C388.144 73.9016 386.936 78 384.773 80.3177L386.235 81.6823ZM390.144 67.74V46.16H388.144V67.74H390.144ZM390.144 46.16C390.144 39.8416 388.925 35.1 386.235 32.2177L384.773 33.5823C386.936 35.9 388.144 39.9984 388.144 46.16H390.144ZM386.26 32.2451C383.755 29.3548 379.965 28 375.104 28V30C379.604 30 382.747 31.2452 384.749 33.5549L386.26 32.2451ZM375.104 28H361.584V30H375.104V28ZM360.584 29V84.9H362.584V29H360.584ZM361.584 85.9H375.104V83.9H361.584V85.9ZM433.277 2.99999V1.99999H432.277V2.99999H433.277ZM511.277 2.99999H512.277V1.99999H511.277V2.99999ZM511.277 29V30H512.277V29H511.277ZM461.877 29V28H460.877V29H461.877ZM461.877 77.1H460.877V78.1H461.877V77.1ZM501.137 77.1H502.137V76.1H501.137V77.1ZM501.137 103.1V104.1H502.137V103.1H501.137ZM461.877 103.1V102.1H460.877V103.1H461.877ZM461.877 159H460.877V160H461.877V159ZM511.277 159H512.277V158H511.277V159ZM511.277 185V186H512.277V185H511.277ZM433.277 185H432.277V186H433.277V185ZM433.277 3.99999H511.277V1.99999H433.277V3.99999ZM510.277 2.99999V29H512.277V2.99999H510.277ZM511.277 28H461.877V30H511.277V28ZM460.877 29V77.1H462.877V29H460.877ZM461.877 78.1H501.137V76.1H461.877V78.1ZM500.137 77.1V103.1H502.137V77.1H500.137ZM501.137 102.1H461.877V104.1H501.137V102.1ZM460.877 103.1V159H462.877V103.1H460.877ZM461.877 160H511.277V158H461.877V160ZM510.277 159V185H512.277V159H510.277ZM511.277 184H433.277V186H511.277V184ZM434.277 185V2.99999H432.277V185H434.277ZM527.73 2.99999V1.99999H526.73V2.99999H527.73ZM602.35 13.4L601.634 14.0981L601.643 14.1071L602.35 13.4ZM593.77 91.92L593.397 90.9924L592.77 91.2447V91.92H593.77ZM593.77 92.44H592.77V93.184L593.483 93.3978L593.77 92.44ZM608.33 105.18L607.412 105.577L607.417 105.587L607.422 105.597L608.33 105.18ZM613.27 175.64L612.276 175.745L612.276 175.75L613.27 175.64ZM615.87 185V186H617.409L616.784 184.594L615.87 185ZM586.75 185L585.807 185.333L586.043 186H586.75V185ZM579.99 111.94L579.205 112.56L579.215 112.572L579.225 112.584L579.99 111.94ZM556.33 107V106H555.33V107H556.33ZM556.33 185V186H557.33V185H556.33ZM527.73 185H526.73V186H527.73V185ZM579.47 76.58L578.763 75.8729L578.752 75.8836L578.742 75.8946L579.47 76.58ZM580.25 33.42L579.456 34.0274L579.467 34.0418L579.478 34.0557L580.25 33.42ZM556.33 29V28H555.33V29H556.33ZM556.33 81H555.33V82H556.33V81ZM527.73 3.99999H570.11V1.99999H527.73V3.99999ZM570.11 3.99999C584.713 3.99999 595.141 7.43851 601.634 14.0981L603.066 12.7019C596.039 5.4948 584.975 1.99999 570.11 1.99999V3.99999ZM601.643 14.1071C608.141 20.6052 611.49 30.7839 611.49 44.86H613.49C613.49 30.5095 610.079 19.7148 603.057 12.6929L601.643 14.1071ZM611.49 44.86V56.04H613.49V44.86H611.49ZM611.49 56.04C611.49 65.3864 609.945 72.9258 606.924 78.7174C603.914 84.4869 599.415 88.5683 593.397 90.9924L594.144 92.8476C600.605 90.245 605.467 85.8331 608.697 79.6426C611.915 73.4742 613.49 65.5869 613.49 56.04H611.49ZM592.77 91.92V92.44H594.77V91.92H592.77ZM593.483 93.3978C600.145 95.3965 604.761 99.4454 607.412 105.577L609.248 104.783C606.353 98.0879 601.262 93.6435 594.058 91.4822L593.483 93.3978ZM607.422 105.597C610.285 111.83 611.75 120.249 611.75 130.92H613.75C613.75 120.097 612.269 111.357 609.239 104.762L607.422 105.597ZM611.75 130.92V162.9H613.75V130.92H611.75ZM611.75 162.9C611.75 168.118 611.924 172.403 612.276 175.745L614.265 175.535C613.923 172.291 613.75 168.082 613.75 162.9H611.75ZM612.276 175.75C612.635 178.981 613.532 182.2 614.957 185.406L616.784 184.594C615.436 181.56 614.599 178.539 614.264 175.53L612.276 175.75ZM615.87 184H586.75V186H615.87V184ZM587.693 184.667C586.672 181.774 585.998 179.068 585.662 176.548L583.679 176.812C584.036 179.492 584.749 182.333 585.807 185.333L587.693 184.667ZM585.662 176.548C585.325 174.022 585.15 169.404 585.15 162.64H583.15C583.15 169.396 583.323 174.138 583.679 176.812L585.662 176.548ZM585.15 162.64V129.36H583.15V162.64H585.15ZM585.15 129.36C585.15 120.994 583.769 114.875 580.755 111.296L579.225 112.584C581.758 115.592 583.15 121.086 583.15 129.36H585.15ZM580.775 111.32C577.898 107.676 572.927 106 566.21 106V108C572.667 108 576.882 109.617 579.205 112.56L580.775 111.32ZM566.21 106H556.33V108H566.21V106ZM555.33 107V185H557.33V107H555.33ZM556.33 184H527.73V186H556.33V184ZM528.73 185V2.99999H526.73V185H528.73ZM566.73 82C572.61 82 577.169 80.4842 580.199 77.2654L578.742 75.8946C576.225 78.5691 572.291 80 566.73 80V82ZM580.177 77.2871C583.403 74.0611 584.89 68.792 584.89 61.76H582.89C582.89 68.5947 581.431 73.2055 578.763 75.8729L580.177 77.2871ZM584.89 61.76V47.72H582.89V61.76H584.89ZM584.89 47.72C584.89 41.0539 583.671 36.0001 581.022 32.7843L579.478 34.0557C581.683 36.7332 582.89 41.2127 582.89 47.72H584.89ZM581.045 32.8125C578.54 29.5373 574.55 28 569.33 28V30C574.164 30 577.454 31.4094 579.456 34.0274L581.045 32.8125ZM569.33 28H556.33V30H569.33V28ZM555.33 29V81H557.33V29H555.33ZM556.33 82H566.73V80H556.33V82ZM632.594 2.99999V1.99999H631.594V2.99999H632.594ZM708.254 2.99999H709.254V1.99999H708.254V2.99999ZM708.254 29V30H709.254V29H708.254ZM661.194 29V28H660.194V29H661.194ZM661.194 79.7H660.194V80.7H661.194V79.7ZM698.114 79.7H699.114V78.7H698.114V79.7ZM698.114 105.7V106.7H699.114V105.7H698.114ZM661.194 105.7V104.7H660.194V105.7H661.194ZM661.194 185V186H662.194V185H661.194ZM632.594 185H631.594V186H632.594V185ZM632.594 3.99999H708.254V1.99999H632.594V3.99999ZM707.254 2.99999V29H709.254V2.99999H707.254ZM708.254 28H661.194V30H708.254V28ZM660.194 29V79.7H662.194V29H660.194ZM661.194 80.7H698.114V78.7H661.194V80.7ZM697.114 79.7V105.7H699.114V79.7H697.114ZM698.114 104.7H661.194V106.7H698.114V104.7ZM660.194 105.7V185H662.194V105.7H660.194ZM661.194 184H632.594V186H661.194V184ZM633.594 185V2.99999H631.594V185H633.594ZM721.969 2.99999V1.99999H720.969V2.99999H721.969ZM799.969 2.99999H800.969V1.99999H799.969V2.99999ZM799.969 29V30H800.969V29H799.969ZM750.569 29V28H749.569V29H750.569ZM750.569 77.1H749.569V78.1H750.569V77.1ZM789.829 77.1H790.829V76.1H789.829V77.1ZM789.829 103.1V104.1H790.829V103.1H789.829ZM750.569 103.1V102.1H749.569V103.1H750.569ZM750.569 159H749.569V160H750.569V159ZM799.969 159H800.969V158H799.969V159ZM799.969 185V186H800.969V185H799.969ZM721.969 185H720.969V186H721.969V185ZM721.969 3.99999H799.969V1.99999H721.969V3.99999ZM798.969 2.99999V29H800.969V2.99999H798.969ZM799.969 28H750.569V30H799.969V28ZM749.569 29V77.1H751.569V29H749.569ZM750.569 78.1H789.829V76.1H750.569V78.1ZM788.829 77.1V103.1H790.829V77.1H788.829ZM789.829 102.1H750.569V104.1H789.829V102.1ZM749.569 103.1V159H751.569V103.1H749.569ZM750.569 160H799.969V158H750.569V160ZM798.969 159V185H800.969V159H798.969ZM799.969 184H721.969V186H799.969V184ZM722.969 185V2.99999H720.969V185H722.969ZM825.262 175.9L824.522 176.574L824.531 176.582L825.262 175.9ZM825.262 12.1L824.531 11.4176L824.523 11.4265L825.262 12.1ZM887.922 12.1L887.182 12.7735L887.191 12.7823L887.922 12.1ZM898.842 64.36V65.36H899.842V64.36H898.842ZM871.802 64.36H870.802V65.36H871.802V64.36ZM871.802 117.14V116.14H870.802V117.14H871.802ZM898.842 117.14H899.842V116.14H898.842V117.14ZM887.922 175.9L887.191 175.218L887.183 175.227L887.922 175.9ZM856.722 186.6C843.222 186.6 833.034 182.761 825.993 175.218L824.531 176.582C832.05 184.639 842.834 188.6 856.722 188.6V186.6ZM826.001 175.227C819.113 167.667 815.602 156.932 815.602 142.88H813.602C813.602 157.255 817.197 168.533 824.523 176.573L826.001 175.227ZM815.602 142.88V45.12H813.602V142.88H815.602ZM815.602 45.12C815.602 31.068 819.113 20.3334 826.001 12.7735L824.523 11.4265C817.197 19.4666 813.602 30.7453 813.602 45.12H815.602ZM825.993 12.7823C833.034 5.23863 843.222 1.39999 856.722 1.39999V-0.60001C842.834 -0.60001 832.05 3.36135 824.531 11.4177L825.993 12.7823ZM856.722 1.39999C870.222 1.39999 880.318 5.23904 887.183 12.7735L888.661 11.4265C881.312 3.36094 870.608 -0.60001 856.722 -0.60001V1.39999ZM887.191 12.7823C894.247 20.3426 897.842 31.0739 897.842 45.12H899.842C899.842 30.7394 896.157 19.4574 888.653 11.4177L887.191 12.7823ZM897.842 45.12V64.36H899.842V45.12H897.842ZM898.842 63.36H871.802V65.36H898.842V63.36ZM872.802 64.36V43.3H870.802V64.36H872.802ZM872.802 43.3C872.802 37.5495 871.589 33.0502 868.99 29.9791C866.364 26.8759 862.47 25.4 857.502 25.4V27.4C862.066 27.4 865.322 28.7408 867.463 31.2709C869.631 33.8331 870.802 37.7838 870.802 43.3H872.802ZM857.502 25.4C852.533 25.4 848.639 26.8759 846.013 29.9791C843.415 33.0502 842.202 37.5495 842.202 43.3H844.202C844.202 37.7838 845.372 33.8331 847.54 31.2709C849.681 28.7408 852.937 27.4 857.502 27.4V25.4ZM842.202 43.3V144.96H844.202V43.3H842.202ZM842.202 144.96C842.202 150.627 843.416 155.064 846.018 158.092C848.646 161.149 852.538 162.6 857.502 162.6V160.6C852.932 160.6 849.675 159.278 847.535 156.788C845.371 154.27 844.202 150.386 844.202 144.96H842.202ZM857.502 162.6C862.465 162.6 866.358 161.149 868.985 158.092C871.587 155.064 872.802 150.627 872.802 144.96H870.802C870.802 150.386 869.633 154.27 867.468 156.788C865.329 159.278 862.071 160.6 857.502 160.6V162.6ZM872.802 144.96V117.14H870.802V144.96H872.802ZM871.802 118.14H898.842V116.14H871.802V118.14ZM897.842 117.14V142.88H899.842V117.14H897.842ZM897.842 142.88C897.842 156.926 894.247 167.657 887.191 175.218L888.653 176.582C896.157 168.543 899.842 157.261 899.842 142.88H897.842ZM887.183 175.227C880.318 182.761 870.222 186.6 856.722 186.6V188.6C870.608 188.6 881.312 184.639 888.661 176.573L887.183 175.227ZM938.313 29H939.313V28H938.313V29ZM908.413 29H907.413V30H908.413V29ZM908.413 2.99999V1.99999H907.413V2.99999H908.413ZM996.813 2.99999H997.813V1.99999H996.813V2.99999ZM996.813 29V30H997.813V29H996.813ZM966.913 29V28H965.913V29H966.913ZM966.913 185V186H967.913V185H966.913ZM938.313 185H937.313V186H938.313V185ZM938.313 28H908.413V30H938.313V28ZM909.413 29V2.99999H907.413V29H909.413ZM908.413 3.99999H996.813V1.99999H908.413V3.99999ZM995.813 2.99999V29H997.813V2.99999H995.813ZM996.813 28H966.913V30H996.813V28ZM965.913 29V185H967.913V29H965.913ZM966.913 184H938.313V186H966.913V184ZM939.313 185V29H937.313V185H939.313Z" fill="#C0C0C0" fill-opacity="0.2" mask="url(#path-1-outside-1_53_65)"/>
</svg>
