<svg width="340" height="180" viewBox="0 0 340 180" fill="none" xmlns="http://www.w3.org/2000/svg">
<g clip-path="url(#clip0_876_113)">
<path d="M113.162 114.689L106.659 103.808L100.29 114.689H92.6653L102.461 98.2995L92.478 83.083H100.443L106.838 93.2423L112.938 83.083H120.562L110.74 98.796L120.831 114.689H113.162Z" fill="white"/>
<path d="M145.614 103.944C145.614 110.897 140.412 115.231 133.594 115.231C127.584 115.231 122.524 111.89 122.031 104.621H128.534C128.983 107.781 131.494 109.136 134.231 109.136C137.639 109.136 139.111 106.833 139.111 103.853C139.111 100.738 136.824 98.7963 133.639 98.7963C130.993 98.7963 129.244 100.06 128.437 101.415H122.221L124.37 83.0833H144.815L144.134 89.2242H129.509L128.928 95.2906C128.928 95.2906 130.465 93.4684 135.119 93.4684C140.726 93.4684 145.614 97.2611 145.614 103.944Z" fill="white"/>
<path d="M122.801 79.1467C119.338 65.5518 108.345 56.0005 85.5375 56.0005H58L61.7382 81.4473C64.5502 104.409 73.2735 111.796 88.7105 114.516C88.7832 114.527 89.2702 114.597 89.2775 114.021C89.28 113.814 89.1489 113.635 88.9705 113.559C78.5362 109.136 77.3453 94.6321 75.117 80.0765L73.3917 68.4779H89.112C103.606 68.4779 114.794 68.2474 121.88 79.5095C121.986 79.6687 122.15 79.7854 122.344 79.7854C122.618 79.7854 122.821 79.5614 122.821 79.2853C122.821 79.2372 122.814 79.1908 122.801 79.1467Z" fill="#A9A9A9"/>
<path d="M151.068 98.8622C151.068 89.0437 158.149 81.9601 167.991 81.9601C174.582 81.9601 180.549 85.8157 182.286 91.106L178.59 92.3614C177.254 88.416 172.845 85.5468 167.991 85.5468C160.465 85.5468 155.121 91.0612 155.121 98.8622C155.121 106.573 160.509 112.222 167.991 112.222C174.76 112.222 180.104 107.336 180.282 100.969L164.696 100.924V97.293H184.379C185.047 108.053 178.189 115.809 167.991 115.809C158.149 115.809 151.068 108.681 151.068 98.8622Z" fill="white"/>
<path d="M189.251 92.048H192.859V95.0965H193.26C194.284 93.0342 196.778 91.5996 199.271 91.5996C200.296 91.5996 201.365 91.8238 202.033 92.1823V95.6345C200.875 95.1413 199.539 94.9619 198.693 94.9619C195.308 94.9619 192.948 98.0105 192.948 102.494V114.688H189.251V92.048Z" fill="white"/>
<path d="M224.554 103.346C224.554 98.2345 221.035 94.5134 216.181 94.5134C211.283 94.5134 207.809 98.2345 207.809 103.346C207.809 108.501 211.283 112.222 216.181 112.222C221.035 112.222 224.554 108.501 224.554 103.346ZM204.113 103.346C204.113 96.2172 209.101 91.1511 216.181 91.1511C223.218 91.1511 228.25 96.2172 228.25 103.346C228.25 110.519 223.218 115.585 216.181 115.585C209.101 115.585 204.113 110.519 204.113 103.346Z" fill="white"/>
<path d="M253.108 114.689H249.412V111.595H248.967C247.408 114.061 244.87 115.496 241.931 115.496C236.186 115.496 232.579 111.326 232.579 105.543V92.048H236.275V105.543C236.275 109.398 238.502 112.133 242.376 112.133C246.161 112.133 249.412 109.219 249.412 105.229V92.048H253.108V114.689Z" fill="white"/>
<path d="M262.604 103.346C262.604 108.322 266.122 112.223 270.976 112.223C275.785 112.223 279.304 108.322 279.304 103.346C279.304 98.2797 275.785 94.5136 270.976 94.5136C266.122 94.5136 262.604 98.3692 262.604 103.346ZM283 103.346C283 110.429 277.968 115.585 271.421 115.585C267.814 115.585 264.786 114.016 263.138 111.326H262.737V125H259.041V92.0479H262.737V95.5H263.138C264.786 92.7652 267.68 91.1512 271.377 91.1512C277.923 91.1512 283 96.2621 283 103.346Z" fill="white"/>
</g>
<defs>
<clipPath id="clip0_876_113">
<rect width="225" height="69" fill="white" transform="translate(58 56)"/>
</clipPath>
</defs>
</svg>
