<svg width="340" height="180" viewBox="0 0 340 180" fill="none" xmlns="http://www.w3.org/2000/svg">
<path d="M292 111.368C292 117.929 286.681 123.248 280.12 123.248C273.558 123.248 268.239 117.929 268.239 111.368C268.239 104.806 273.558 99.4873 280.12 99.4873C286.681 99.4873 292 104.806 292 111.368Z" fill="white"/>
<path d="M136.473 57.2832L117.466 87.958V57.2832H97.0596L83.2261 75.5636L69.2111 57.361V57.2832H69.1463H48.7915V122.12H69.2111V87.5561L83.2261 105.746L97.0596 87.7895V122.12H117.972L126.464 108.404H148.024V122.12H168.444V75.7062H179.296V122.12H199.715V75.7062H209.996V102.556V108.481H241.268V122.12H261.687V57.2832H241.268V90.0583H230.416V57.2832L136.473 57.2832ZM270.023 57.2832V96.9427L290.443 84.639V57.2832H270.023ZM148.024 73.606V89.9935H137.873L148.024 73.606Z" fill="white"/>
</svg>
