<svg width="340" height="180" viewBox="0 0 340 180" fill="none" xmlns="http://www.w3.org/2000/svg">
<path d="M280.228 75.0703V105.108H272.871V75.0703H280.228ZM290 75.0703V80.7892H263.266V75.0703H290Z" fill="white"/>
<path d="M248.33 99.8891C249.366 99.8891 250.291 99.6855 251.106 99.2783C251.92 98.8712 252.568 98.2974 253.049 97.5571C253.549 96.8168 253.817 95.9562 253.854 94.9753H260.767C260.73 97.0112 260.156 98.8342 259.045 100.444C257.935 102.054 256.454 103.332 254.604 104.275C252.771 105.201 250.717 105.663 248.441 105.663C246.127 105.663 244.11 105.275 242.389 104.497C240.667 103.72 239.233 102.637 238.086 101.249C236.957 99.8613 236.105 98.2512 235.532 96.4189C234.976 94.5867 234.699 92.6248 234.699 90.5335V89.6451C234.699 87.5538 234.976 85.592 235.532 83.7597C236.105 81.9274 236.957 80.3173 238.086 78.9292C239.233 77.5411 240.667 76.4584 242.389 75.6811C244.11 74.9038 246.118 74.5151 248.413 74.5151C250.837 74.5151 252.966 74.9871 254.798 75.931C256.649 76.8749 258.092 78.2074 259.129 79.9286C260.184 81.6498 260.73 83.6764 260.767 86.0084H253.854C253.817 84.9349 253.577 83.9725 253.132 83.1212C252.688 82.2698 252.059 81.585 251.245 81.0668C250.43 80.5486 249.44 80.2895 248.274 80.2895C247.034 80.2895 245.998 80.5486 245.165 81.0668C244.35 81.585 243.712 82.2976 243.249 83.2045C242.805 84.0928 242.49 85.0922 242.305 86.2027C242.139 87.2947 242.056 88.4421 242.056 89.6451V90.5335C242.056 91.755 242.139 92.921 242.305 94.0314C242.49 95.1419 242.805 96.1413 243.249 97.0297C243.712 97.8995 244.35 98.5936 245.165 99.1118C245.998 99.63 247.053 99.8891 248.33 99.8891Z" fill="white"/>
<path d="M218.903 105.663C216.626 105.663 214.581 105.293 212.767 104.553C210.954 103.813 209.408 102.786 208.131 101.471C206.873 100.139 205.901 98.5936 205.216 96.8353C204.55 95.0586 204.217 93.1523 204.217 91.1165V90.006C204.217 87.6926 204.55 85.592 205.216 83.7042C205.882 81.7979 206.826 80.16 208.048 78.7904C209.269 77.4208 210.731 76.3659 212.434 75.6256C214.137 74.8853 216.015 74.5151 218.07 74.5151C220.198 74.5151 222.077 74.876 223.705 75.5978C225.334 76.3011 226.694 77.3005 227.786 78.5961C228.878 79.8916 229.702 81.4462 230.257 83.26C230.812 85.0552 231.09 87.0448 231.09 89.2287V92.3102H207.548V87.2576H223.872V86.7024C223.835 85.5364 223.613 84.4722 223.206 83.5098C222.798 82.5289 222.169 81.7516 221.318 81.1779C220.466 80.5856 219.365 80.2895 218.014 80.2895C216.922 80.2895 215.969 80.5301 215.155 81.0113C214.359 81.474 213.693 82.1403 213.156 83.0101C212.638 83.8615 212.249 84.8794 211.99 86.0639C211.731 87.2484 211.601 88.5624 211.601 90.006V91.1165C211.601 92.375 211.768 93.541 212.101 94.6144C212.453 95.6879 212.962 96.6225 213.628 97.4183C214.313 98.1956 215.127 98.8064 216.071 99.2506C217.033 99.6763 218.125 99.8891 219.347 99.8891C220.883 99.8891 222.271 99.593 223.511 99.0007C224.77 98.39 225.861 97.4924 226.787 96.3079L230.479 100.139C229.85 101.064 228.999 101.953 227.925 102.804C226.87 103.655 225.593 104.349 224.094 104.886C222.595 105.404 220.864 105.663 218.903 105.663Z" fill="white"/>
<path d="M193.334 75.0703V105.108H185.978V75.0703H193.334ZM203.106 75.0703V80.7892H176.372V75.0703H203.106Z" fill="white"/>
<path d="M145.974 90.3947V89.8117C145.974 87.6093 146.288 85.5827 146.918 83.7319C147.547 81.8627 148.463 80.2432 149.666 78.8737C150.869 77.5041 152.34 76.4399 154.08 75.6811C155.82 74.9038 157.8 74.5151 160.021 74.5151C162.279 74.5151 164.278 74.9038 166.017 75.6811C167.776 76.4399 169.256 77.5041 170.459 78.8737C171.662 80.2432 172.578 81.8627 173.208 83.7319C173.837 85.5827 174.152 87.6093 174.152 89.8117V90.3947C174.152 92.5786 173.837 94.6052 173.208 96.4744C172.578 98.3252 171.662 99.9446 170.459 101.333C169.256 102.702 167.785 103.766 166.045 104.525C164.305 105.284 162.316 105.663 160.076 105.663C157.856 105.663 155.866 105.284 154.108 104.525C152.35 103.766 150.869 102.702 149.666 101.333C148.463 99.9446 147.547 98.3252 146.918 96.4744C146.288 94.6052 145.974 92.5786 145.974 90.3947ZM153.303 89.8117V90.3947C153.303 91.7087 153.432 92.9395 153.691 94.087C153.95 95.2344 154.348 96.2431 154.885 97.1129C155.422 97.9828 156.116 98.6676 156.967 99.1673C157.837 99.6485 158.873 99.8891 160.076 99.8891C161.261 99.8891 162.279 99.6485 163.13 99.1673C163.982 98.6676 164.676 97.9828 165.212 97.1129C165.768 96.2431 166.175 95.2344 166.434 94.087C166.693 92.9395 166.822 91.7087 166.822 90.3947V89.8117C166.822 88.5162 166.693 87.3039 166.434 86.1749C166.175 85.0275 165.768 84.0188 165.212 83.1489C164.676 82.2606 163.972 81.5665 163.102 81.0668C162.251 80.5486 161.224 80.2895 160.021 80.2895C158.836 80.2895 157.819 80.5486 156.967 81.0668C156.116 81.5665 155.422 82.2606 154.885 83.1489C154.348 84.0188 153.95 85.0275 153.691 86.1749C153.432 87.3039 153.303 88.5162 153.303 89.8117Z" fill="white"/>
<path d="M122.321 96.4466L130.76 75.0703H136.895L124.819 105.108H119.85L107.801 75.0703H113.964L122.321 96.4466ZM112.16 75.0703V105.108H104.803V75.0703H112.16ZM132.62 105.108V75.0703H139.977V105.108H132.62Z" fill="white"/>
<path d="M87.2024 105.663C84.926 105.663 82.8809 105.293 81.0671 104.553C79.2534 103.813 77.708 102.786 76.431 101.471C75.1724 100.139 74.2008 98.5936 73.516 96.8353C72.8497 95.0586 72.5166 93.1523 72.5166 91.1165V90.006C72.5166 87.6926 72.8497 85.5919 73.516 83.7042C74.1823 81.7979 75.1262 80.16 76.3477 78.7904C77.5692 77.4208 79.0313 76.3659 80.734 75.6256C82.4367 74.8853 84.3152 74.5151 86.3696 74.5151C88.4979 74.5151 90.3765 74.876 92.0051 75.5978C93.6338 76.3011 94.9941 77.3005 96.0861 78.5961C97.178 79.8916 98.0016 81.4462 98.5568 83.26C99.1121 85.0552 99.3897 87.0448 99.3897 89.2287V92.3102H75.848V87.2576H92.1717V86.7024C92.1347 85.5364 91.9126 84.4722 91.5054 83.5098C91.0983 82.5289 90.469 81.7516 89.6177 81.1779C88.7663 80.5856 87.6651 80.2895 86.314 80.2895C85.2221 80.2895 84.2689 80.5301 83.4546 81.0113C82.6588 81.474 81.9925 82.1403 81.4558 83.0101C80.9376 83.8615 80.5489 84.8794 80.2898 86.0639C80.0307 87.2484 79.9011 88.5624 79.9011 90.006V91.1165C79.9011 92.375 80.0677 93.541 80.4009 94.6144C80.7525 95.6879 81.2615 96.6225 81.9277 97.4183C82.6125 98.1956 83.4268 98.8064 84.3707 99.2506C85.3331 99.6763 86.4251 99.8891 87.6466 99.8891C89.1827 99.8891 90.5708 99.593 91.8108 99.0007C93.0693 98.39 94.1613 97.4924 95.0867 96.3079L98.7789 100.139C98.1497 101.064 97.2983 101.953 96.2249 102.804C95.1699 103.655 93.8929 104.349 92.3938 104.886C90.8947 105.404 89.1642 105.663 87.2024 105.663Z" fill="white"/>
<path d="M70.5733 75.0703V80.8725H57.7753V105.108H50.4463V75.0703H70.5733Z" fill="white"/>
</svg>
