<svg width="340" height="212" viewBox="0 0 340 212" fill="none" xmlns="http://www.w3.org/2000/svg">
<path d="M165.698 85.5283H172.271V91.4252H165.698V85.5283ZM165.698 94.855H172.272V119.651H165.698V94.855ZM182.277 98.8185H182.422C183.921 96.0147 185.612 94.5645 188.513 94.5645C189.237 94.5645 189.673 94.6133 190.059 94.7581V100.51H189.914C185.613 100.075 182.519 102.347 182.519 107.567V119.651H175.945V94.8547H182.277V98.8185ZM202.867 85.5283H209.441V91.4252H202.867V85.5283ZM202.867 94.855H209.441V119.651H202.867V94.855ZM219.542 98.2382H219.687C221.379 95.5798 223.65 94.178 227.033 94.178C232.158 94.178 235.589 98.0447 235.589 103.458V119.651H229.016V104.425C229.016 101.767 227.469 99.8814 224.714 99.8814C221.814 99.8814 219.687 102.201 219.687 105.585V119.651H213.114V94.8547H219.542V98.2382H219.542ZM238.295 107.229C238.295 99.8817 243.273 94.1783 250.523 94.1783C258.499 94.1783 262.752 100.268 262.752 109.114H244.772C245.255 112.932 247.382 115.301 251.104 115.301C253.665 115.301 255.163 114.141 255.889 112.255H262.366C261.447 116.654 257.532 120.376 251.152 120.376C242.935 120.376 238.295 114.623 238.295 107.229ZM244.868 104.57H255.889C255.695 101.428 253.617 99.2529 250.62 99.2529C247.14 99.2529 245.448 101.332 244.868 104.57ZM264.266 111.627H270.356C270.792 114.479 272.821 115.735 275.77 115.735C278.671 115.735 280.314 114.623 280.314 112.884C280.314 110.515 277.172 110.273 273.789 109.597C269.342 108.727 264.992 107.519 264.992 102.105C264.992 96.7401 269.439 94.1783 275.094 94.1783C281.619 94.1783 285.244 97.4168 285.727 102.395H279.782C279.492 99.7369 277.8 98.7701 274.997 98.7701C272.435 98.7701 270.743 99.7369 270.743 101.525C270.743 103.652 274.03 103.845 277.559 104.571C281.716 105.44 286.308 106.601 286.308 112.401C286.308 117.379 282.054 120.376 275.867 120.376C268.665 120.376 264.653 116.896 264.266 111.627ZM150.188 85.5283H142.537L128.704 119.651H136.534L139.096 112.642H153.21L155.82 119.651H163.699L150.188 85.5283ZM140.981 106.89L146.056 92.3892L151.276 106.89H140.981V106.89ZM192.62 85.5283H199.194V119.651H192.62V85.5283Z" fill="white"/>
<path fill-rule="evenodd" clip-rule="evenodd" d="M80.9445 145.24C102.617 145.24 120.173 127.687 120.173 106.009C120.173 84.33 102.617 66.7598 80.9445 66.7598C59.2695 66.7598 41.6924 84.33 41.6924 106.009C41.6924 127.687 59.2695 145.24 80.9445 145.24ZM64.9917 86.9456C67.8943 85.868 71.9041 85.5264 78.085 85.5264V85.5266H83.6607L80.9325 92.3488H77.1118C73.0085 92.3488 70.3738 92.3613 68.9519 92.833C67.5684 93.2619 66.5462 93.7816 65.9889 94.5972C65.4737 95.257 65.2998 96.1576 65.2998 96.9392C65.2998 97.7578 65.3895 98.5328 66.1999 99.5741C67.1996 100.572 68.8458 101.86 72.0763 103.847C78.5163 107.866 80.4214 111.055 80.4214 115.252C80.4214 122.082 73.98 128.605 63.1837 128.605C59.9384 128.605 55.4086 128.13 53.5 127.521L52.4974 127.226C52.8884 125.926 54.1705 122.345 54.7353 120.83L55.7478 121.086C57.8697 121.605 61.1903 121.91 63.395 121.91C69.7116 121.91 72.1665 119.058 72.1665 116.552C72.1665 114.263 70.9162 113.007 64.6489 109.208C58.775 105.577 56.7453 102.42 56.7453 98.0616C56.7453 92.828 60.1139 88.8457 64.9917 86.9456ZM87.7597 85.5264H106.959C107.862 85.5264 108.035 86.1643 107.687 86.8586C106.431 89.9703 94.5862 119.649 94.5862 119.649H86.668C86.668 119.649 96.024 95.8074 97.5763 92.256C97.2174 92.256 96.8864 92.2663 96.4455 92.28C95.5657 92.3073 94.2478 92.3482 91.3951 92.3482H85.0312L87.7597 85.5264Z" fill="white"/>
</svg>
