<svg width="340" height="180" viewBox="0 0 340 180" fill="none" xmlns="http://www.w3.org/2000/svg">
<path d="M80.9334 106.118H58.3433L61.1518 84.261L80.2007 72.5386L96.8075 92.3202L96.9296 93.1749L80.2007 74.6145V76.8124L96.9296 94.0297L97.0517 94.8845L80.3228 78.8883V81.3305L97.1738 95.7392L97.2959 96.594L80.4449 83.4062V85.6042L97.5401 97.4488L97.6622 98.3035L80.5671 87.8021V89.878L97.7843 99.1583L97.9064 100.013L80.6892 92.076V94.2739L98.1507 100.99L98.2728 101.845L80.8113 96.4719V98.9141L98.3949 102.822L98.517 103.676L80.8113 100.99V103.188L98.6391 104.409L98.7612 105.63L80.9334 106.118ZM186.557 90.7328V95.7392C184.115 96.9603 182.65 98.1814 180.94 98.1814C179.109 98.1814 177.399 97.4488 177.399 95.495C177.399 92.3202 180.452 90.6106 186.557 90.7328ZM173.125 82.7958C175.568 81.0861 179.353 79.7429 182.039 79.7429C185.825 79.7429 186.679 80.964 186.679 84.5052C176.056 84.7494 168.363 87.5579 168.363 96.2277C168.363 100.868 171.172 105.264 178.865 105.264C183.138 105.264 186.191 104.043 189.122 101.723C191.075 105.019 193.639 105.264 195.227 105.264C196.448 105.264 197.669 105.019 197.669 104.653V97.8151C195.227 98.0593 195.227 95.9834 195.227 93.0528V83.6504C195.227 80.1094 194.738 72.5386 182.894 72.5386C180.818 72.5386 175.323 72.7828 169.462 76.9344L173.125 82.7958ZM106.942 99.4025C110.85 103.432 114.391 105.264 119.764 105.264C127.579 105.264 136.493 101.112 136.493 88.4127C136.493 75.225 126.48 72.5386 120.008 72.5386C117.322 72.5386 112.437 73.5155 107.919 77.3009L112.682 82.5514C114.635 80.3536 117.078 79.3766 119.764 79.3766C125.381 79.3766 125.869 83.8946 125.991 86.0926L115.734 85.4821V92.5644L125.991 91.9538C125.869 93.7855 125.137 98.4256 119.642 98.4256C115.856 98.4256 113.292 96.3498 111.705 94.396L106.942 99.4025ZM146.261 80.4756V106.118H154.809V80.4756H163.357V73.1491H138.935V80.4756H146.261ZM221.237 106.118H229.296V91.0991C232.959 90.8549 233.691 92.5644 235.767 97.0824C237.599 100.99 239.43 105.264 244.803 105.264C245.659 105.264 246.391 105.142 247.612 104.653V97.8151C245.17 97.5709 245.414 96.594 243.582 93.5413C241.018 89.0232 239.552 87.9242 237.843 87.68C240.529 86.9474 241.75 85.2378 242.605 84.0168C243.949 82.063 244.925 80.2315 247.002 80.2315C247.245 80.2315 246.391 80.2315 247.612 80.3536V73.1491C246.391 72.6607 246.146 72.5386 244.681 72.5386C239.919 72.5386 237.233 75.7134 234.424 80.1094C232.959 82.4293 231.615 84.3831 229.174 84.1389V73.1491H220.625V84.261C218.184 84.5052 217.329 82.4293 215.864 80.2315C213.055 75.7134 210.491 72.6607 205.728 72.6607C204.263 72.6607 203.531 72.9049 202.31 73.2713V80.3536C202.31 80.2315 203.164 80.2315 203.408 80.2315C205.484 80.2315 206.827 82.063 208.17 84.0168C209.026 85.2378 210.124 86.9474 212.811 87.68C211.101 87.9242 208.781 89.1453 206.217 93.5413C204.385 96.594 204.752 97.693 201.089 97.8151V104.653C202.31 105.142 204.02 105.264 204.874 105.264C210.247 105.264 212.566 100.99 214.521 97.0824C216.718 92.5644 215.742 90.8549 220.625 91.0991V106.118H221.237ZM263.485 89.5117V73.1491H254.939V106.118H263.485V100.135L274.475 88.6569V106.118H283.024V73.1491H274.475V78.1555L263.485 89.5117Z" fill="white"/>
</svg>
