<svg width="340" height="180" viewBox="0 0 340 180" fill="none" xmlns="http://www.w3.org/2000/svg">
<path d="M131.43 85.3882H144.237V89.5636H138.144V118.901H131.43V85.3882Z" fill="white"/>
<path d="M151.83 106.32L152.98 89.5636H153.366L154.516 106.32H151.83ZM144.394 118.901H150.968L151.59 110.001H154.756L155.381 118.901H161.952L158.451 85.3882H147.895L144.394 118.901Z" fill="white"/>
<path d="M171.569 107.172V113.49C171.569 114.341 172.23 114.588 172.615 114.588C173.248 114.588 173.689 114.067 173.689 113.49V105.688C173.689 104.644 173.496 103.491 170.991 103.491H168.265V99.8098H171.101C173.001 99.8098 173.689 99.3703 173.689 97.31V90.6624C173.689 90.0855 173.248 89.5636 172.615 89.5636C172.23 89.5636 171.569 89.7834 171.569 90.6624V96.1288H164.852V91.3766C164.852 89.0417 165.127 85.3882 169.835 85.3882H175.396C180.103 85.3882 180.406 89.0417 180.406 91.3766V96.7332C180.406 100.387 177.846 101.376 175.836 101.293V101.623C180.351 101.513 180.406 104.974 180.406 106.155V112.913C180.406 115.275 180.103 118.901 175.396 118.901H169.835C165.127 118.901 164.852 115.275 164.852 112.913V107.172H171.569Z" fill="white"/>
<path d="M184.811 85.3882H200.366V118.901H193.648V89.5636H191.528V118.901H184.811V85.3882Z" fill="white"/>
<path d="M211.488 103.82V89.5636H212.369C213.085 89.5636 213.608 90.1679 213.608 91.2392V102.145C213.608 103.216 213.085 103.82 212.369 103.82H211.488ZM204.771 118.901H211.488V107.501H215.343C220.023 107.501 220.326 103.875 220.326 101.513V91.3766C220.326 89.0417 220.023 85.3882 215.343 85.3882H204.771V118.901Z" fill="white"/>
<path d="M233.568 113.49C233.568 114.067 233.127 114.588 232.494 114.588C232.109 114.588 231.448 114.341 231.448 113.49V90.6624C231.448 89.7834 232.109 89.5636 232.494 89.5636C233.127 89.5636 233.568 90.0855 233.568 90.6624V113.49ZM224.73 112.913C224.73 115.275 225.033 118.901 229.713 118.901H235.302C239.982 118.901 240.285 115.275 240.285 112.913V91.3766C240.285 89.0417 239.982 85.3882 235.302 85.3882H229.713C225.033 85.3882 224.73 89.0417 224.73 91.3766V112.913Z" fill="white"/>
<path d="M262.144 85.3882H270.899V118.901H264.182V97.8869H263.934L260.465 118.901H255.096L251.655 97.8869H251.407V118.901H244.69V85.3882H253.417L257.794 108.957L262.144 85.3882Z" fill="white"/>
<path d="M122.725 39.5689C120.668 30.5863 115.514 23.2793 114.804 22.0981C113.681 23.7738 109.57 30.2292 107.481 37.3713C105.199 45.365 104.863 52.4522 105.65 59.402C106.432 66.3793 109.386 73.5489 109.386 73.5489C110.955 77.2848 113.306 81.3228 114.837 83.3007C117.081 80.3889 122.237 71.7085 123.845 60.3909C124.74 54.0729 124.778 48.5515 122.725 39.5689ZM114.804 81.0481C113.794 79.1527 112.224 75.5542 112.076 69.9504C112.037 64.5663 114.204 59.9239 114.837 58.9625C115.401 59.9239 117.268 63.962 117.491 69.4834C117.642 74.8675 115.847 79.1253 114.804 81.0481ZM122.127 54.8146C122.05 58.2483 121.64 61.8743 121.117 64.0444C121.304 60.3085 120.855 55.0618 119.996 50.9413C119.137 46.8483 116.706 39.9809 114.765 36.8219C112.973 39.8436 110.765 45.777 109.609 50.9139C108.447 56.0507 108.414 62.2863 108.414 64.1543C108.106 62.5885 107.335 56.9572 107.552 51.3259C107.734 46.6835 108.824 41.8763 109.422 39.6788C111.701 32.3444 114.281 27.647 114.765 26.9053C115.25 27.647 118.499 33.4431 120.183 39.5139C121.86 45.5847 122.199 51.4083 122.127 54.8146Z" fill="white"/>
<path d="M118.292 85.3883H102.657V95.8542C102.671 95.8542 102.682 95.8268 102.696 95.8268C106.38 92.1458 112.354 92.1458 116.04 95.8268C119.724 99.4803 119.724 105.441 116.04 109.122C116.024 109.15 116.007 109.15 115.99 109.177C115.971 109.177 115.952 109.205 115.935 109.232C112.26 112.858 107.459 114.671 102.657 114.671C97.8341 114.671 93.0108 112.858 89.3327 109.177C82.8465 102.722 82.0785 92.6952 87.0229 85.3883C87.6892 84.3994 88.4573 83.4654 89.3327 82.5864C93.0108 78.9054 97.8341 77.0924 102.657 77.0924V51.9302C84.124 51.9302 69.1006 66.9011 69.1006 85.3883C69.1006 103.875 84.124 118.874 102.657 118.874C112.321 118.874 121.026 114.781 127.149 108.271V85.3883H118.292Z" fill="white"/>
</svg>
