<svg width="340" height="180" viewBox="0 0 340 180" fill="none" xmlns="http://www.w3.org/2000/svg">
<path d="M152.109 91.2666C152.109 89.7288 151.699 88.4986 151.084 87.5759C150.366 86.6533 149.341 86.2432 148.008 86.2432C147.598 86.2432 147.188 86.2432 146.881 86.3457C146.471 86.3457 146.163 86.3457 145.958 86.4482V95.2648C146.266 95.3673 146.573 95.5723 147.086 95.6749C147.598 95.8799 148.111 95.8799 148.623 95.8799C150.879 95.8799 152.109 94.3421 152.109 91.2666ZM157.03 91.0615C157.03 92.3943 156.927 93.6245 156.517 94.7522C156.21 95.7774 155.697 96.8026 155.082 97.5202C154.467 98.3403 153.647 98.9554 152.724 99.3655C151.802 99.7756 150.776 99.9806 149.546 99.9806C148.828 99.9806 148.213 99.9806 147.598 99.8781C146.983 99.6731 146.471 99.468 145.958 99.263V105.722H141.037V83.0651C141.447 82.9626 141.96 82.8601 142.575 82.655C143.087 82.5525 143.703 82.45 144.318 82.3475C144.933 82.3475 145.548 82.245 146.266 82.1425C146.881 82.1425 147.496 82.1425 148.111 82.1425C149.546 82.1425 150.776 82.3475 151.904 82.7576C153.032 83.1676 153.954 83.7827 154.672 84.5004C155.492 85.3205 156.005 86.2432 156.415 87.3709C156.825 88.4986 157.03 89.7288 157.03 91.0615ZM169.742 86.7558C169.332 86.6533 168.82 86.5507 168.204 86.4482C167.589 86.3457 166.974 86.2432 166.359 86.2432C166.052 86.2432 165.641 86.3457 165.231 86.3457C164.821 86.4482 164.514 86.4482 164.206 86.5507V99.6731H159.388V83.3727C160.208 83.0651 161.233 82.8601 162.463 82.5525C163.694 82.245 165.026 82.1425 166.462 82.1425C166.667 82.1425 166.974 82.1425 167.384 82.1425C167.794 82.245 168.102 82.245 168.512 82.3475C168.922 82.3475 169.23 82.45 169.64 82.5525C169.947 82.5525 170.255 82.655 170.562 82.7576L169.742 86.7558ZM187.888 91.0615C187.888 92.3943 187.683 93.6245 187.273 94.7522C186.863 95.8799 186.248 96.9051 185.53 97.6227C184.812 98.4429 183.89 99.058 182.865 99.468C181.839 99.9806 180.712 100.186 179.379 100.186C178.149 100.186 177.021 99.9806 175.996 99.468C174.868 99.058 174.048 98.4429 173.33 97.6227C172.51 96.9051 171.998 95.8799 171.588 94.7522C171.177 93.6245 170.972 92.3943 170.972 91.0615C170.972 89.7288 171.177 88.4986 171.588 87.3709C171.998 86.2432 172.613 85.3205 173.33 84.5004C174.048 83.6802 174.971 83.1676 175.996 82.655C177.021 82.245 178.149 82.0399 179.379 82.0399C180.609 82.0399 181.839 82.245 182.865 82.655C183.89 83.1676 184.71 83.6802 185.53 84.5004C186.248 85.3205 186.76 86.2432 187.273 87.3709C187.683 88.4986 187.888 89.7288 187.888 91.0615ZM182.865 91.0615C182.865 89.5238 182.557 88.3961 181.942 87.4734C181.327 86.6533 180.507 86.2432 179.379 86.2432C178.251 86.2432 177.431 86.6533 176.816 87.4734C176.201 88.3961 175.893 89.5238 175.893 91.0615C175.893 92.5993 176.201 93.727 176.816 94.6497C177.431 95.5723 178.251 95.9824 179.379 95.9824C180.507 95.9824 181.327 95.5723 181.942 94.6497C182.557 93.727 182.865 92.5993 182.865 91.0615ZM194.347 90.959C194.347 92.4968 194.654 93.727 195.372 94.5472C195.987 95.4698 197.012 95.9824 198.345 95.9824C198.755 95.9824 199.165 95.9824 199.575 95.8799C199.985 95.8799 200.293 95.8799 200.498 95.7774V86.9608C200.19 86.7558 199.78 86.5507 199.267 86.4482C198.755 86.3457 198.345 86.2432 197.832 86.2432C195.474 86.2432 194.347 87.781 194.347 90.959ZM205.316 99.1605C204.906 99.263 204.393 99.3655 203.881 99.468C203.266 99.6731 202.651 99.7756 202.035 99.8781C201.42 99.8781 200.805 99.9806 200.19 100.083C199.575 100.083 198.96 100.083 198.345 100.083C196.91 100.083 195.679 99.8781 194.552 99.468C193.424 99.058 192.501 98.4429 191.681 97.7252C190.963 96.9051 190.348 95.9824 189.938 94.8547C189.528 93.8295 189.323 92.5993 189.323 91.1641C189.323 89.8313 189.528 88.4986 189.836 87.3709C190.246 86.2432 190.758 85.3205 191.374 84.5004C192.091 83.7827 192.809 83.1676 193.834 82.7576C194.757 82.3475 195.782 82.1425 197.012 82.1425C197.73 82.1425 198.345 82.245 198.857 82.3475C199.37 82.45 199.985 82.655 200.498 82.8601V75.0687L205.316 74.3511V99.1605ZM215.055 96.29C215.568 96.29 215.978 96.29 216.491 96.29C216.901 96.29 217.208 96.1875 217.516 96.1875V92.4968C217.311 92.3943 217.003 92.3943 216.593 92.2918C216.183 92.2918 215.875 92.2918 215.568 92.2918C215.055 92.2918 214.645 92.2918 214.235 92.3943C213.825 92.3943 213.517 92.4968 213.21 92.7018C212.902 92.8043 212.595 93.0094 212.492 93.3169C212.287 93.522 212.185 93.8295 212.185 94.2396C212.185 95.0597 212.492 95.5723 213.005 95.8799C213.517 96.1875 214.235 96.29 215.055 96.29ZM214.645 82.0399C216.183 82.0399 217.311 82.245 218.336 82.5525C219.258 82.8601 219.976 83.2702 220.591 83.8853C221.206 84.5004 221.616 85.3205 221.821 86.1407C222.026 87.0633 222.232 87.986 222.232 89.1137V99.1605C221.514 99.3655 220.489 99.5706 219.258 99.7756C218.028 99.9806 216.491 100.083 214.748 100.083C213.62 100.083 212.595 99.9806 211.775 99.7756C210.852 99.5706 210.032 99.263 209.417 98.7504C208.699 98.3403 208.187 97.7252 207.879 97.0076C207.571 96.29 207.366 95.4698 207.366 94.4446C207.366 93.4195 207.571 92.4968 207.981 91.8817C208.392 91.1641 208.904 90.549 209.622 90.1389C210.237 89.7288 211.057 89.4212 211.877 89.3187C212.8 89.1137 213.723 89.0112 214.645 89.0112C215.26 89.0112 215.773 89.0112 216.285 89.1137C216.798 89.1137 217.208 89.2162 217.516 89.3187V88.8061C217.516 87.986 217.208 87.3709 216.798 86.8583C216.285 86.3457 215.363 86.0381 214.133 86.0381C213.312 86.0381 212.492 86.1407 211.672 86.2432C210.852 86.3457 210.134 86.5507 209.622 86.7558L209.007 82.8601C209.212 82.7576 209.622 82.655 210.032 82.5525C210.442 82.45 210.955 82.3475 211.467 82.3475C211.877 82.245 212.492 82.1425 213.005 82.1425C213.517 82.0399 214.133 82.0399 214.645 82.0399ZM234.636 90.5489C234.636 89.0112 234.431 87.8835 234.021 87.2684C233.611 86.5507 232.893 86.2432 231.971 86.2432C231.663 86.2432 231.356 86.2432 230.946 86.3457C230.638 86.3457 230.33 86.3457 230.023 86.4482V99.6731H225.205V83.0651C225.615 82.9626 226.025 82.8601 226.64 82.7576C227.152 82.655 227.768 82.5525 228.383 82.45C228.998 82.3475 229.613 82.245 230.33 82.1425C230.946 82.1425 231.561 82.1425 232.278 82.1425C233.509 82.1425 234.534 82.245 235.251 82.5525C236.071 82.8601 236.687 83.2702 237.199 83.6802C237.917 83.1676 238.634 82.7576 239.557 82.5525C240.48 82.245 241.3 82.1425 242.12 82.1425C243.453 82.1425 244.58 82.245 245.503 82.655C246.323 83.0651 247.041 83.5777 247.554 84.2953C248.066 85.013 248.476 85.8331 248.681 86.7558C248.886 87.781 248.989 88.8061 248.989 89.9338V99.6731H244.068V90.5489C244.068 89.0112 243.863 87.8835 243.453 87.2684C243.043 86.5507 242.428 86.2432 241.402 86.2432C241.095 86.2432 240.787 86.3457 240.275 86.4482C239.865 86.5507 239.455 86.7558 239.147 86.9608C239.25 87.4734 239.352 87.986 239.455 88.4986C239.455 89.1137 239.455 89.6263 239.455 90.3439V99.6731H234.636V90.5489ZM266.622 99.058C265.802 99.3655 264.777 99.5706 263.444 99.7756C262.111 99.9806 260.778 100.083 259.343 100.083C257.805 100.083 256.678 99.8781 255.652 99.468C254.73 99.058 253.91 98.5454 253.397 97.8277C252.782 97.1101 252.372 96.29 252.167 95.2648C251.859 94.3421 251.757 93.2144 251.757 92.0867V82.45H256.678V91.4716C256.678 93.0094 256.883 94.2396 257.293 94.8547C257.703 95.5723 258.42 95.9824 259.651 95.9824C259.958 95.9824 260.368 95.8799 260.676 95.8799C261.086 95.8799 261.496 95.7774 261.804 95.7774V82.45H266.622V99.058ZM274.721 96.1875C275.643 96.1875 276.259 96.0849 276.669 95.9824C276.976 95.7774 277.181 95.4698 277.181 94.9572C277.181 94.5472 276.976 94.1371 276.464 93.9321C275.951 93.6245 275.233 93.2144 274.311 92.9069C273.491 92.5993 272.773 92.2918 272.158 91.9842C271.543 91.6767 271.03 91.3691 270.62 90.959C270.21 90.4464 269.8 89.9338 269.595 89.4213C269.39 88.8061 269.185 88.0885 269.185 87.2684C269.185 85.6281 269.8 84.3979 271.03 83.4752C272.26 82.45 273.901 82.0399 275.951 82.0399C276.976 82.0399 278.001 82.1425 279.027 82.3475C279.949 82.45 280.667 82.655 281.282 82.9626L280.462 86.7558C279.847 86.5507 279.232 86.3457 278.617 86.1407C277.899 86.0381 277.181 85.9356 276.361 85.9356C274.823 85.9356 274.003 86.3457 274.003 87.2684C274.003 87.4734 274.106 87.5759 274.106 87.781C274.208 87.8835 274.311 88.0885 274.516 88.191C274.721 88.2936 275.028 88.4986 275.336 88.7036C275.644 88.8061 276.054 89.0112 276.669 89.2162C277.694 89.6263 278.617 90.0364 279.232 90.3439C279.949 90.754 280.564 91.1641 280.974 91.5741C281.282 92.0867 281.59 92.5993 281.795 93.1119C281.897 93.6245 282 94.2396 282 94.9572C282 96.7 281.385 97.9303 280.154 98.8529C278.822 99.6731 276.976 100.186 274.721 100.186C273.183 100.186 271.85 99.9806 270.928 99.7756C269.902 99.468 269.185 99.263 268.775 99.058L269.595 95.1623C270.415 95.4698 271.235 95.7774 272.158 95.8799C272.978 96.0849 273.901 96.1875 274.721 96.1875Z" fill="#FEFEFE"/>
<path fill-rule="evenodd" clip-rule="evenodd" d="M110.283 56C118.997 56 126.071 63.0738 126.071 71.7878C126.071 80.5019 118.997 87.5756 110.283 87.5756C101.569 87.5756 94.4955 80.5019 94.4955 71.7878C94.4955 63.0738 101.569 56 110.283 56ZM73.7868 92.4965C82.5009 92.4965 89.5746 99.5702 89.5746 108.284C89.5746 116.998 82.5009 124.072 73.7868 124.072C65.0728 124.072 57.999 116.998 57.999 108.284C57.999 99.5702 65.0728 92.4965 73.7868 92.4965ZM71.0188 116.281V111.052H65.7904C65.4829 111.052 65.1753 110.847 65.1753 110.437V106.029C65.1753 105.721 65.4829 105.414 65.7904 105.414H71.0188V100.288C71.0188 99.8778 71.2239 99.6728 71.6339 99.6728H76.0422C76.3498 99.6728 76.6573 99.8778 76.6573 100.288V105.414H81.7832C82.1933 105.414 82.3984 105.721 82.3984 106.029V110.437C82.3984 110.847 82.1933 111.052 81.7832 111.052H76.6573V116.281C76.6573 116.588 76.3498 116.896 76.0422 116.896H71.6339C71.2239 116.896 71.0188 116.588 71.0188 116.281ZM110.283 92.4965C118.997 92.4965 126.071 99.5702 126.071 108.284C126.071 116.998 118.997 124.072 110.283 124.072C101.569 124.072 94.4955 116.998 94.4955 108.284C94.4955 99.5702 101.569 92.4965 110.283 92.4965ZM102.287 110.13H118.28C118.587 110.13 118.895 110.437 118.895 110.745V115.153C118.895 115.461 118.587 115.768 118.28 115.768H102.287C101.877 115.768 101.672 115.461 101.672 115.153V110.745C101.672 110.437 101.877 110.13 102.287 110.13ZM102.287 100.8H118.28C118.587 100.8 118.895 101.005 118.895 101.416V105.824C118.895 106.131 118.587 106.336 118.28 106.336H102.287C101.877 106.336 101.672 106.131 101.672 105.824V101.416C101.672 101.005 101.877 100.8 102.287 100.8ZM73.7868 56C82.5009 56 89.5746 63.0738 89.5746 71.7878C89.5746 80.5019 82.5009 87.5756 73.7868 87.5756C65.0728 87.5756 57.999 80.5019 57.999 71.7878C57.999 63.0738 65.0728 56 73.7868 56ZM77.4775 79.4767L73.7868 75.786L70.0962 79.4767C69.8911 79.6817 69.4811 79.6817 69.276 79.4767L66.098 76.2986C65.8929 76.0936 65.8929 75.6835 66.098 75.4785L69.7886 71.7878L66.098 68.0971C65.8929 67.8921 65.8929 67.482 66.098 67.277L69.276 64.0989C69.4811 63.8939 69.8911 63.8939 70.0962 64.0989L73.7868 67.7896L77.4775 64.0989C77.6825 63.8939 78.0926 63.8939 78.2976 64.0989L81.4757 67.277C81.6807 67.482 81.6807 67.8921 81.4757 68.0971L77.785 71.7878L81.4757 75.4785C81.6807 75.6835 81.6807 76.0936 81.4757 76.2986L78.2976 79.4767C78.0926 79.6817 77.6825 79.6817 77.4775 79.4767ZM102.287 69.0198H118.28C118.587 69.0198 118.895 69.2248 118.895 69.6349V74.0432C118.895 74.3508 118.587 74.6583 118.28 74.6583H102.287C101.877 74.6583 101.672 74.3508 101.672 74.0432V69.6349C101.672 69.2248 101.877 69.0198 102.287 69.0198Z" fill="#FEFEFE"/>
</svg>
