<svg width="384" height="256" viewBox="0 0 384 256" fill="none" xmlns="http://www.w3.org/2000/svg">
<path d="M91.6164 105.918V128.852C91.6164 129.9 90.8301 130.686 89.7817 130.686H87.0297C86.8986 130.686 86.7676 130.817 86.7676 130.948V150.213C87.4228 150.213 88.0781 150.344 88.8644 150.344C101.183 150.344 111.143 140.384 111.143 128.065C111.143 116.664 102.625 107.228 91.6164 105.918ZM91.0922 140.253C89.5196 140.253 88.3402 138.942 88.3402 137.501C88.3402 135.928 89.6507 134.749 91.0922 134.749C92.6648 134.749 93.8442 136.059 93.8442 137.501C93.9753 138.942 92.6648 140.253 91.0922 140.253ZM97.6446 140.253C96.0721 140.253 94.8926 138.942 94.8926 137.501C94.8926 135.928 96.2031 134.749 97.6446 134.749C99.2172 134.749 100.397 136.059 100.397 137.501C100.397 138.942 99.2172 140.253 97.6446 140.253ZM104.197 140.253C102.625 140.253 101.445 138.942 101.445 137.501C101.445 135.928 102.756 134.749 104.197 134.749C105.77 134.749 106.949 136.059 106.949 137.501C106.949 138.942 105.77 140.253 104.197 140.253Z" fill="white"/>
<path d="M88.8643 105.787C76.5457 105.787 66.5859 115.747 66.5859 128.065C66.5859 138.811 74.0557 147.723 84.1465 149.82V129.769C84.1465 128.852 84.9328 128.065 85.8502 127.934H88.6022C88.7332 127.934 88.8643 127.803 88.8643 127.672V105.787ZM84.5397 124.134C82.9671 124.134 81.7876 122.823 81.7876 121.382C81.7876 119.809 83.0981 118.63 84.5397 118.63C86.1123 118.63 87.2917 119.94 87.2917 121.382C87.2917 122.823 86.1123 124.134 84.5397 124.134ZM300.64 126.362V117.975H295.004V140.253H300.64V131.211H311.91V140.253H317.414V117.975H311.91V126.362H300.64ZM219.127 120.465C218.21 118.499 216.375 117.45 214.54 117.45C212.706 117.45 210.871 118.499 209.954 120.465L200.911 140.253H206.808L208.774 135.535H220.307L222.272 140.253H228.169L219.127 120.465ZM210.609 131.08L214.016 122.955C214.147 122.692 214.278 122.692 214.409 122.692C214.54 122.692 214.802 122.692 214.802 122.955L218.21 131.08H210.609ZM152.816 113.912C150.195 113.912 148.492 115.354 147.312 118.106L140.104 134.88L132.897 118.106C131.717 115.354 130.014 113.912 127.393 113.912C124.903 113.912 122.413 115.616 122.413 119.416V140.122H127.917V120.071L135.256 136.715C136.173 139.074 137.877 140.515 140.104 140.515C142.463 140.515 144.036 139.074 144.953 136.715L152.292 120.071V140.253H157.796V119.547C157.796 115.747 155.306 113.912 152.816 113.912ZM167.625 135.535C167.363 135.535 167.101 135.273 167.101 135.011V131.08H180.992V126.493H167.101V123.086C167.101 122.823 167.363 122.561 167.625 122.561H181.385V117.844H164.873C162.907 117.844 161.597 119.416 161.597 121.12V136.715C161.597 138.418 163.038 139.991 164.873 139.991H181.385V135.273H167.625V135.535ZM190.689 140.253V123.217C190.689 122.955 190.952 122.692 191.214 122.692H204.974V117.975H188.462C186.496 117.975 185.185 119.547 185.185 121.251V140.122H190.689V140.253ZM291.335 129.114C291.335 121.382 287.928 117.713 279.541 117.713H277.575C269.188 117.713 265.781 121.382 265.781 129.114C265.781 136.715 269.188 140.515 277.575 140.515H279.41C287.928 140.384 291.335 136.715 291.335 129.114ZM279.41 135.797H277.575C272.988 135.797 271.154 133.701 271.154 129.114C271.154 124.658 272.726 122.43 277.575 122.43H279.41C284.127 122.43 285.831 124.658 285.831 129.114C285.831 133.701 284.127 135.797 279.41 135.797ZM250.317 114.436H239.309C231.053 114.436 227.776 118.63 227.776 125.838C227.776 127.017 227.907 128.065 228.038 128.983C228.956 134.094 231.97 137.239 239.702 137.239H242.192V140.122H247.696V137.239H250.055C257.787 137.239 260.801 134.094 261.718 128.983C261.849 128.065 261.98 127.017 261.98 125.838C261.849 118.63 258.442 114.436 250.317 114.436ZM241.93 132.652H239.44C235.639 132.652 234.329 131.211 233.542 128.983C233.28 128.197 233.28 127.017 233.28 125.838C233.28 121.12 235.508 119.154 238.653 119.154H242.061V132.652H241.93ZM256.083 129.114C255.297 131.342 253.855 132.783 250.186 132.783H247.696V119.154H251.103C254.248 119.154 256.476 121.12 256.476 125.838C256.345 127.148 256.345 128.197 256.083 129.114Z" fill="white"/>
</svg>
