<svg width="16" height="16" viewBox="0 0 16 16" fill="none" xmlns="http://www.w3.org/2000/svg">
  <rect width="16" height="16" rx="2" fill="#161616"/>
  <path d="M8.33398 8.72971V14.9826L9.40937 14.354V11.889L12.2129 10.1945V8.92101L9.40937 10.6154V9.35281L12.9298 7.23207V9.89939L13.9998 9.21617V5.30811L8.33398 8.72971Z" fill="#FFDE00"/>
  <path d="M1.99951 5.30811V9.003L3.07489 9.6589V7.23207L3.06954 5.95307L1.99951 5.30811Z" fill="#FFDE00"/>
  <path d="M5.12912 7.19902V7.19355L4.05908 6.54858V10.238L5.13447 10.872V8.47255L6.59506 9.35255V10.6152V11.8887V14.3538L7.6651 14.9823V8.72945L6.60576 8.08994L5.12912 7.19902Z" fill="#FFDE00"/>
  <path d="M12.3624 4.27462L10.1421 5.58095L7.30649 3.94667L6.22575 4.5807L9.06135 6.22045L7.99666 6.84902L4.43344 4.79387L8.85269 2.19214L7.788 1.55811L2.27197 4.8048L8.00201 8.11162L13.4324 4.90865L12.3624 4.27462Z" fill="#FFDE00"/>
  </svg>
  