<svg width="90" height="90" viewBox="0 0 90 90" fill="none" xmlns="http://www.w3.org/2000/svg">
  <circle cx="45" cy="45" r="45" fill="#FFDE00"/>
  <path d="M47.1733 48.1081V87.4395L54.1631 83.4857V67.9801L72.3852 57.3221V49.3115L54.1631 59.9694V52.0275L77.045 38.6879V55.4656L84 51.168V26.5859L47.1733 48.1081Z" fill="black"/>
  <path d="M6 26.5859V49.8272L12.9897 53.9528V38.6879L12.955 30.6428L6 26.5859Z" fill="black"/>
  <path d="M26.3432 38.4741V38.4397L19.3882 34.3828V57.5897L26.3779 61.5778V46.4848L35.8715 52.02V59.9619V67.9726V83.4782L42.8264 87.432V48.1006L35.941 44.0781L26.3432 38.4741Z" fill="black"/>
  <path d="M73.3584 20.0871L58.9268 28.3041L40.4961 18.0243L33.4716 22.0124L51.9023 32.3266L44.9821 36.2804L21.822 23.3533L50.5461 6.98814L43.6259 3L7.77295 23.422L45.0168 44.2223L80.3134 24.0753L73.3584 20.0871Z" fill="black"/>
  </svg>
  