<svg width="72" height="81" viewBox="0 0 72 81" fill="none" xmlns="http://www.w3.org/2000/svg">
  <style>
    path {
    fill: black;
    }

    @media (prefers-color-scheme: dark) {
    path {
    fill: white;
    }
    }
  </style>
  <path
    d="M38.0059 43.0252V80.541L44.4579 76.7697V61.9798L61.2782 51.8139V44.173L44.4579 54.3389V46.7637L65.5795 34.0398V50.043L71.9995 45.9438V22.4965L38.0059 43.0252Z"
  />
  <path d="M0 22.4965V44.6649L6.45201 48.6001V34.0398L6.41991 26.3661L0 22.4965Z" />
  <path
    d="M18.7783 33.8429V33.8101L12.3584 29.9404V52.076L18.8104 55.8801V41.4837L27.5736 46.7635V54.3388V61.9797V76.7695L33.9936 80.5408V43.025L27.6378 39.1882L18.7783 33.8429Z"
  />
  <path
    d="M62.1767 16.2984L48.8553 24.136L31.8425 14.3308L25.3584 18.1348L42.3712 27.9729L35.9834 31.7441L14.605 19.4138L41.1193 3.80405L34.7315 0L1.63672 19.4793L36.0155 39.3194L68.5966 20.1024L62.1767 16.2984Z"
  />
</svg>
