<svg viewBox="0 0 340 180" fill="none" xmlns="http://www.w3.org/2000/svg">
	<path
		d="M69.6164 67.918V90.8516C69.6164 91.8999 68.8301 92.6862 67.7817 92.6862H65.0297C64.8986 92.6862 64.7676 92.8173 64.7676 92.9483V112.213C65.4228 112.213 66.0781 112.344 66.8644 112.344C79.183 112.344 89.1427 102.384 89.1427 90.0653C89.1427 78.664 80.6245 69.2285 69.6164 67.918ZM69.0922 102.253C67.5196 102.253 66.3402 100.942 66.3402 99.5008C66.3402 97.9282 67.6507 96.7488 69.0922 96.7488C70.6648 96.7488 71.8442 98.0593 71.8442 99.5008C71.9753 100.942 70.6648 102.253 69.0922 102.253ZM75.6446 102.253C74.0721 102.253 72.8926 100.942 72.8926 99.5008C72.8926 97.9282 74.2031 96.7488 75.6446 96.7488C77.2172 96.7488 78.3967 98.0593 78.3967 99.5008C78.3967 100.942 77.2172 102.253 75.6446 102.253ZM82.1971 102.253C80.6245 102.253 79.4451 100.942 79.4451 99.5008C79.4451 97.9282 80.7556 96.7488 82.1971 96.7488C83.7697 96.7488 84.9491 98.0593 84.9491 99.5008C84.9491 100.942 83.7697 102.253 82.1971 102.253Z"
		fill="#FFF" />
	<path
		d="M66.8643 67.7871C54.5457 67.7871 44.5859 77.7468 44.5859 90.0655C44.5859 100.811 52.0557 109.723 62.1465 111.82V91.7691C62.1465 90.8517 62.9328 90.0655 63.8502 89.9344H66.6022C66.7332 89.9344 66.8643 89.8034 66.8643 89.6723V67.7871ZM62.5397 86.134C60.9671 86.134 59.7876 84.8235 59.7876 83.3819C59.7876 81.8094 61.0981 80.6299 62.5397 80.6299C64.1123 80.6299 65.2917 81.9404 65.2917 83.3819C65.2917 84.8235 64.1123 86.134 62.5397 86.134ZM278.64 88.3618V79.9747H273.004V102.253H278.64V93.2106H289.91V102.253H295.414V79.9747H289.91V88.3618H278.64ZM197.127 82.4646C196.21 80.4989 194.375 79.4505 192.54 79.4505C190.706 79.4505 188.871 80.4989 187.954 82.4646L178.911 102.253H184.808L186.774 97.5352H198.307L200.272 102.253H206.169L197.127 82.4646ZM188.609 93.0796L192.016 84.9545C192.147 84.6924 192.278 84.6924 192.409 84.6924C192.54 84.6924 192.802 84.6924 192.802 84.9545L196.21 93.0796H188.609ZM130.816 75.9122C128.195 75.9122 126.492 77.3537 125.312 80.1057L118.104 96.88L110.897 80.1057C109.717 77.3537 108.014 75.9122 105.393 75.9122C102.903 75.9122 100.413 77.6158 100.413 81.4162V102.122H105.917V82.0715L113.256 98.7147C114.173 101.074 115.877 102.515 118.104 102.515C120.463 102.515 122.036 101.074 122.953 98.7147L130.292 82.0715V102.253H135.796V81.5473C135.796 77.7468 133.306 75.9122 130.816 75.9122ZM145.625 97.5352C145.363 97.5352 145.101 97.2731 145.101 97.0111V93.0796H158.992V88.4929H145.101V85.0856C145.101 84.8235 145.363 84.5614 145.625 84.5614H159.385V79.8436H142.873C140.907 79.8436 139.597 81.4162 139.597 83.1199V98.7147C139.597 100.418 141.038 101.991 142.873 101.991H159.385V97.2732H145.625V97.5352ZM168.689 102.253V85.2166C168.689 84.9545 168.952 84.6924 169.214 84.6924H182.974V79.9747H166.462C164.496 79.9747 163.185 81.5473 163.185 83.2509V102.122H168.689V102.253ZM269.335 91.1138C269.335 83.3819 265.928 79.7126 257.541 79.7126H255.575C247.188 79.7126 243.781 83.3819 243.781 91.1138C243.781 98.7147 247.188 102.515 255.575 102.515H257.41C265.928 102.384 269.335 98.7147 269.335 91.1138ZM257.41 97.7973H255.575C250.988 97.7973 249.154 95.7006 249.154 91.1138C249.154 86.6582 250.726 84.4303 255.575 84.4303H257.41C262.127 84.4303 263.831 86.6582 263.831 91.1138C263.831 95.7006 262.127 97.7973 257.41 97.7973ZM228.317 76.4363H217.309C209.053 76.4363 205.776 80.6299 205.776 87.8376C205.776 89.0171 205.907 90.0655 206.038 90.9828C206.956 96.0937 209.97 99.2389 217.702 99.2389H220.192V102.122H225.696V99.2389H228.055C235.787 99.2389 238.801 96.0937 239.718 90.9828C239.849 90.0655 239.98 89.0171 239.98 87.8376C239.849 80.6299 236.442 76.4363 228.317 76.4363ZM219.93 94.6522H217.44C213.639 94.6522 212.329 93.2106 211.542 90.9828C211.28 90.1965 211.28 89.0171 211.28 87.8376C211.28 83.1199 213.508 81.1541 216.653 81.1541H220.061V94.6522H219.93ZM234.083 91.1138C233.297 93.3417 231.855 94.7832 228.186 94.7832H225.696V81.1541H229.103C232.248 81.1541 234.476 83.1199 234.476 87.8376C234.345 89.1481 234.345 90.1965 234.083 91.1138Z"
		fill="#FFF" />
</svg>
	