<svg swidth="366" height="366" viewBox="0 0 366 366" fill="none"
	xmlns="http://www.w3.org/2000/svg">
	<path
		d="M31 102.125C31 94.4987 35.337 87.5362 42.1819 84.1738L174.182 19.3317C179.743 16.5998 186.257 16.5998 191.818 19.3317L323.818 84.1738C330.663 87.5362 335 94.4987 335 102.125V263.875C335 271.501 330.663 278.464 323.818 281.826L191.818 346.668C186.257 349.4 179.743 349.4 174.182 346.668L42.1819 281.826C35.337 278.464 31 271.501 31 263.875V102.125Z"
		fill="#FFDE00" fill-opacity="0.06" />
	<path
		d="M77 130.466C77 122.836 81.3413 115.87 88.1915 112.51L174.192 70.3211C179.748 67.5955 186.252 67.5955 191.809 70.3212L277.809 112.51C284.659 115.87 289 122.836 289 130.466V235.534C289 243.164 284.659 250.13 277.809 253.49L191.808 295.679C186.252 298.404 179.748 298.404 174.192 295.679L88.1915 253.49C81.3413 250.13 77 243.164 77 235.534V130.466Z"
		fill="#FFDE00" fill-opacity="0.2" />
	<path
		d="M115 153.803C115 146.171 119.344 139.204 126.197 135.845L174.197 112.315C179.75 109.593 186.25 109.593 191.803 112.315L239.803 135.845C246.656 139.204 251 146.171 251 153.803V212.197C251 219.829 246.656 226.796 239.803 230.155L191.803 253.685C186.25 256.407 179.75 256.407 174.197 253.685L126.197 230.155C119.344 226.796 115 219.829 115 212.197V153.803Z"
		fill="url(#paint0_linear_4007_96)" />
	<path
		d="M185.006 186.025V223.541L191.458 219.77V204.98L208.278 194.814V187.173L191.458 197.339V189.764L212.58 177.04V193.043L218.999 188.944V165.496L185.006 186.025Z"
		fill="white" />
	<path d="M147 165.496V187.665L153.452 191.6V177.04L153.42 169.366L147 165.496Z" fill="white" />
	<path
		d="M165.778 176.843V176.81L159.358 172.94V195.076L165.81 198.88V184.484L174.574 189.763V197.339V204.98V219.77L180.994 223.541V186.025L174.638 182.188L165.778 176.843Z"
		fill="white" />
	<path
		d="M209.177 159.298L195.855 167.136L178.843 157.331L172.358 161.135L189.371 170.973L182.983 174.744L161.605 162.414L188.119 146.804L181.731 143L148.637 162.479L183.015 182.319L215.597 163.102L209.177 159.298Z"
		fill="white" />
	<defs>
		<linearGradient id="paint0_linear_4007_96" x1="115" y1="183" x2="251" y2="183"
			gradientUnits="userSpaceOnUse">
			<stop stop-color="#E09309" />
			<stop offset="1" stop-color="#EFCE08" />
		</linearGradient>
	</defs>
</svg>