<svg width="60" height="60" viewBox="0 0 60 60" fill="none" xmlns="http://www.w3.org/2000/svg">
<g clip-path="url(#clip0_2893_188)">
<path d="M44.8579 9.79484C45.3788 9.24996 45.8762 8.7544 46.3385 8.22597C46.4324 8.12028 46.4652 7.86428 46.4042 7.73511C45.2169 5.23618 46.843 2.30277 49.6635 2.01389C51.2755 1.84948 53.0472 2.86878 53.6643 4.47523C53.8262 4.89563 54.0256 5.02246 54.4644 5.01776C56.2806 4.99193 58.0968 5.00602 59.9576 5.00602V7.01408C59.7628 7.01408 59.5563 7.01408 59.3498 7.01408C57.6909 7.01408 56.0296 7.02583 54.3706 7.00469C54.0069 6.99999 53.8285 7.09393 53.6924 7.45327C52.8688 9.59286 50.473 10.5793 48.394 9.62809C48.0515 9.47073 47.8755 9.53414 47.6502 9.77605C47.2231 10.2317 46.7843 10.6803 46.3221 11.1007C46.0546 11.3449 46.0405 11.5352 46.2353 11.8428C47.3944 13.6818 48.2861 15.6476 48.9173 17.7308C49.9005 20.986 50.2149 24.2999 49.8512 27.6842C49.4453 31.4537 48.2392 34.9391 46.2423 38.1496C45.9983 38.5419 46.1461 38.7203 46.4019 38.974C50.3416 42.9079 54.2767 46.8489 58.2141 50.7852C59.1668 51.7364 59.798 52.8402 59.9693 54.2001C60.2134 56.1283 59.1387 58.3148 57.4492 59.259C55.464 60.3675 53.1387 60.2149 51.5313 58.8644C51.1723 58.5638 50.825 58.2467 50.4942 57.9156C46.6647 54.0897 42.8375 50.2661 39.0245 46.4261C38.6889 46.0903 38.4613 46.0292 38.046 46.2923C35.6314 47.8118 33.0127 48.8523 30.2274 49.4465C27.3412 50.0641 24.4316 50.1534 21.5032 49.7353C17.7159 49.1952 14.2267 47.8893 11.0659 45.731C5.5892 41.9873 2.03894 36.8884 0.602884 30.4063C-2.4241 16.7632 6.28376 3.1741 19.9873 0.538958C29.7042 -1.33054 37.9193 1.68508 44.3956 9.24996C44.5317 9.40967 44.6678 9.56937 44.8602 9.79484H44.8579ZM48.0045 24.9457C47.9107 12.0119 37.4641 1.69213 24.441 1.96222C12.0022 2.21822 1.73155 12.4347 1.98497 25.4906C2.22432 37.8889 12.3823 48.2275 25.4852 47.9739C37.9826 47.732 47.9271 37.6142 48.0045 24.9434V24.9457ZM44.5153 49.0777C44.6279 49.1975 44.7687 49.3525 44.9165 49.5005C47.3311 51.9172 49.7456 54.3363 52.1649 56.7506C52.3714 56.9573 52.5872 57.157 52.8148 57.3401C54.3471 58.5614 56.6678 58.0894 57.6017 56.3678C58.3502 54.9939 58.1086 53.5448 56.8884 52.3165C54.3283 49.74 51.7542 47.1777 49.1872 44.6107C49.1355 44.559 49.0722 44.5214 49.0792 44.5285C47.5493 46.0551 46.0452 47.5511 44.5153 49.0777ZM45.055 40.5617C43.5462 42.0671 42.0468 43.5655 40.6342 44.9771C41.3076 45.6535 42.2087 46.5577 43.0135 47.3656C44.4683 45.9165 45.9701 44.4181 47.4414 42.9525C46.606 42.1164 45.7237 41.2334 45.055 40.564V40.5617ZM49.9803 7.97466C51.0949 7.98406 52.0077 7.08924 52.0006 5.99478C51.9936 4.92851 51.0972 4.02195 50.0296 4.00081C48.9408 3.97733 48.028 4.89328 48.0303 6.00418C48.0303 7.11037 48.8798 7.96527 49.9803 7.97466Z" fill="#FFDE00"/>
<path d="M25.034 46.0136C13.4986 45.9526 4.04455 36.84 4.03516 25.0124C4.02578 13.4243 13.1818 4.05568 24.9612 4.01576C36.445 3.97583 45.9366 13.0579 45.9929 24.9748C46.0469 36.4947 36.8533 45.908 25.0363 46.0136H25.034ZM16.0445 25.4586C13.5596 26.7762 11.2436 25.4727 10.5983 23.9649C10.2205 23.0818 9.71604 22.8892 8.88538 22.9902C8.46301 23.0419 8.02656 22.9996 7.59715 22.9996H6.17048C5.30697 30.6067 9.25847 38.8551 17.4783 42.432C24.9307 45.6754 34.1314 43.9704 39.8615 36.84C44.9206 30.5457 45.1318 21.931 41.5627 15.8434C40.9503 16.4681 40.3637 17.0881 39.7489 17.6776C39.5072 17.9101 39.5025 18.0863 39.6363 18.3822C40.3261 19.9041 40.0047 21.6538 38.8525 22.8211C37.7098 23.9813 35.9241 24.336 34.4247 23.6478C34.0704 23.4858 33.8897 23.5398 33.6363 23.7958C31.7121 25.7404 29.7786 27.6757 27.8334 29.5968C27.5565 29.8716 27.5002 30.0736 27.6668 30.447C28.481 32.279 27.763 34.4561 26.0594 35.4308C24.4708 36.3397 22.6523 36.1495 21.289 34.9305C20.0547 33.8267 19.7004 31.9995 20.3762 30.3578C20.4442 30.191 20.4325 29.8763 20.3222 29.7636C18.919 28.3239 17.4923 26.9053 16.0469 25.4586H16.0445ZM32.4255 22.1494C32.2729 21.2875 31.9914 20.5406 32.0406 19.8149C32.2424 16.8791 34.9925 15.2586 37.7074 16.3953C37.8482 16.454 38.111 16.4517 38.2072 16.3601C38.9839 15.6249 39.7325 14.8616 40.481 14.1171C36.7125 8.43115 28.7907 4.4432 20.3128 6.60862C12.2761 8.66131 7.43289 15.4699 6.56938 20.9657H10.1454C10.1971 20.8506 10.2463 20.7473 10.2886 20.6392C11.1192 18.4738 13.4329 17.4451 15.5494 18.3047C17.6261 19.1479 18.567 21.5552 17.6261 23.6689C17.5017 23.9508 17.5252 24.1034 17.7387 24.3148C19.0598 25.6183 20.3715 26.9288 21.6738 28.2511C21.8991 28.4813 22.0751 28.5235 22.3801 28.3779C23.4407 27.873 24.5318 27.8518 25.5971 28.3568C25.9468 28.5235 26.1415 28.4601 26.3973 28.2018C28.3496 26.2313 30.3136 24.2749 32.2729 22.3138C32.3668 22.2199 32.4513 22.1142 32.4255 22.1447V22.1494ZM37.9843 19.9957C37.982 18.8919 37.1325 18.0346 36.0297 18.0276C34.9151 18.0205 34.0023 18.9177 34.0117 20.0122C34.0187 21.0761 34.9221 21.985 35.9898 22.0014C37.0809 22.0179 37.989 21.1066 37.9843 19.9934V19.9957ZM24.0109 33.9934C25.1114 33.9934 26.0242 33.0728 26.0078 31.9807C25.9914 30.9097 25.0833 30.0149 24.0133 30.0149C22.9409 30.0149 22.0399 30.905 22.0305 31.9783C22.0187 33.0939 22.9034 33.9934 24.0109 33.9934ZM14.0242 20.0286C12.919 20.0286 12.0578 20.8694 12.0438 21.9709C12.0297 23.0935 12.9096 24.0048 14.0125 24.0071C15.0919 24.0095 16.0305 23.0607 16.014 21.9826C15.9953 20.9023 15.1083 20.0309 14.0242 20.0286Z" fill="#FFDE00"/>
</g>
<defs>
<clipPath id="clip0_2893_188">
<rect width="60" height="60" fill="white"/>
</clipPath>
</defs>
</svg>
