<svg width="60" height="60" viewBox="0 0 60 60" fill="none" xmlns="http://www.w3.org/2000/svg">
  <g clip-path="url(#clip0_2256_3069)">
    <path
      d="M15.2765 11.4252H23.9507V35.7388C23.9507 46.6954 18.699 50.5203 10.3092 50.5203C8.25573 50.5203 5.62873 50.178 3.91748 49.6068L4.88873 42.5861C6.0866 42.9862 7.62904 43.2706 9.34029 43.2706C12.994 43.2706 15.2765 41.6148 15.2765 35.681V11.4252ZM31.4825 40.9905C33.7649 42.1883 37.4187 43.3885 41.1279 43.3885C45.1239 43.3885 47.2352 41.7328 47.2352 39.1659C47.2352 36.8257 45.4084 35.3988 40.7857 33.8009C34.3939 31.5185 30.1713 27.9803 30.1713 22.3286C30.1713 15.7657 35.7074 10.8008 44.7239 10.8008C49.1176 10.8008 52.258 11.6564 54.5404 12.741L52.6002 19.7039C51.1156 18.9616 48.3198 17.877 44.6105 17.877C40.8435 17.877 39.0166 19.6461 39.0166 21.5863C39.0166 24.0398 41.1279 25.1244 46.1507 27.0646C52.9425 29.576 56.0805 33.1141 56.0805 38.5924C56.0805 45.042 51.1734 50.5203 40.6145 50.5203C36.2208 50.5203 31.8825 49.3224 29.7134 48.1222L31.4825 40.9905Z"
      fill="currentColor" />
  </g>
  <defs>
    <clipPath id="clip0_2256_3069">
      <rect width="60" height="60" fill="white" />
    </clipPath>
  </defs>
</svg>
  