<svg width="62" height="62" viewBox="0 0 62 62" fill="none" xmlns="http://www.w3.org/2000/svg">
<g clip-path="url(#clip0_2893_266)">
<path d="M55.353 15.095C56.5168 15.095 57.5754 15.0875 58.634 15.095C60.6661 15.1101 62 16.442 62 18.4599C62 30.3547 62 42.247 62 54.1417C62 56.1421 60.6311 57.4966 58.6165 57.4966C47.3271 57.4966 36.0403 57.5016 24.7509 57.4866C24.2479 57.4866 23.89 57.6143 23.5647 57.9923C23.1993 58.4179 22.7714 58.7885 22.381 59.1941C21.9705 59.6222 21.485 59.7724 20.9795 59.4469C20.1286 58.9011 19.3753 58.9988 18.4493 59.3843C17.5884 59.7424 17.0854 60.1955 16.8677 61.0693C16.6975 61.7553 16.207 62.0182 15.5088 61.9981C14.6353 61.9731 13.7594 61.9756 12.886 61.9981C12.2178 62.0131 11.7223 61.7728 11.5696 61.1043C11.3544 60.163 10.7788 59.7273 9.89287 59.3543C9.02446 58.9888 8.32122 58.9111 7.5354 59.4069C6.95229 59.7749 6.44175 59.6297 5.97627 59.139C5.3456 58.4755 4.69492 57.8271 4.03173 57.1962C3.55373 56.7405 3.44611 56.2247 3.77396 55.679C4.26697 54.8578 4.18939 54.1392 3.80899 53.2504C3.45112 52.4117 3.03819 51.8484 2.15226 51.6431C1.45402 51.4829 1.19125 51.0147 1.21628 50.3062C1.25131 49.3498 1.23379 48.3909 1.22378 47.432C1.21878 46.9037 1.45402 46.5056 1.94704 46.393C3.00315 46.1551 3.61879 45.5492 3.86405 44.4927C3.98418 43.9745 4.45217 43.5488 4.07427 42.9279C3.87656 42.605 3.7189 42.4548 3.32849 42.4372C1.57916 42.3596 0.435457 41.4483 0.080084 39.8835C0.020021 39.6231 0.00750787 39.3477 0.00750787 39.0799C0 27.1876 0 15.2928 0 3.40056C0 1.39765 1.35892 0.00563318 3.36102 0.00563318C19.5655 -0.00187773 35.7675 -0.00187773 51.972 0.00563318C53.9891 0.00563318 55.343 1.40266 55.3505 3.46065C55.3605 7.08591 55.353 10.7087 55.353 14.3339V15.095ZM59.9979 25.5352H8.72915V39.0673C9.12707 38.8871 9.43489 38.6843 9.77024 38.6117C10.7838 38.3889 11.3719 37.798 11.5997 36.784C11.7323 36.1957 12.1728 35.9703 12.7759 35.9829C13.6919 36.0029 14.6103 36.0179 15.5263 35.9779C16.2395 35.9478 16.71 36.2207 16.8702 36.9067C17.0804 37.7955 17.631 38.2061 18.4719 38.5716C19.3878 38.9697 20.1186 39.0223 20.952 38.5165C21.48 38.1961 21.9755 38.3363 22.4085 38.7919C23.0266 39.4404 23.6723 40.0613 24.303 40.6972C24.9386 41.3356 25.0262 41.5635 24.6058 42.3446C24.1879 43.1207 24.2254 43.7642 24.5633 44.5954C24.9311 45.4967 25.3591 46.1176 26.3276 46.3354C27.0008 46.4881 27.2336 46.9913 27.221 47.6523C27.206 48.506 27.221 49.3598 27.216 50.216C27.2135 51.1148 27.0734 51.3777 26.2275 51.6481C25.4267 51.9035 24.821 52.2765 24.6709 53.1803C24.6233 53.4582 24.4531 53.7161 24.3255 53.979C23.9401 54.7776 24.3831 55.4987 25.2615 55.4987C36.2805 55.4987 47.3021 55.4987 58.3211 55.4987C59.6225 55.4987 59.9954 55.1282 59.9954 53.8313C59.9954 44.6229 59.9954 35.4145 59.9954 26.2037V25.5352H59.9979ZM53.3109 10.4633H2.02963C2.01711 10.611 2.0021 10.7162 2.0021 10.8188C2.0021 20.235 2.0021 29.6487 1.9996 39.0648C1.9996 39.6407 2.1948 40.1589 2.74538 40.3066C3.38104 40.4769 4.09179 40.6922 4.67991 40.1189C5.18794 39.6256 5.64342 39.0673 6.2015 38.6417C6.57189 38.3613 6.65448 38.0834 6.65448 37.6628C6.64447 31.3086 6.64947 24.9569 6.64447 18.6026C6.64447 17.6037 6.90224 16.7174 7.63551 15.9988C8.37128 15.2778 9.26471 15.0875 10.2658 15.0875C24.3455 15.1 38.4228 15.095 52.5025 15.095H53.3109V10.4633ZM8.6766 23.4447H59.9979C59.9979 21.8874 59.9979 20.3702 59.9979 18.853C59.9979 17.4209 59.6801 17.1055 58.231 17.1055C42.3018 17.1055 26.3701 17.1055 10.4409 17.1055C10.2733 17.1055 10.1081 17.103 9.94042 17.1055C9.20215 17.128 8.70663 17.501 8.68911 18.2196C8.64657 19.9421 8.67409 21.6671 8.67409 23.4422L8.6766 23.4447ZM53.3409 8.36276C53.3409 6.80801 53.3409 5.29331 53.3409 3.77861C53.3409 2.37657 52.9705 2.01104 51.5541 2.01104C35.6223 2.01104 19.6881 2.01104 3.75644 2.01104C3.56874 2.01104 3.38104 2.00103 3.19335 2.02106C2.46508 2.09617 2.03213 2.56184 2.0046 3.29791C1.99209 3.6309 2.0021 3.96388 2.0021 4.29686C2.0021 5.64382 2.0021 6.99328 2.0021 8.36026H53.3384L53.3409 8.36276ZM8.82175 56.6879C9.08953 56.8031 9.31727 56.8957 9.54 56.9959C10.1456 57.2663 10.7262 57.6568 11.3619 57.7845C12.3379 57.9798 12.846 58.5206 13.0762 59.4344C13.1238 59.6222 13.2489 59.9276 13.364 59.9401C13.8996 59.9977 14.4602 60.0503 14.9757 59.9401C15.1859 59.8951 15.3661 59.4444 15.4487 59.1465C15.6514 58.4279 16.0769 58.0374 16.8101 57.8646C17.3682 57.7344 17.9538 57.5442 18.4218 57.2237C19.2377 56.6629 19.9985 56.6679 20.7893 57.1761C21.1872 57.4315 21.47 57.3464 21.7353 56.9959C21.8354 56.8632 21.953 56.733 22.0882 56.6454C22.6412 56.2848 22.6312 55.8542 22.3084 55.3435C21.8904 54.68 21.9355 54.0491 22.3584 53.3656C22.6913 52.8248 22.9466 52.2064 23.0942 51.5905C23.2694 50.8519 23.6573 50.4263 24.3706 50.231C24.6433 50.1559 25.0813 50.0308 25.1138 49.863C25.2214 49.3247 25.234 48.7439 25.1564 48.2006C25.1313 48.0278 24.7259 47.8526 24.4682 47.78C23.6873 47.5672 23.2394 47.124 23.0717 46.3003C22.9591 45.742 22.7238 45.1737 22.4085 44.698C21.908 43.9394 21.908 43.2434 22.3584 42.4898C22.4711 42.302 22.6412 41.9691 22.5662 41.8739C22.2208 41.4358 21.8404 41.0026 21.3874 40.6872C21.2298 40.577 20.7993 40.7648 20.5465 40.9075C19.8783 41.2881 19.2927 41.2355 18.622 40.8524C17.9814 40.4844 17.2581 40.2516 16.5524 40.0187C16.0819 39.861 15.734 39.6332 15.5888 39.145C15.5288 38.9472 15.4212 38.7619 15.3711 38.5616C15.266 38.1335 15.0383 37.9207 14.5753 37.9983C14.4126 38.0258 14.2374 38.0283 14.0773 37.9983C13.4566 37.8856 13.1112 38.1235 12.9861 38.7494C12.831 39.5205 12.3304 39.9186 11.5621 40.1239C10.8889 40.3041 10.2357 40.6071 9.62009 40.9426C9.09203 41.2305 8.63155 41.258 8.09098 41.0077C7.10495 40.547 7.11996 40.5946 6.32413 41.3181C5.88867 41.7162 5.75603 42.0667 6.09639 42.5824C6.55938 43.286 6.4843 43.9619 6.02382 44.673C5.726 45.1361 5.49826 45.6794 5.38565 46.2177C5.20045 47.099 4.71745 47.6047 3.86155 47.8175C3.65133 47.8701 3.31097 47.9978 3.29596 48.1205C3.23089 48.6738 3.19585 49.2496 3.29345 49.7929C3.32599 49.9807 3.76645 50.1309 4.04174 50.2285C4.59231 50.4238 5.03778 50.6617 5.2455 51.2826C5.52079 52.1038 5.93372 52.8824 6.20651 53.7036C6.33164 54.0841 6.3942 54.5698 6.26907 54.9354C5.84863 56.1521 5.82861 56.1221 6.71954 57.0534C7.02737 57.3739 7.26512 57.3889 7.6305 57.1962C8.0109 56.9959 8.42633 56.8607 8.82675 56.6979L8.82175 56.6879Z" fill="#FFDE00"/>
<path d="M41.8765 42.9998C45.8532 42.9998 49.8298 42.9998 53.8065 42.9998C53.9942 42.9998 54.1844 42.9848 54.3671 43.0149C54.8526 43.0925 55.258 43.5582 55.2155 44.0238C55.1654 44.5571 54.8726 44.9051 54.3221 44.9927C54.1794 45.0153 54.0318 45.0028 53.8866 45.0028C45.8707 45.0028 37.8548 45.0028 29.8414 45.0028C29.7788 45.0028 29.7163 45.0028 29.6537 45.0028C28.8954 44.9877 28.485 44.6422 28.4825 44.0113C28.4775 43.3804 28.8954 43.0049 29.6362 43.0024C30.8424 42.9948 32.0512 43.0024 33.2575 43.0024C36.1305 43.0024 39.0035 43.0024 41.8765 43.0024V42.9998Z" fill="#FFDE00"/>
<path d="M42.7701 52.0145C39.1238 52.0145 35.48 52.0145 31.8337 52.0145C31.6259 52.0145 31.4132 52.027 31.2105 51.9995C30.745 51.9344 30.4547 51.654 30.3821 51.1933C30.3071 50.7126 30.4797 50.3195 30.9452 50.1267C31.1504 50.0416 31.3882 50.0116 31.6109 50.0116C39.0487 50.0066 46.484 50.0066 53.9218 50.0116C54.1646 50.0116 54.4299 50.0391 54.6476 50.1393C55.0655 50.3295 55.2757 50.7001 55.2007 51.1582C55.1231 51.6314 54.8378 51.9494 54.3323 52.002C54.127 52.0245 53.9168 52.0145 53.7091 52.0145C50.0628 52.0145 46.419 52.0145 42.7726 52.0145H42.7701Z" fill="#FFDE00"/>
<path d="M22.9965 28.9738C25.7644 28.9738 28.5298 28.9788 31.2977 28.9688C31.7632 28.9688 32.1686 29.0439 32.4164 29.4845C32.7067 30.0028 32.4814 30.6737 31.9083 30.874C31.6431 30.9667 31.3377 30.9792 31.0525 30.9817C25.6843 30.9867 20.3187 30.9867 14.9506 30.9867C14.8054 30.9867 14.6578 30.9942 14.5151 30.9817C13.8369 30.9266 13.4465 30.5185 13.474 29.9076C13.499 29.3318 13.8945 28.9813 14.5727 28.9788C16.7349 28.9713 18.8997 28.9763 21.062 28.9738C21.7077 28.9738 22.3508 28.9738 22.9965 28.9738Z" fill="#FFDE00"/>
<path d="M52.6501 34.9299C51.594 34.0386 50.5929 33.1973 49.5944 32.3511C49.4667 32.2435 49.3341 32.1433 49.2165 32.0256C48.791 31.595 48.756 31.0517 49.1164 30.6286C49.4692 30.2155 50.0048 30.1129 50.4528 30.4784C51.9494 31.7002 53.4309 32.9445 54.8899 34.2138C55.3779 34.6369 55.3529 35.2603 54.8524 35.691C53.4209 36.9278 51.9744 38.147 50.5103 39.3463C50.0273 39.7418 49.4943 39.6617 49.1189 39.2311C48.741 38.7955 48.771 38.2246 49.2615 37.7965C50.3602 36.8426 51.4789 35.9138 52.6476 34.9274L52.6501 34.9299Z" fill="#FFDE00"/>
<path d="M39.2243 34.935C40.2429 35.7913 41.1964 36.5949 42.1499 37.3986C42.245 37.4787 42.3426 37.5563 42.4377 37.639C43.0684 38.1872 43.176 38.7581 42.743 39.2438C42.3151 39.727 41.7745 39.7145 41.1513 39.1912C40.0202 38.2423 38.894 37.2884 37.7678 36.3346C37.5301 36.1343 37.2798 35.944 37.0546 35.7287C36.5265 35.2305 36.4965 34.6271 37.0345 34.1589C38.4485 32.9346 39.88 31.7304 41.324 30.5386C41.8321 30.118 42.3851 30.1856 42.763 30.6363C43.1359 31.0794 43.0984 31.6402 42.6029 32.0709C41.5067 33.0248 40.3856 33.9511 39.2268 34.93L39.2243 34.935Z" fill="#FFDE00"/>
<path d="M43.6248 39.674C43.9402 38.4973 44.2805 37.2129 44.6259 35.9311C45.1639 33.9282 45.6995 31.9228 46.2426 29.9199C46.4478 29.1638 46.9158 28.8408 47.5389 29.001C48.1095 29.1487 48.3698 29.702 48.1821 30.4081C47.3312 33.5952 46.4778 36.7823 45.6219 39.9669C45.4342 40.668 45.0213 40.9659 44.4207 40.8682C43.9076 40.7856 43.5823 40.3425 43.6248 39.669V39.674Z" fill="#FFDE00"/>
<path d="M26.7507 35.9877C28.2898 35.9877 29.8264 35.9827 31.3655 35.9877C32.1188 35.9902 32.5292 36.3532 32.5292 36.9817C32.5292 37.6076 32.1063 37.9881 31.368 37.9906C28.2923 37.9956 25.2141 37.9956 22.1383 37.9906C21.4001 37.9906 20.9771 37.6076 20.9746 36.9842C20.9746 36.3507 21.38 35.9927 22.1358 35.9877C23.6749 35.9802 25.2116 35.9877 26.7507 35.9877Z" fill="#FFDE00"/>
<path d="M20.9961 20.2567C21.0136 20.9627 20.4055 21.5861 19.6998 21.5836C19.0215 21.5836 18.4209 20.9953 18.4009 20.3143C18.3809 19.6408 18.9565 19.0274 19.6397 18.9974C20.3504 18.9648 20.9786 19.5482 20.9961 20.2567Z" fill="#FFDE00"/>
<path d="M13.4732 20.3006C13.4657 19.5595 14.0288 18.9887 14.7596 18.9962C15.4678 19.0037 16.0109 19.5495 16.0184 20.2655C16.0259 20.9916 15.4403 21.5899 14.732 21.5824C14.0438 21.5749 13.4782 20.9991 13.4707 20.3031L13.4732 20.3006Z" fill="#FFDE00"/>
<path d="M24.6715 18.9962C25.3947 19.0037 25.9703 19.6071 25.9453 20.3306C25.9203 21.0191 25.3221 21.5924 24.6414 21.5824C23.9282 21.5724 23.3551 20.964 23.3776 20.238C23.4001 19.5445 23.9807 18.9887 24.674 18.9962H24.6715Z" fill="#FFDE00"/>
<path d="M13.0088 6.49861C12.3081 6.4861 11.755 5.92528 11.75 5.22427C11.7475 4.49821 12.3331 3.91737 13.0589 3.92989C13.7471 3.9424 14.3252 4.52825 14.3277 5.21175C14.3277 5.92779 13.7346 6.50863 13.0088 6.49611V6.49861Z" fill="#FFDE00"/>
<path d="M8.09775 6.49989C7.382 6.5074 6.77136 5.90653 6.78137 5.20551C6.79138 4.52452 7.3795 3.94118 8.06772 3.93366C8.79098 3.92615 9.3841 4.51701 9.37409 5.23555C9.36658 5.92405 8.79098 6.49488 8.09775 6.49989Z" fill="#FFDE00"/>
<path d="M19.2631 5.21205C19.2681 5.95313 18.7075 6.51144 17.9667 6.50142C17.256 6.49141 16.7179 5.94812 16.7129 5.23458C16.7079 4.50102 17.2835 3.92518 18.0093 3.9377C18.7175 3.95022 19.2606 4.50352 19.2631 5.21205Z" fill="#FFDE00"/>
<path d="M14.2358 42.3205C17.9272 42.348 20.8928 45.3424 20.8753 49.0227C20.8578 52.7106 17.8221 55.6673 14.0882 55.6323C10.4944 55.5997 7.51878 52.5729 7.53129 48.9701C7.54631 45.2973 10.5745 42.2954 14.2333 42.3205H14.2358ZM14.1958 44.3359C11.6281 44.3459 9.55341 46.4139 9.5484 48.9751C9.5409 51.5414 11.6631 53.6394 14.2533 53.6269C16.796 53.6144 18.8882 51.4963 18.8707 48.9501C18.8532 46.3939 16.761 44.3284 14.1958 44.3359Z" fill="#FFDE00"/>
</g>
<defs>
<clipPath id="clip0_2893_266">
<rect width="62" height="62" fill="white"/>
</clipPath>
</defs>
</svg>
