<svg width="59" height="63" viewBox="0 0 59 63" fill="none" xmlns="http://www.w3.org/2000/svg">
<g clip-path="url(#clip0_2893_211)">
<path d="M42.6011 6.03505C43.152 6.03505 43.6484 6.07185 44.137 6.02979C46.8475 5.79322 48.625 7.78563 48.5991 10.5482C48.5159 19.9503 48.5679 29.3551 48.5679 38.7573V39.3776C50.0076 39.8902 51.4291 40.2293 52.6921 40.8811C56.9983 43.097 59.5633 47.6968 58.8954 52.7173C58.1937 58.0032 54.4073 61.9092 49.3267 62.8291C44.3397 63.7334 39.1213 60.9944 36.9669 56.3078C36.7512 55.8373 36.5147 55.6796 36.0054 55.6796C27.4216 55.698 18.8379 55.6849 10.2515 55.698C9.06128 55.698 7.98019 55.4798 7.09921 54.6046C6.29878 53.8055 5.94535 52.8329 5.95315 51.7106C5.95834 51.0587 5.95315 50.4068 5.95315 49.6735C5.27486 49.6735 4.67455 49.6787 4.07423 49.6735C1.53263 49.6498 0.00454786 48.1069 0.00194908 45.5336C-0.000649694 31.7366 -0.000649694 17.9369 0.00194908 4.13727C0.00454786 1.5771 1.56121 0 4.07683 0C15.5582 0 27.0396 0 38.5236 0C41.021 0 42.5959 1.61127 42.5985 4.15041C42.5985 4.75759 42.5985 5.36478 42.5985 6.03505H42.6011ZM36.0132 53.7897C35.9482 52.9775 35.8469 52.2415 35.8417 51.5029C35.8365 50.7643 35.8832 50.0152 35.9846 49.2845C36.6733 44.4191 41.0574 40.1373 45.8729 39.6562C46.4837 39.5958 46.6552 39.4328 46.6526 38.8099C46.6318 29.2973 46.6396 19.7821 46.637 10.2696C46.637 8.63201 45.9847 7.97488 44.3527 7.97488C32.957 7.97488 21.5588 7.97488 10.1632 7.97488C8.51034 7.97488 7.83466 8.65567 7.83466 10.3169C7.83466 24.0088 7.83466 37.698 7.83466 51.3899C7.83466 53.0721 8.54153 53.7897 10.1969 53.7897C18.565 53.7897 26.9357 53.7897 35.3037 53.7897H36.0132ZM40.6728 6.03505C40.6728 5.18341 40.7014 4.43954 40.665 3.69831C40.6182 2.71787 39.8802 2.01081 38.8978 1.95561C38.6613 1.94246 38.4222 1.94509 38.1832 1.94509C28.8406 1.94509 19.498 1.94509 10.158 1.94509C8.03996 1.94509 5.91936 1.93458 3.80136 1.95298C2.75405 1.96086 2.06018 2.60485 1.90685 3.64836C1.87567 3.8639 1.87827 4.0847 1.87827 4.30286C1.87827 17.9947 1.87827 31.684 1.87827 45.3759C1.87827 45.6361 1.88606 45.9016 1.93284 46.1592C2.09656 47.0345 2.73586 47.6732 3.60385 47.7363C4.3523 47.7915 5.10854 47.7468 5.95055 47.7468C5.95055 47.4051 5.95055 47.1054 5.95055 46.8058C5.95055 34.6253 5.95055 22.4422 5.95055 10.2617C5.95055 7.57009 7.47863 6.03505 10.132 6.03505C20.0359 6.03505 29.9398 6.03505 39.8438 6.03505C40.0985 6.03505 40.3531 6.03505 40.6702 6.03505H40.6728ZM47.3828 61.0444C52.7103 61.0733 57.0919 56.6732 57.1074 51.2821C57.123 46.0067 52.7623 41.5015 47.6115 41.4673C42.1489 41.4331 37.7102 45.7807 37.6998 51.1796C37.6894 56.6443 41.98 61.0155 47.3828 61.0444Z" fill="#FFDE00"/>
<path d="M27.2635 12.2004C31.3046 12.2004 35.3483 12.1978 39.3894 12.2004C41.9284 12.2004 43.4981 13.7959 43.4929 16.3823C43.4929 17.0789 43.4981 17.7886 43.3811 18.4694C43.0797 20.2068 41.5594 21.5158 39.8234 21.5184C31.4372 21.5316 23.0509 21.5342 14.6621 21.5184C12.7338 21.5132 11.1303 19.8861 11.0524 17.9358C11.0238 17.2603 11.0264 16.5795 11.0472 15.9039C11.1147 13.8038 12.7234 12.2135 14.8154 12.2083C18.9656 12.1951 23.1159 12.2056 27.2661 12.203L27.2635 12.2004ZM27.2921 14.1297C23.7474 14.1297 20.2027 14.1297 16.6605 14.1297C15.9901 14.1297 15.3196 14.1139 14.6517 14.156C13.7837 14.2112 13.1444 14.7711 12.9937 15.6358C12.9079 16.1247 12.9157 16.6347 12.9131 17.1367C12.9053 18.932 13.5628 19.6023 15.317 19.6023C23.2692 19.6023 31.2215 19.6023 39.1763 19.6023C39.392 19.6023 39.6103 19.6049 39.8234 19.5891C40.8265 19.5076 41.5334 18.7585 41.5672 17.7439C41.5802 17.3286 41.5724 16.9133 41.5724 16.498C41.5724 14.7763 40.9357 14.135 39.2257 14.1323C35.2496 14.1323 31.2734 14.1323 27.2973 14.1323L27.2921 14.1297Z" fill="#FFDE00"/>
<path d="M29.6832 41.4668C26.7024 41.4668 23.719 41.4668 20.7382 41.4615C20.4835 41.4615 20.1613 41.4825 19.9923 41.3432C19.7351 41.1277 19.4336 40.7807 19.4336 40.4916C19.4336 40.1998 19.7299 39.8371 19.9975 39.6452C20.2132 39.4928 20.5771 39.5191 20.8733 39.5191C26.7725 39.5138 32.6718 39.5138 38.571 39.5138C38.7659 39.5138 38.9634 39.5033 39.1531 39.5296C39.7222 39.6137 40.0627 40.0185 40.0185 40.5599C39.9743 41.1356 39.6131 41.4195 39.0803 41.451C38.4982 41.4852 37.9135 41.4615 37.3314 41.4615C34.782 41.4615 32.2326 41.4615 29.6806 41.4615L29.6832 41.4668Z" fill="#FFDE00"/>
<path d="M20.9056 34.519C17.9898 34.519 15.074 34.5137 12.1582 34.5242C11.6774 34.5242 11.3006 34.3876 11.1031 33.9328C10.8588 33.3651 11.1992 32.7553 11.8151 32.6449C12.0464 32.6028 12.2881 32.6107 12.5246 32.6107C18.1198 32.6107 23.7149 32.6107 29.3075 32.6107C29.4582 32.6107 29.6115 32.6054 29.7623 32.6159C30.4302 32.6606 30.8226 33.047 30.7888 33.6253C30.7602 34.1615 30.3522 34.5164 29.7181 34.519C27.9249 34.5269 26.1318 34.5216 24.3386 34.5216C23.1926 34.5216 22.0491 34.5216 20.903 34.5216L20.9056 34.519Z" fill="#FFDE00"/>
<path d="M33.5164 27.5978C30.598 27.5978 27.6796 27.6136 24.7611 27.5768C24.3999 27.5715 23.9399 27.3902 23.706 27.1273C23.2772 26.6437 23.6463 25.8446 24.2934 25.7237C24.5039 25.6843 24.7248 25.6974 24.9405 25.6974C30.6474 25.6974 36.3569 25.6974 42.0638 25.6974C42.1729 25.6974 42.2795 25.6974 42.3886 25.6974C43.0539 25.7184 43.4853 26.0864 43.4931 26.6358C43.4983 27.1851 43.0643 27.5847 42.4068 27.5899C40.8294 27.6005 39.2493 27.5952 37.6719 27.5952C36.2893 27.5952 34.9042 27.5952 33.5216 27.5952L33.5164 27.5978Z" fill="#FFDE00"/>
<path d="M17.5549 46.4582C19.3507 46.4582 21.1438 46.4556 22.9396 46.4582C23.701 46.4582 24.1558 46.8393 24.1402 47.4386C24.1246 48.0038 23.6724 48.3875 22.9604 48.3875C19.3714 48.3954 15.7799 48.3954 12.191 48.3875C11.4478 48.3875 11.0502 48.0327 11.045 47.4281C11.0398 46.8025 11.453 46.4582 12.2352 46.4582C14.0076 46.4556 15.7825 46.4582 17.5549 46.4582Z" fill="#FFDE00"/>
<path d="M38.7056 34.5196C37.4738 34.5196 36.2419 34.5249 35.0101 34.5196C34.35 34.5144 33.9186 34.1333 33.916 33.5786C33.9134 33.024 34.3318 32.6245 35.0023 32.6192C37.466 32.6061 39.9296 32.6061 42.3932 32.6192C43.0559 32.6219 43.4899 33.0267 43.4899 33.5708C43.4899 34.1438 43.0455 34.5196 42.3361 34.5223C41.125 34.5275 39.9166 34.5223 38.7056 34.5223V34.5196Z" fill="#FFDE00"/>
<path d="M15.5395 25.6949C16.6388 25.6949 17.7381 25.6897 18.8373 25.6949C19.552 25.7002 19.9912 26.0734 19.9912 26.6412C19.9912 27.2089 19.5468 27.5848 18.8347 27.5874C16.6128 27.5953 14.3934 27.5953 12.1715 27.5874C11.4074 27.5848 11.041 27.2615 11.041 26.6412C11.041 26.0182 11.4074 25.7028 12.1715 25.6949C13.2916 25.687 14.4142 25.6949 15.5343 25.6949H15.5395Z" fill="#FFDE00"/>
<path d="M30.9057 48.391C29.9337 48.391 28.9592 48.3988 27.9873 48.391C27.231 48.3831 26.771 47.994 26.7814 47.4026C26.7944 46.8086 27.244 46.459 28.0158 46.459C29.9389 46.4564 31.8646 46.4564 33.7877 46.459C34.5648 46.459 34.9806 46.8086 34.9754 47.4342C34.9702 48.0282 34.5622 48.3804 33.8241 48.391C32.8522 48.4041 31.8776 48.3936 30.9057 48.3936V48.391Z" fill="#FFDE00"/>
<path d="M13.5068 41.466C13.0104 41.466 12.5167 41.4844 12.0203 41.4608C11.4356 41.4345 11.064 41.0665 11.0458 40.5408C11.025 39.9809 11.3862 39.5499 11.9969 39.5315C13.0286 39.4999 14.063 39.4999 15.0973 39.5315C15.6716 39.5499 16.0458 39.9678 16.051 40.483C16.0562 41.0323 15.6664 41.4187 15.0583 41.466C15.0167 41.4687 14.9725 41.466 14.9283 41.466C14.4554 41.466 13.9798 41.466 13.5068 41.466Z" fill="#FFDE00"/>
<path d="M50.316 58.0503C49.8144 57.7795 49.2817 57.5587 48.8191 57.2328C47.3976 56.2287 47.4184 56.2261 45.976 57.2381C45.5784 57.5167 45.1236 57.8032 44.6611 57.8768C43.1876 58.1081 42.1065 56.7676 42.5171 55.2798C42.6678 54.7331 42.8315 54.189 43.042 53.6659C43.2006 53.2716 43.133 53.0272 42.777 52.7959C42.2884 52.4778 41.818 52.1204 41.3632 51.755C40.6252 51.161 40.3861 50.3251 40.6823 49.4761C40.9604 48.677 41.6725 48.175 42.582 48.1592C43.1668 48.1487 43.7515 48.1356 44.3336 48.1618C44.7026 48.1802 44.869 48.0462 44.9651 47.6834C45.121 47.0947 45.3212 46.5164 45.5343 45.946C45.8643 45.0602 46.514 44.6055 47.4028 44.6055C48.289 44.6055 48.949 45.0655 49.2739 45.946C49.4922 46.5374 49.6429 47.1577 49.882 47.7386C49.9574 47.92 50.2198 48.1172 50.4096 48.1329C51.0333 48.1829 51.6622 48.1434 52.2885 48.1592C53.1461 48.1802 53.8503 48.6981 54.1206 49.4761C54.4065 50.2988 54.1804 51.1504 53.4891 51.7156C53.0525 52.0731 52.6133 52.4358 52.1273 52.717C51.644 52.9983 51.605 53.3163 51.7999 53.7947C51.9974 54.2757 52.1507 54.7804 52.2859 55.2851C52.6601 56.665 51.7453 57.9215 50.3134 58.0503H50.316ZM52.2729 50.2462C52.2651 50.1858 52.2547 50.1253 52.2469 50.0649C51.566 50.0649 50.8877 50.0675 50.2069 50.0649C49.3389 50.0596 48.6398 49.7389 48.2682 48.9031C48.0837 48.4878 47.9615 48.0436 47.8108 47.6125C47.6886 47.2655 47.5665 46.9186 47.3872 46.4034C47.1819 47.0132 47.0363 47.4232 46.9038 47.8359C46.2541 49.8493 45.9527 50.0675 43.8373 50.0701C43.4059 50.0701 42.9719 50.0701 42.5405 50.0701C42.9771 50.5722 43.4292 50.9034 43.8788 51.2372C45.121 52.1598 45.3134 52.7722 44.8352 54.2731C44.6663 54.8067 44.5129 55.3482 44.3518 55.887C44.9755 55.6031 45.4641 55.2509 45.9527 54.8961C47.0545 54.097 47.7484 54.0944 48.8451 54.8829C49.3467 55.243 49.8456 55.6084 50.3446 55.9738C50.2484 55.2062 50.0327 54.5307 49.8326 53.8526C49.5416 52.8669 49.7884 52.0915 50.5941 51.4816C51.1476 51.0637 51.7115 50.6589 52.2703 50.2489L52.2729 50.2462Z" fill="#FFDE00"/>
</g>
<defs>
<clipPath id="clip0_2893_211">
<rect width="59" height="63" fill="white"/>
</clipPath>
</defs>
</svg>
