<svg width="60" height="60" viewBox="0 0 60 60" fill="none" xmlns="http://www.w3.org/2000/svg">
  <path
    d="M4.26416 29.9972C4.26416 40.184 10.1842 48.9875 18.7687 53.1592L6.49231 19.5234C5.06434 22.7241 4.26416 26.2662 4.26416 29.9972Z"
    fill="currentColor" />
  <path
    d="M47.3742 28.7019C47.3742 25.5212 46.2317 23.3185 45.2518 21.6041C43.9472 19.4842 42.7244 17.6889 42.7244 15.569C42.7244 13.2032 44.5187 11.001 47.0461 11.001C47.1602 11.001 47.2684 11.0152 47.3796 11.0216C42.8008 6.82678 36.7006 4.26562 30.0005 4.26562C21.0095 4.26562 13.0993 8.87864 8.49756 15.8657C9.10136 15.8839 9.6704 15.8966 10.1537 15.8966C12.8456 15.8966 17.0125 15.57 17.0125 15.57C18.3999 15.4882 18.5634 17.5258 17.1776 17.6899C17.1776 17.6899 15.7834 17.8539 14.232 17.9352L23.6039 45.8116L29.236 28.9203L25.2263 17.9342C23.8405 17.853 22.5276 17.6889 22.5276 17.6889C21.1407 17.6076 21.3033 15.4872 22.6902 15.569C22.6902 15.569 26.9403 15.8956 29.4691 15.8956C32.1605 15.8956 36.3279 15.569 36.3279 15.569C37.7162 15.4872 37.8793 17.5248 36.493 17.6889C36.493 17.6889 35.0958 17.853 33.5474 17.9342L42.8478 45.5996L45.4149 37.0214C46.5275 33.4618 47.3742 30.905 47.3742 28.7019Z"
    fill="currentColor" />
  <path
    d="M30.4516 32.25L22.73 54.6877C25.0355 55.3655 27.4737 55.7362 30.0001 55.7362C32.9971 55.7362 35.8712 55.2181 38.5464 54.2774C38.4774 54.1672 38.4147 54.0501 38.3633 53.9228L30.4516 32.25Z"
    fill="currentColor" />
  <path
    d="M52.5827 17.6523C52.6934 18.4721 52.7561 19.3521 52.7561 20.2987C52.7561 22.9103 52.2683 25.8461 50.7992 29.5169L42.938 52.2455C50.5891 47.7838 55.7354 39.4946 55.7354 30.0002C55.7359 25.5258 54.5929 21.3183 52.5827 17.6523Z"
    fill="currentColor" />
  <path
    d="M30.0002 0C13.4585 0 0 13.4576 0 29.9993C0 46.5429 13.4585 60 30.0002 60C46.5415 60 60.002 46.5429 60.002 29.9993C60.0015 13.4576 46.5415 0 30.0002 0ZM30.0002 58.6249C14.2171 58.6249 1.37558 45.7834 1.37558 29.9993C1.37558 14.2161 14.2166 1.37558 30.0002 1.37558C45.7829 1.37558 58.6234 14.2161 58.6234 29.9993C58.6234 45.7834 45.7829 58.6249 30.0002 58.6249Z"
    fill="currentColor" />
</svg>
  