<svg

	viewBox="0 0 24 24"
	fill="none"
	xmlns="http://www.w3.org/2000/svg"
>
	<path
		d="M1.40039 21.5999C1.40033 22.1522 1.84799 22.6 2.40028 22.6C2.95256 22.6001 3.40033 22.1524 3.40039 21.6001L1.40039 21.5999ZM2.4008 17.9996L3.4008 17.9997L2.4008 17.9996ZM12.6004 15.4C13.1527 15.4 13.6004 14.9523 13.6004 14.4C13.6004 13.8477 13.1527 13.4 12.6004 13.4V15.4ZM21.6004 16.6C22.1527 16.6 22.6004 16.1523 22.6004 15.6C22.6004 15.0477 22.1527 14.6 21.6004 14.6V16.6ZM16.2004 14.6C15.6481 14.6 15.2004 15.0477 15.2004 15.6C15.2004 16.1523 15.6481 16.6 16.2004 16.6V14.6ZM17.9004 18.2999C17.9004 18.8522 18.3481 19.2999 18.9004 19.2999C19.4527 19.2999 19.9004 18.8522 19.9004 18.2999H17.9004ZM19.9004 12.8999C19.9004 12.3476 19.4527 11.8999 18.9004 11.8999C18.3481 11.8999 17.9004 12.3476 17.9004 12.8999H19.9004ZM17.8893 1.52772C17.4076 1.25767 16.7981 1.4293 16.5281 1.91107C16.258 2.39283 16.4297 3.00229 16.9114 3.27233L17.8893 1.52772ZM16.9114 8.72772C16.4297 8.99776 16.258 9.60722 16.5281 10.089C16.7981 10.5707 17.4076 10.7424 17.8893 10.4723L16.9114 8.72772ZM13.4004 6.00002C13.4004 7.43596 12.2363 8.60002 10.8004 8.60002V10.6C13.3409 10.6 15.4004 8.54053 15.4004 6.00002H13.4004ZM10.8004 8.60002C9.36445 8.60002 8.20039 7.43596 8.20039 6.00002H6.20039C6.20039 8.54053 8.25988 10.6 10.8004 10.6V8.60002ZM8.20039 6.00002C8.20039 4.56408 9.36445 3.40002 10.8004 3.40002V1.40002C8.25988 1.40002 6.20039 3.45951 6.20039 6.00002H8.20039ZM10.8004 3.40002C12.2363 3.40002 13.4004 4.56408 13.4004 6.00002H15.4004C15.4004 3.45951 13.3409 1.40002 10.8004 1.40002V3.40002ZM3.40039 21.6001L3.4008 17.9997L1.4008 17.9995L1.40039 21.5999L3.40039 21.6001ZM6.00079 13.4C3.46049 13.4 1.40108 15.4592 1.4008 17.9995L3.4008 17.9997C3.40096 16.5639 4.56497 15.4 6.00079 15.4V13.4ZM6.00079 15.4H12.6004V13.4H6.00079V15.4ZM21.6004 14.6H18.9004V16.6H21.6004V14.6ZM18.9004 14.6H16.2004V16.6H18.9004V14.6ZM19.9004 18.2999V15.6H17.9004V18.2999H19.9004ZM19.9004 15.6V12.8999H17.9004V15.6H19.9004ZM16.9114 3.27233C18.1491 3.96606 18.8004 4.98568 18.8004 6.00002H20.8004C20.8004 4.06412 19.5642 2.46654 17.8893 1.52772L16.9114 3.27233ZM18.8004 6.00002C18.8004 7.01437 18.1491 8.03399 16.9114 8.72772L17.8893 10.4723C19.5642 9.53351 20.8004 7.93592 20.8004 6.00002H18.8004Z"
		fill="currentColor"
	/>
</svg>