
    <svg
      xmlns="http://www.w3.org/2000/svg"
      width="14"
      height="14"
      viewBox="0 0 14 14"
      fill="none"
     
    >
      <path
        d="M7.00824 9.56881L3.08139 5.64477C3.01483 5.57826 2.93718 5.545 2.84844 5.545C2.7597 5.545 2.68205 5.57826 2.61549 5.64477L2.11632 6.14359C2.04976 6.21009 2.01648 6.28215 2.01648 6.35974C2.01648 6.43733 2.04976 6.50939 2.11632 6.5759L6.77529 11.2315C6.84185 11.298 6.9195 11.3313 7.00824 11.3313C7.09698 11.3313 7.17463 11.298 7.24119 11.2315L11.9002 6.57589C11.9667 6.50939 12 6.43733 12 6.35974C12 6.28215 11.9667 6.21009 11.9002 6.14359L11.401 5.64477C11.3344 5.57826 11.2568 5.545 11.168 5.545C11.0793 5.545 11.0016 5.57826 10.9351 5.64477L7.00824 9.56881Z"
        fill="currentColor"
      />
    </svg>
