<svg width="55" height="66" viewBox="0 0 55 66" fill="none" xmlns="http://www.w3.org/2000/svg">
<g clip-path="url(#clip0_2893_159)">
<path d="M43.313 33.1824C35.4815 34.5795 28.9394 28.727 28.7138 21.5928C28.5908 17.7014 30.0417 14.4227 33 11.8771C35.9634 9.32899 39.437 8.52661 43.254 9.13416C43.5437 7.71911 43.0336 7.05773 41.6954 7.05773C38.773 7.05773 35.8506 7.05773 32.9257 7.05773C32.7155 7.05773 32.5078 7.05773 32.213 7.05773C32.213 7.56017 32.2233 8.0011 32.213 8.44202C32.1746 9.95192 31.2594 10.8671 29.752 10.8697C25.0147 10.8799 20.2799 10.8773 15.5425 10.8697C14.0044 10.8671 13.0713 9.92372 13.0662 8.39844C13.0611 6.99107 13.0585 5.58115 13.0662 4.17378C13.0739 1.75896 14.8171 0.00808709 17.2165 0.00296008C20.8003 -0.00216693 24.3841 0.000396575 27.9704 0.00296008C30.3955 0.00296008 32.0695 1.5949 32.2028 4.0251C32.2207 4.36348 32.2053 4.70443 32.2053 5.12741C32.4822 5.12741 32.7103 5.12741 32.9385 5.12741C35.9045 5.12741 38.8704 5.12741 41.8364 5.12741C43.9462 5.12741 45.31 6.43992 45.2664 8.55481C45.2484 9.40846 45.433 9.90322 46.2918 10.2134C47.0173 10.4749 47.6581 10.9748 48.4451 11.4311C48.7886 11.0542 49.1424 10.6236 49.5372 10.239C50.9112 8.90858 52.8313 8.90601 54.1053 10.2134C55.3435 11.4849 55.2999 13.4075 53.9746 14.738C50.2088 18.5166 46.4379 22.2875 42.6593 26.0507C41.2647 27.4402 39.3934 27.4299 37.9963 26.0405C36.271 24.3281 34.5509 22.6079 32.8359 20.8827C31.4773 19.5164 31.4234 17.604 32.6924 16.3094C33.969 15.0072 35.9224 15.0456 37.3169 16.4145C38.2911 17.3707 39.2524 18.3397 40.2214 19.301C40.247 19.3267 40.2983 19.3292 40.2829 19.3241C42.467 17.1374 44.6332 14.9687 46.8352 12.7615C45.6253 11.854 44.2051 11.2567 42.6567 11.0209C36.9427 10.1493 31.9541 13.6536 30.8133 19.3087C29.7264 24.6895 33.5076 30.2574 38.9063 31.2341C44.6332 32.2698 49.7833 28.8373 51.0061 23.1617C51.1035 22.7054 51.1547 22.2362 51.1932 21.7697C51.2624 20.9596 51.5982 20.5674 52.2314 20.5982C52.8518 20.6315 53.1825 21.0673 53.121 21.8876C52.8313 25.7252 51.1317 28.8014 48.0273 31.0752C47.3787 31.5495 46.6584 31.9494 45.9226 32.2698C45.3997 32.4979 45.2715 32.7799 45.2766 33.3183C45.2997 37.7993 45.2894 42.2777 45.2894 46.7587C45.2894 51.8575 45.292 56.9563 45.2894 62.0552C45.2894 63.865 44.3461 65.1237 42.7311 65.4749C42.4645 65.5338 42.1799 65.5364 41.9056 65.5364C29.0625 65.539 16.2167 65.539 3.37357 65.5364C1.33815 65.5364 0.00769052 64.2085 0.00769052 62.1808C0 44.2875 0 26.3891 0 8.49072C0 6.46812 1.33815 5.1351 3.36845 5.12997C5.39618 5.12484 7.42135 5.12997 9.44908 5.12997C9.97973 5.12997 10.3643 5.37094 10.4822 5.89902C10.5898 6.36814 10.3976 6.75267 9.95922 6.95518C9.75926 7.04747 9.50548 7.0526 9.27476 7.0526C7.3547 7.06029 5.43463 7.0526 3.51457 7.05773C2.36099 7.05773 1.92263 7.49609 1.92263 8.63941C1.92263 26.4327 1.92263 44.2234 1.92263 62.0167C1.92263 63.201 2.35073 63.6215 3.55302 63.6215C16.268 63.6215 28.9856 63.6215 41.7005 63.6215C42.9131 63.6215 43.3386 63.2139 43.3386 62.0218C43.3412 52.5933 43.3386 43.1621 43.3386 33.7336C43.3386 33.5644 43.3207 33.3952 43.3104 33.1824H43.313ZM22.6178 8.92908C24.9429 8.92908 27.268 8.91883 29.5931 8.93678C30.0879 8.93934 30.275 8.77015 30.2673 8.2677C30.2442 6.88084 30.2776 5.49399 30.2519 4.10969C30.2263 2.76898 29.3624 1.93328 28.014 1.93072C24.4302 1.92303 20.8464 1.92303 17.2626 1.93072C15.8707 1.93328 14.9991 2.82025 14.9863 4.21993C14.976 5.49911 14.9837 6.78087 14.9863 8.06006C14.9863 8.92139 14.9939 8.93165 15.8322 8.93165C18.0932 8.93165 20.3542 8.93165 22.6152 8.93165L22.6178 8.92908ZM40.3162 25.2612C40.6982 25.0305 41.0853 24.8869 41.3519 24.6203C45.0869 20.9083 48.8091 17.181 52.5313 13.4588C52.6365 13.3537 52.7467 13.2486 52.8287 13.1281C53.1671 12.6385 53.103 11.9463 52.6928 11.5439C52.2468 11.1029 51.5726 11.067 51.065 11.467C50.8984 11.5977 50.7523 11.7566 50.6036 11.9079C47.5274 14.9815 44.4512 18.0577 41.375 21.1339C40.5059 22.003 40.1599 22.0055 39.3088 21.1544C38.1783 20.0239 37.0529 18.8857 35.9121 17.7655C35.3046 17.1682 34.6304 17.14 34.1023 17.6527C33.564 18.1756 33.5845 18.9011 34.192 19.5138C35.9045 21.239 37.6194 22.9591 39.3524 24.6639C39.5933 24.9023 39.9394 25.033 40.3137 25.2612H40.3162Z" fill="#FFDE00"/>
<path d="M12.0622 39.0248C12.0494 41.1654 10.3242 42.8829 8.19134 42.8803C6.03544 42.8803 4.30251 41.1218 4.32045 38.953C4.3384 36.8125 6.06876 35.0873 8.19647 35.0898C10.3498 35.0898 12.0776 36.8484 12.0648 39.0223L12.0622 39.0248ZM10.1294 38.9607C10.1191 37.8969 9.20905 37.0022 8.16058 37.0279C7.09416 37.0535 6.24564 37.9456 6.25846 39.0248C6.27128 40.1015 7.16338 40.9757 8.22467 40.9526C9.29109 40.9321 10.1396 40.0425 10.1294 38.9582V38.9607Z" fill="#FFDE00"/>
<path d="M12.0621 27.1768C12.0647 29.343 10.3138 31.1041 8.17071 31.0862C6.04044 31.0682 4.32801 29.3353 4.32032 27.1973C4.3152 25.0286 6.04813 23.2931 8.21429 23.3008C10.3497 23.3085 12.0595 25.0312 12.0621 27.1768ZM10.1292 27.1794C10.1292 26.1027 9.25251 25.2234 8.18865 25.226C7.11711 25.2286 6.25577 26.1053 6.25833 27.1896C6.25833 28.2638 7.14018 29.1507 8.19891 29.1482C9.25763 29.143 10.1344 28.2535 10.1318 27.182L10.1292 27.1794Z" fill="#FFDE00"/>
<path d="M12.0621 50.647C12.0698 52.8003 10.3753 54.5281 8.2425 54.5409C6.05327 54.5537 4.32803 52.8567 4.32034 50.6829C4.31265 48.5167 6.05839 46.7607 8.20661 46.7735C10.342 46.7863 12.057 48.5064 12.0647 50.647H12.0621ZM10.1267 50.6931C10.1369 49.6011 9.30123 48.7346 8.21943 48.7218C7.14276 48.7064 6.26604 49.5652 6.25578 50.6393C6.24553 51.7313 7.08636 52.6004 8.16303 52.6132C9.24739 52.626 10.1164 51.7749 10.1267 50.6931Z" fill="#FFDE00"/>
<path d="M22.3665 35.8092C24.9249 35.8092 27.4833 35.804 30.0442 35.8117C30.9287 35.8143 31.4824 36.5193 31.0594 37.1576C30.8646 37.4524 30.3852 37.6831 30.016 37.7139C29.0855 37.7908 28.1421 37.7395 27.2039 37.7395C23.151 37.7395 19.1006 37.7395 15.0477 37.7395C14.835 37.7395 14.6196 37.7523 14.4094 37.7241C13.8583 37.6498 13.4866 37.2422 13.4943 36.7449C13.5019 36.2091 13.8916 35.8194 14.4992 35.8143C16.2039 35.7989 17.9112 35.8066 19.6159 35.8066C20.5336 35.8066 21.4488 35.8066 22.3665 35.8066V35.8092Z" fill="#FFDE00"/>
<path d="M22.275 53.8783C19.8012 53.8783 17.3274 53.8809 14.8536 53.8732C14.5819 53.8732 14.2179 53.8911 14.0615 53.7348C13.8052 53.481 13.5155 53.0631 13.5591 52.7632C13.6026 52.4658 14.0154 52.189 14.3204 51.9762C14.4666 51.8737 14.7357 51.9377 14.9485 51.9377C19.8755 51.9377 24.8026 51.9377 29.7271 51.9377C30.7294 51.9377 31.1703 52.2249 31.1806 52.8786C31.1934 53.5399 30.6935 53.8783 29.6963 53.8783C27.2226 53.8783 24.7488 53.8783 22.275 53.8783Z" fill="#FFDE00"/>
<path d="M20.3587 24.128C22.1481 24.128 23.9374 24.128 25.7267 24.128C25.96 24.128 26.2599 24.0768 26.4112 24.1972C26.6983 24.428 27.0751 24.7612 27.0854 25.0611C27.0956 25.3636 26.7444 25.7225 26.4727 25.9712C26.3343 26.0994 26.0266 26.0609 25.7934 26.0609C22.1301 26.066 18.4669 26.066 14.8036 26.0609C14.5934 26.0609 14.3114 26.0968 14.1858 25.9814C13.9115 25.7302 13.586 25.42 13.5219 25.0868C13.4373 24.6459 13.7423 24.2767 14.2294 24.1742C14.455 24.128 14.6934 24.1255 14.9267 24.1229C16.7365 24.1203 18.5489 24.1229 20.3587 24.1229V24.128Z" fill="#FFDE00"/>
<path d="M20.3243 47.4827C22.2008 47.4827 24.0747 47.4827 25.9512 47.4827C26.6972 47.4827 27.1355 47.8416 27.1381 48.4287C27.1381 49.0209 26.6946 49.4028 25.964 49.4054C22.1931 49.4105 18.4196 49.4105 14.6487 49.4054C13.9335 49.4054 13.4772 48.9952 13.4926 48.4082C13.5079 47.8314 13.9258 47.4853 14.6359 47.4827C16.5329 47.4776 18.4299 47.4827 20.3269 47.4827H20.3243Z" fill="#FFDE00"/>
<path d="M20.3164 30.5172C18.3989 30.5172 16.4814 30.5249 14.5665 30.5121C13.9102 30.5069 13.5052 30.1275 13.4924 29.579C13.4821 29.0406 13.8974 28.6382 14.5306 28.5894C14.6998 28.5766 14.8715 28.5843 15.0407 28.5843C17.7042 28.5843 20.3651 28.5843 23.0286 28.5843C23.9028 28.5843 24.7744 28.5843 25.6485 28.5843C25.7972 28.5843 25.9484 28.5766 26.0946 28.5894C26.7406 28.6407 27.143 29.0227 27.1353 29.5764C27.1277 30.125 26.7201 30.5095 26.0664 30.5146C24.1489 30.5275 22.2314 30.5198 20.3164 30.5198V30.5172Z" fill="#FFDE00"/>
<path d="M18.3911 42.1936C17.1119 42.1936 15.8353 42.2115 14.5561 42.1859C13.9075 42.1731 13.4974 41.7681 13.4922 41.2272C13.4871 40.6863 13.8921 40.3017 14.5407 40.2479C14.7304 40.2325 14.9227 40.2402 15.1149 40.2402C17.2888 40.2402 19.4601 40.2402 21.6339 40.2402C21.7826 40.2402 21.9313 40.2376 22.08 40.2402C22.8747 40.2658 23.3156 40.6299 23.3002 41.2425C23.2848 41.8296 22.8567 42.1859 22.0979 42.1936C20.8623 42.2064 19.6267 42.1962 18.3911 42.1962V42.1936Z" fill="#FFDE00"/>
<path d="M9.34677 16.1374C8.347 16.1374 7.34467 16.1425 6.3449 16.1374C5.60661 16.1323 5.1862 15.7606 5.20158 15.1505C5.2144 14.5711 5.63225 14.2148 6.33209 14.2148C8.3752 14.2097 10.4183 14.2097 12.464 14.2148C13.1587 14.2148 13.5714 14.5865 13.5766 15.1684C13.5817 15.7503 13.1638 16.1297 12.4768 16.1348C11.4335 16.1451 10.3901 16.1348 9.34677 16.1374Z" fill="#FFDE00"/>
</g>
<defs>
<clipPath id="clip0_2893_159">
<rect width="55" height="65.5437" fill="white"/>
</clipPath>
</defs>
</svg>
