<svg width="42" height="46" viewBox="0 0 42 46" fill="none" xmlns="http://www.w3.org/2000/svg">
<g filter="url(#filter0_d_2946_506)">
<mask id="path-1-inside-1_2946_506" fill="white">
<path d="M23.8169 5.23933C22.0432 4.35252 19.9556 4.35252 18.182 5.23933L8.39941 10.1306V24.1796C8.39941 27.9806 12.8836 32.3052 20.9994 37.4306C29.1152 32.3052 33.5994 29.0306 33.5994 24.1796C33.5994 19.3286 33.5994 10.1306 33.5994 10.1306L23.8169 5.23933Z"/>
</mask>
<path d="M17.5065 18.8735C17.116 18.483 16.4828 18.483 16.0923 18.8735C15.7018 19.264 15.7018 19.8972 16.0923 20.2877L17.5065 18.8735ZM19.9494 22.7306L19.2423 23.4377C19.6328 23.8282 20.266 23.8282 20.6565 23.4377L19.9494 22.7306ZM26.9565 17.1377C27.347 16.7472 27.347 16.114 26.9565 15.7235C26.566 15.333 25.9328 15.333 25.5423 15.7235L26.9565 17.1377ZM16.0923 20.2877L19.2423 23.4377L20.6565 22.0235L17.5065 18.8735L16.0923 20.2877ZM20.6565 23.4377L26.9565 17.1377L25.5423 15.7235L19.2423 22.0235L20.6565 23.4377ZM8.39941 10.1306L7.50499 8.34175L6.39941 8.89454V10.1306H8.39941ZM20.9994 37.4306L19.9315 39.1216C20.5838 39.5336 21.415 39.5336 22.0673 39.1216L20.9994 37.4306ZM33.5994 10.1306H35.5994V8.89454L34.4938 8.34175L33.5994 10.1306ZM18.182 5.23933L17.2875 3.45047L18.182 5.23933ZM23.8169 5.23933L24.7113 3.45047L23.8169 5.23933ZM17.2875 3.45047L7.50499 8.34175L9.29384 11.9195L19.0764 7.02818L17.2875 3.45047ZM6.39941 10.1306V24.1796H10.3994V10.1306H6.39941ZM6.39941 24.1796C6.39941 26.8671 7.9654 29.3811 10.2219 31.7025C12.5192 34.0659 15.8229 36.5269 19.9315 39.1216L22.0673 35.7396C18.0601 33.2089 15.0638 30.9449 13.0901 28.9144C11.0755 26.8419 10.3994 25.2931 10.3994 24.1796H6.39941ZM22.0673 39.1216C26.0975 36.5764 29.4255 34.3721 31.7334 32.1397C34.0959 29.8544 35.5994 27.3377 35.5994 24.1796H31.5994C31.5994 25.8725 30.8608 27.4186 28.9523 29.2647C26.9891 31.1637 24.0171 33.1594 19.9315 35.7396L22.0673 39.1216ZM35.5994 24.1796C35.5994 24.1701 35.5994 24.1606 35.5994 24.1511C35.5994 24.1416 35.5994 24.1321 35.5994 24.1226C35.5994 24.113 35.5994 24.1035 35.5994 24.0939C35.5994 24.0843 35.5994 24.0747 35.5994 24.0651C35.5994 24.0555 35.5994 24.0459 35.5994 24.0363C35.5994 24.0266 35.5994 24.017 35.5994 24.0073C35.5994 23.9976 35.5994 23.9879 35.5994 23.9782C35.5994 23.9685 35.5994 23.9588 35.5994 23.9491C35.5994 23.9393 35.5994 23.9296 35.5994 23.9198C35.5994 23.9101 35.5994 23.9003 35.5994 23.8905C35.5994 23.8807 35.5994 23.8709 35.5994 23.8611C35.5994 23.8512 35.5994 23.8414 35.5994 23.8315C35.5994 23.8217 35.5994 23.8118 35.5994 23.8019C35.5994 23.792 35.5994 23.7821 35.5994 23.7722C35.5994 23.7623 35.5994 23.7523 35.5994 23.7424C35.5994 23.7324 35.5994 23.7225 35.5994 23.7125C35.5994 23.7025 35.5994 23.6925 35.5994 23.6825C35.5994 23.6725 35.5994 23.6625 35.5994 23.6524C35.5994 23.6424 35.5994 23.6324 35.5994 23.6223C35.5994 23.6122 35.5994 23.6021 35.5994 23.592C35.5994 23.5819 35.5994 23.5718 35.5994 23.5617C35.5994 23.5516 35.5994 23.5414 35.5994 23.5313C35.5994 23.5211 35.5994 23.511 35.5994 23.5008C35.5994 23.4906 35.5994 23.4804 35.5994 23.4702C35.5994 23.46 35.5994 23.4497 35.5994 23.4395C35.5994 23.4293 35.5994 23.419 35.5994 23.4087C35.5994 23.3985 35.5994 23.3882 35.5994 23.3779C35.5994 23.3676 35.5994 23.3573 35.5994 23.347C35.5994 23.3366 35.5994 23.3263 35.5994 23.3159C35.5994 23.3056 35.5994 23.2952 35.5994 23.2848C35.5994 23.2745 35.5994 23.2641 35.5994 23.2537C35.5994 23.2433 35.5994 23.2328 35.5994 23.2224C35.5994 23.212 35.5994 23.2015 35.5994 23.1911C35.5994 23.1806 35.5994 23.1701 35.5994 23.1597C35.5994 23.1492 35.5994 23.1387 35.5994 23.1282C35.5994 23.1176 35.5994 23.1071 35.5994 23.0966C35.5994 23.086 35.5994 23.0755 35.5994 23.0649C35.5994 23.0544 35.5994 23.0438 35.5994 23.0332C35.5994 23.0226 35.5994 23.012 35.5994 23.0014C35.5994 22.9908 35.5994 22.9802 35.5994 22.9695C35.5994 22.9589 35.5994 22.9482 35.5994 22.9376C35.5994 22.9269 35.5994 22.9162 35.5994 22.9055C35.5994 22.8948 35.5994 22.8841 35.5994 22.8734C35.5994 22.8627 35.5994 22.852 35.5994 22.8412C35.5994 22.8305 35.5994 22.8198 35.5994 22.809C35.5994 22.7982 35.5994 22.7875 35.5994 22.7767C35.5994 22.7659 35.5994 22.7551 35.5994 22.7443C35.5994 22.7335 35.5994 22.7226 35.5994 22.7118C35.5994 22.701 35.5994 22.6901 35.5994 22.6793C35.5994 22.6684 35.5994 22.6575 35.5994 22.6467C35.5994 22.6358 35.5994 22.6249 35.5994 22.614C35.5994 22.6031 35.5994 22.5922 35.5994 22.5812C35.5994 22.5703 35.5994 22.5594 35.5994 22.5484C35.5994 22.5375 35.5994 22.5265 35.5994 22.5155C35.5994 22.5046 35.5994 22.4936 35.5994 22.4826C35.5994 22.4716 35.5994 22.4606 35.5994 22.4496C35.5994 22.4386 35.5994 22.4275 35.5994 22.4165C35.5994 22.4055 35.5994 22.3944 35.5994 22.3834C35.5994 22.3723 35.5994 22.3612 35.5994 22.3502C35.5994 22.3391 35.5994 22.328 35.5994 22.3169C35.5994 22.3058 35.5994 22.2947 35.5994 22.2835C35.5994 22.2724 35.5994 22.2613 35.5994 22.2502C35.5994 22.239 35.5994 22.2279 35.5994 22.2167C35.5994 22.2055 35.5994 22.1944 35.5994 22.1832C35.5994 22.172 35.5994 22.1608 35.5994 22.1496C35.5994 22.1384 35.5994 22.1272 35.5994 22.1159C35.5994 22.1047 35.5994 22.0935 35.5994 22.0822C35.5994 22.071 35.5994 22.0597 35.5994 22.0485C35.5994 22.0372 35.5994 22.0259 35.5994 22.0147C35.5994 22.0034 35.5994 21.9921 35.5994 21.9808C35.5994 21.9695 35.5994 21.9582 35.5994 21.9469C35.5994 21.9355 35.5994 21.9242 35.5994 21.9129C35.5994 21.9015 35.5994 21.8902 35.5994 21.8788C35.5994 21.8675 35.5994 21.8561 35.5994 21.8447C35.5994 21.8333 35.5994 21.822 35.5994 21.8106C35.5994 21.7992 35.5994 21.7878 35.5994 21.7764C35.5994 21.7649 35.5994 21.7535 35.5994 21.7421C35.5994 21.7307 35.5994 21.7192 35.5994 21.7078C35.5994 21.6963 35.5994 21.6849 35.5994 21.6734C35.5994 21.6619 35.5994 21.6505 35.5994 21.639C35.5994 21.6275 35.5994 21.616 35.5994 21.6045C35.5994 21.593 35.5994 21.5815 35.5994 21.57C35.5994 21.5585 35.5994 21.547 35.5994 21.5354C35.5994 21.5239 35.5994 21.5123 35.5994 21.5008C35.5994 21.4893 35.5994 21.4777 35.5994 21.4661C35.5994 21.4546 35.5994 21.443 35.5994 21.4314C35.5994 21.4198 35.5994 21.4082 35.5994 21.3966C35.5994 21.3851 35.5994 21.3734 35.5994 21.3618C35.5994 21.3502 35.5994 21.3386 35.5994 21.327C35.5994 21.3154 35.5994 21.3037 35.5994 21.2921C35.5994 21.2804 35.5994 21.2688 35.5994 21.2571C35.5994 21.2455 35.5994 21.2338 35.5994 21.2221C35.5994 21.2105 35.5994 21.1988 35.5994 21.1871C35.5994 21.1754 35.5994 21.1637 35.5994 21.152C35.5994 21.1403 35.5994 21.1286 35.5994 21.1169C35.5994 21.1052 35.5994 21.0935 35.5994 21.0817C35.5994 21.07 35.5994 21.0583 35.5994 21.0465C35.5994 21.0348 35.5994 21.023 35.5994 21.0113C35.5994 20.9995 35.5994 20.9878 35.5994 20.976C35.5994 20.9642 35.5994 20.9524 35.5994 20.9407C35.5994 20.9289 35.5994 20.9171 35.5994 20.9053C35.5994 20.8935 35.5994 20.8817 35.5994 20.8699C35.5994 20.8581 35.5994 20.8463 35.5994 20.8345C35.5994 20.8226 35.5994 20.8108 35.5994 20.799C35.5994 20.7871 35.5994 20.7753 35.5994 20.7635C35.5994 20.7516 35.5994 20.7398 35.5994 20.7279C35.5994 20.7161 35.5994 20.7042 35.5994 20.6923C35.5994 20.6805 35.5994 20.6686 35.5994 20.6567C35.5994 20.6448 35.5994 20.6329 35.5994 20.621C35.5994 20.6092 35.5994 20.5973 35.5994 20.5854C35.5994 20.5735 35.5994 20.5616 35.5994 20.5496C35.5994 20.5377 35.5994 20.5258 35.5994 20.5139C35.5994 20.502 35.5994 20.49 35.5994 20.4781C35.5994 20.4662 35.5994 20.4542 35.5994 20.4423C35.5994 20.4303 35.5994 20.4184 35.5994 20.4064C35.5994 20.3945 35.5994 20.3825 35.5994 20.3706C35.5994 20.3586 35.5994 20.3466 35.5994 20.3347C35.5994 20.3227 35.5994 20.3107 35.5994 20.2987C35.5994 20.2867 35.5994 20.2748 35.5994 20.2628C35.5994 20.2508 35.5994 20.2388 35.5994 20.2268C35.5994 20.2148 35.5994 20.2028 35.5994 20.1908C35.5994 20.1787 35.5994 20.1667 35.5994 20.1547C35.5994 20.1427 35.5994 20.1307 35.5994 20.1186C35.5994 20.1066 35.5994 20.0946 35.5994 20.0825C35.5994 20.0705 35.5994 20.0585 35.5994 20.0464C35.5994 20.0344 35.5994 20.0223 35.5994 20.0103C35.5994 19.9982 35.5994 19.9862 35.5994 19.9741C35.5994 19.9621 35.5994 19.95 35.5994 19.9379C35.5994 19.9259 35.5994 19.9138 35.5994 19.9017C35.5994 19.8897 35.5994 19.8776 35.5994 19.8655C35.5994 19.8534 35.5994 19.8413 35.5994 19.8292C35.5994 19.8172 35.5994 19.8051 35.5994 19.793C35.5994 19.7809 35.5994 19.7688 35.5994 19.7567C35.5994 19.7446 35.5994 19.7325 35.5994 19.7204C35.5994 19.7083 35.5994 19.6961 35.5994 19.684C35.5994 19.6719 35.5994 19.6598 35.5994 19.6477C35.5994 19.6356 35.5994 19.6235 35.5994 19.6113C35.5994 19.5992 35.5994 19.5871 35.5994 19.5749C35.5994 19.5628 35.5994 19.5507 35.5994 19.5385C35.5994 19.5264 35.5994 19.5143 35.5994 19.5021C35.5994 19.49 35.5994 19.4779 35.5994 19.4657C35.5994 19.4536 35.5994 19.4414 35.5994 19.4293C35.5994 19.4171 35.5994 19.405 35.5994 19.3928C35.5994 19.3807 35.5994 19.3685 35.5994 19.3563C35.5994 19.3442 35.5994 19.332 35.5994 19.3199C35.5994 19.3077 35.5994 19.2955 35.5994 19.2834C35.5994 19.2712 35.5994 19.259 35.5994 19.2469C35.5994 19.2347 35.5994 19.2225 35.5994 19.2104C35.5994 19.1982 35.5994 19.186 35.5994 19.1738C35.5994 19.1617 35.5994 19.1495 35.5994 19.1373C35.5994 19.1251 35.5994 19.113 35.5994 19.1008C35.5994 19.0886 35.5994 19.0764 35.5994 19.0642C35.5994 19.052 35.5994 19.0399 35.5994 19.0277C35.5994 19.0155 35.5994 19.0033 35.5994 18.9911C35.5994 18.9789 35.5994 18.9667 35.5994 18.9545C35.5994 18.9423 35.5994 18.9302 35.5994 18.918C35.5994 18.9058 35.5994 18.8936 35.5994 18.8814C35.5994 18.8692 35.5994 18.857 35.5994 18.8448C35.5994 18.8326 35.5994 18.8204 35.5994 18.8082C35.5994 18.796 35.5994 18.7838 35.5994 18.7716C35.5994 18.7594 35.5994 18.7472 35.5994 18.735C35.5994 18.7228 35.5994 18.7106 35.5994 18.6984C35.5994 18.6862 35.5994 18.674 35.5994 18.6618C35.5994 18.6496 35.5994 18.6374 35.5994 18.6252C35.5994 18.613 35.5994 18.6008 35.5994 18.5886C35.5994 18.5764 35.5994 18.5642 35.5994 18.552C35.5994 18.5398 35.5994 18.5276 35.5994 18.5154C35.5994 18.5032 35.5994 18.491 35.5994 18.4788C35.5994 18.4666 35.5994 18.4545 35.5994 18.4423C35.5994 18.4301 35.5994 18.4179 35.5994 18.4057C35.5994 18.3935 35.5994 18.3813 35.5994 18.3691C35.5994 18.3569 35.5994 18.3447 35.5994 18.3325C35.5994 18.3203 35.5994 18.3081 35.5994 18.2959C35.5994 18.2837 35.5994 18.2715 35.5994 18.2593C35.5994 18.2472 35.5994 18.235 35.5994 18.2228C35.5994 18.2106 35.5994 18.1984 35.5994 18.1862C35.5994 18.174 35.5994 18.1618 35.5994 18.1497C35.5994 18.1375 35.5994 18.1253 35.5994 18.1131C35.5994 18.1009 35.5994 18.0888 35.5994 18.0766C35.5994 18.0644 35.5994 18.0522 35.5994 18.0401C35.5994 18.0279 35.5994 18.0157 35.5994 18.0035C35.5994 17.9914 35.5994 17.9792 35.5994 17.967C35.5994 17.9549 35.5994 17.9427 35.5994 17.9305C35.5994 17.9184 35.5994 17.9062 35.5994 17.894C35.5994 17.8819 35.5994 17.8697 35.5994 17.8576C35.5994 17.8454 35.5994 17.8333 35.5994 17.8211C35.5994 17.809 35.5994 17.7968 35.5994 17.7847C35.5994 17.7725 35.5994 17.7604 35.5994 17.7482C35.5994 17.7361 35.5994 17.7239 35.5994 17.7118C35.5994 17.6997 35.5994 17.6875 35.5994 17.6754C35.5994 17.6633 35.5994 17.6511 35.5994 17.639C35.5994 17.6269 35.5994 17.6147 35.5994 17.6026C35.5994 17.5905 35.5994 17.5784 35.5994 17.5663C35.5994 17.5542 35.5994 17.542 35.5994 17.5299C35.5994 17.5178 35.5994 17.5057 35.5994 17.4936C35.5994 17.4815 35.5994 17.4694 35.5994 17.4573C35.5994 17.4452 35.5994 17.4331 35.5994 17.421C35.5994 17.4089 35.5994 17.3968 35.5994 17.3848C35.5994 17.3727 35.5994 17.3606 35.5994 17.3485C35.5994 17.3364 35.5994 17.3244 35.5994 17.3123C35.5994 17.3002 35.5994 17.2881 35.5994 17.2761C35.5994 17.264 35.5994 17.252 35.5994 17.2399C35.5994 17.2278 35.5994 17.2158 35.5994 17.2037C35.5994 17.1917 35.5994 17.1797 35.5994 17.1676C35.5994 17.1556 35.5994 17.1435 35.5994 17.1315C35.5994 17.1195 35.5994 17.1074 35.5994 17.0954C35.5994 17.0834 35.5994 17.0714 35.5994 17.0594C35.5994 17.0473 35.5994 17.0353 35.5994 17.0233C35.5994 17.0113 35.5994 16.9993 35.5994 16.9873C35.5994 16.9753 35.5994 16.9633 35.5994 16.9513C35.5994 16.9394 35.5994 16.9274 35.5994 16.9154C35.5994 16.9034 35.5994 16.8914 35.5994 16.8795C35.5994 16.8675 35.5994 16.8555 35.5994 16.8436C35.5994 16.8316 35.5994 16.8197 35.5994 16.8077C35.5994 16.7958 35.5994 16.7838 35.5994 16.7719C35.5994 16.7599 35.5994 16.748 35.5994 16.7361C35.5994 16.7241 35.5994 16.7122 35.5994 16.7003C35.5994 16.6884 35.5994 16.6765 35.5994 16.6645C35.5994 16.6526 35.5994 16.6407 35.5994 16.6288C35.5994 16.6169 35.5994 16.605 35.5994 16.5932C35.5994 16.5813 35.5994 16.5694 35.5994 16.5575C35.5994 16.5456 35.5994 16.5338 35.5994 16.5219C35.5994 16.51 35.5994 16.4982 35.5994 16.4863C35.5994 16.4745 35.5994 16.4626 35.5994 16.4508C35.5994 16.439 35.5994 16.4271 35.5994 16.4153C35.5994 16.4035 35.5994 16.3916 35.5994 16.3798C35.5994 16.368 35.5994 16.3562 35.5994 16.3444C35.5994 16.3326 35.5994 16.3208 35.5994 16.309C35.5994 16.2972 35.5994 16.2854 35.5994 16.2737C35.5994 16.2619 35.5994 16.2501 35.5994 16.2384C35.5994 16.2266 35.5994 16.2148 35.5994 16.2031C35.5994 16.1913 35.5994 16.1796 35.5994 16.1679C35.5994 16.1561 35.5994 16.1444 35.5994 16.1327C35.5994 16.1209 35.5994 16.1092 35.5994 16.0975C35.5994 16.0858 35.5994 16.0741 35.5994 16.0624C35.5994 16.0507 35.5994 16.039 35.5994 16.0273C35.5994 16.0157 35.5994 16.004 35.5994 15.9923C35.5994 15.9807 35.5994 15.969 35.5994 15.9573C35.5994 15.9457 35.5994 15.934 35.5994 15.9224C35.5994 15.9108 35.5994 15.8991 35.5994 15.8875C35.5994 15.8759 35.5994 15.8643 35.5994 15.8527C35.5994 15.8411 35.5994 15.8295 35.5994 15.8179C35.5994 15.8063 35.5994 15.7947 35.5994 15.7831C35.5994 15.7716 35.5994 15.76 35.5994 15.7484C35.5994 15.7369 35.5994 15.7253 35.5994 15.7138C35.5994 15.7022 35.5994 15.6907 35.5994 15.6792C35.5994 15.6677 35.5994 15.6561 35.5994 15.6446C35.5994 15.6331 35.5994 15.6216 35.5994 15.6101C35.5994 15.5986 35.5994 15.5872 35.5994 15.5757C35.5994 15.5642 35.5994 15.5527 35.5994 15.5413C35.5994 15.5298 35.5994 15.5184 35.5994 15.5069C35.5994 15.4955 35.5994 15.4841 35.5994 15.4726C35.5994 15.4612 35.5994 15.4498 35.5994 15.4384C35.5994 15.427 35.5994 15.4156 35.5994 15.4042C35.5994 15.3928 35.5994 15.3814 35.5994 15.3701C35.5994 15.3587 35.5994 15.3473 35.5994 15.336C35.5994 15.3246 35.5994 15.3133 35.5994 15.302C35.5994 15.2906 35.5994 15.2793 35.5994 15.268C35.5994 15.2567 35.5994 15.2454 35.5994 15.2341C35.5994 15.2228 35.5994 15.2115 35.5994 15.2002C35.5994 15.1889 35.5994 15.1777 35.5994 15.1664C35.5994 15.1552 35.5994 15.1439 35.5994 15.1327C35.5994 15.1214 35.5994 15.1102 35.5994 15.099C35.5994 15.0878 35.5994 15.0766 35.5994 15.0654C35.5994 15.0542 35.5994 15.043 35.5994 15.0318C35.5994 15.0206 35.5994 15.0095 35.5994 14.9983C35.5994 14.9872 35.5994 14.976 35.5994 14.9649C35.5994 14.9538 35.5994 14.9426 35.5994 14.9315C35.5994 14.9204 35.5994 14.9093 35.5994 14.8982C35.5994 14.8871 35.5994 14.876 35.5994 14.865C35.5994 14.8539 35.5994 14.8428 35.5994 14.8318C35.5994 14.8207 35.5994 14.8097 35.5994 14.7986C35.5994 14.7876 35.5994 14.7766 35.5994 14.7656C35.5994 14.7546 35.5994 14.7436 35.5994 14.7326C35.5994 14.7216 35.5994 14.7106 35.5994 14.6997C35.5994 14.6887 35.5994 14.6778 35.5994 14.6668C35.5994 14.6559 35.5994 14.645 35.5994 14.634C35.5994 14.6231 35.5994 14.6122 35.5994 14.6013C35.5994 14.5904 35.5994 14.5795 35.5994 14.5687C35.5994 14.5578 35.5994 14.5469 35.5994 14.5361C35.5994 14.5252 35.5994 14.5144 35.5994 14.5036C35.5994 14.4927 35.5994 14.4819 35.5994 14.4711C35.5994 14.4603 35.5994 14.4495 35.5994 14.4388C35.5994 14.428 35.5994 14.4172 35.5994 14.4065C35.5994 14.3957 35.5994 14.385 35.5994 14.3742C35.5994 14.3635 35.5994 14.3528 35.5994 14.3421C35.5994 14.3314 35.5994 14.3207 35.5994 14.31C35.5994 14.2993 35.5994 14.2887 35.5994 14.278C35.5994 14.2674 35.5994 14.2567 35.5994 14.2461C35.5994 14.2354 35.5994 14.2248 35.5994 14.2142C35.5994 14.2036 35.5994 14.193 35.5994 14.1824C35.5994 14.1719 35.5994 14.1613 35.5994 14.1507C35.5994 14.1402 35.5994 14.1297 35.5994 14.1191C35.5994 14.1086 35.5994 14.0981 35.5994 14.0876C35.5994 14.0771 35.5994 14.0666 35.5994 14.0561C35.5994 14.0456 35.5994 14.0352 35.5994 14.0247C35.5994 14.0143 35.5994 14.0038 35.5994 13.9934C35.5994 13.983 35.5994 13.9726 35.5994 13.9622C35.5994 13.9518 35.5994 13.9414 35.5994 13.931C35.5994 13.9207 35.5994 13.9103 35.5994 13.9C35.5994 13.8896 35.5994 13.8793 35.5994 13.869C35.5994 13.8587 35.5994 13.8484 35.5994 13.8381C35.5994 13.8278 35.5994 13.8175 35.5994 13.8073C35.5994 13.797 35.5994 13.7868 35.5994 13.7765C35.5994 13.7663 35.5994 13.7561 35.5994 13.7459C35.5994 13.7357 35.5994 13.7255 35.5994 13.7153C35.5994 13.7052 35.5994 13.695 35.5994 13.6848C35.5994 13.6747 35.5994 13.6646 35.5994 13.6545C35.5994 13.6443 35.5994 13.6342 35.5994 13.6242C35.5994 13.6141 35.5994 13.604 35.5994 13.5939C35.5994 13.5839 35.5994 13.5738 35.5994 13.5638C35.5994 13.5538 35.5994 13.5438 35.5994 13.5338C35.5994 13.5238 35.5994 13.5138 35.5994 13.5038C35.5994 13.4939 35.5994 13.4839 35.5994 13.474C35.5994 13.464 35.5994 13.4541 35.5994 13.4442C35.5994 13.4343 35.5994 13.4244 35.5994 13.4145C35.5994 13.4046 35.5994 13.3948 35.5994 13.3849C35.5994 13.3751 35.5994 13.3652 35.5994 13.3554C35.5994 13.3456 35.5994 13.3358 35.5994 13.326C35.5994 13.3162 35.5994 13.3065 35.5994 13.2967C35.5994 13.287 35.5994 13.2772 35.5994 13.2675C35.5994 13.2578 35.5994 13.2481 35.5994 13.2384C35.5994 13.2287 35.5994 13.219 35.5994 13.2094C35.5994 13.1997 35.5994 13.1901 35.5994 13.1804C35.5994 13.1708 35.5994 13.1612 35.5994 13.1516C35.5994 13.142 35.5994 13.1324 35.5994 13.1229C35.5994 13.1133 35.5994 13.1038 35.5994 13.0942C35.5994 13.0847 35.5994 13.0752 35.5994 13.0657C35.5994 13.0562 35.5994 13.0467 35.5994 13.0373C35.5994 13.0278 35.5994 13.0184 35.5994 13.0089C35.5994 12.9995 35.5994 12.9901 35.5994 12.9807C35.5994 12.9713 35.5994 12.9619 35.5994 12.9526C35.5994 12.9432 35.5994 12.9339 35.5994 12.9245C35.5994 12.9152 35.5994 12.9059 35.5994 12.8966C35.5994 12.8873 35.5994 12.878 35.5994 12.8688C35.5994 12.8595 35.5994 12.8503 35.5994 12.841C35.5994 12.8318 35.5994 12.8226 35.5994 12.8134C35.5994 12.8042 35.5994 12.7951 35.5994 12.7859C35.5994 12.7767 35.5994 12.7676 35.5994 12.7585C35.5994 12.7494 35.5994 12.7403 35.5994 12.7312C35.5994 12.7221 35.5994 12.713 35.5994 12.704C35.5994 12.6949 35.5994 12.6859 35.5994 12.6769C35.5994 12.6679 35.5994 12.6589 35.5994 12.6499C35.5994 12.6409 35.5994 12.632 35.5994 12.623C35.5994 12.6141 35.5994 12.6052 35.5994 12.5963C35.5994 12.5874 35.5994 12.5785 35.5994 12.5696C35.5994 12.5607 35.5994 12.5519 35.5994 12.543C35.5994 12.5342 35.5994 12.5254 35.5994 12.5166C35.5994 12.5078 35.5994 12.499 35.5994 12.4903C35.5994 12.4815 35.5994 12.4728 35.5994 12.4641C35.5994 12.4553 35.5994 12.4466 35.5994 12.438C35.5994 12.4293 35.5994 12.4206 35.5994 12.412C35.5994 12.4033 35.5994 12.3947 35.5994 12.3861C35.5994 12.3775 35.5994 12.3689 35.5994 12.3603C35.5994 12.3518 35.5994 12.3432 35.5994 12.3347C35.5994 12.3262 35.5994 12.3176 35.5994 12.3092C35.5994 12.3007 35.5994 12.2922 35.5994 12.2837C35.5994 12.2753 35.5994 12.2669 35.5994 12.2584C35.5994 12.25 35.5994 12.2416 35.5994 12.2333C35.5994 12.2249 35.5994 12.2165 35.5994 12.2082C35.5994 12.1999 35.5994 12.1915 35.5994 12.1832C35.5994 12.1749 35.5994 12.1667 35.5994 12.1584C35.5994 12.1502 35.5994 12.1419 35.5994 12.1337C35.5994 12.1255 35.5994 12.1173 35.5994 12.1091C35.5994 12.1009 35.5994 12.0928 35.5994 12.0847C35.5994 12.0765 35.5994 12.0684 35.5994 12.0603C35.5994 12.0522 35.5994 12.0441 35.5994 12.0361C35.5994 12.028 35.5994 12.02 35.5994 12.012C35.5994 12.004 35.5994 11.996 35.5994 11.988C35.5994 11.98 35.5994 11.9721 35.5994 11.9642C35.5994 11.9562 35.5994 11.9483 35.5994 11.9404C35.5994 11.9325 35.5994 11.9247 35.5994 11.9168C35.5994 11.909 35.5994 11.9012 35.5994 11.8934C35.5994 11.8856 35.5994 11.8778 35.5994 11.87C35.5994 11.8622 35.5994 11.8545 35.5994 11.8468C35.5994 11.8391 35.5994 11.8314 35.5994 11.8237C35.5994 11.816 35.5994 11.8084 35.5994 11.8007C35.5994 11.7931 35.5994 11.7855 35.5994 11.7779C35.5994 11.7703 35.5994 11.7627 35.5994 11.7552C35.5994 11.7476 35.5994 11.7401 35.5994 11.7326C35.5994 11.7251 35.5994 11.7176 35.5994 11.7101C35.5994 11.7027 35.5994 11.6952 35.5994 11.6878C35.5994 11.6804 35.5994 11.673 35.5994 11.6656C35.5994 11.6583 35.5994 11.6509 35.5994 11.6436C35.5994 11.6363 35.5994 11.629 35.5994 11.6217C35.5994 11.6144 35.5994 11.6071 35.5994 11.5999C35.5994 11.5926 35.5994 11.5854 35.5994 11.5782C35.5994 11.571 35.5994 11.5639 35.5994 11.5567C35.5994 11.5496 35.5994 11.5424 35.5994 11.5353C35.5994 11.5282 35.5994 11.5211 35.5994 11.5141C35.5994 11.507 35.5994 11.5 35.5994 11.493C35.5994 11.486 35.5994 11.479 35.5994 11.472C35.5994 11.465 35.5994 11.4581 35.5994 11.4512C35.5994 11.4442 35.5994 11.4373 35.5994 11.4305C35.5994 11.4236 35.5994 11.4167 35.5994 11.4099C35.5994 11.4031 35.5994 11.3963 35.5994 11.3895C35.5994 11.3827 35.5994 11.376 35.5994 11.3692C35.5994 11.3625 35.5994 11.3558 35.5994 11.3491C35.5994 11.3424 35.5994 11.3357 35.5994 11.3291C35.5994 11.3224 35.5994 11.3158 35.5994 11.3092C35.5994 11.3026 35.5994 11.2961 35.5994 11.2895C35.5994 11.283 35.5994 11.2765 35.5994 11.27C35.5994 11.2635 35.5994 11.257 35.5994 11.2505C35.5994 11.2441 35.5994 11.2377 35.5994 11.2313C35.5994 11.2249 35.5994 11.2185 35.5994 11.2121C35.5994 11.2058 35.5994 11.1994 35.5994 11.1931C35.5994 11.1868 35.5994 11.1806 35.5994 11.1743C35.5994 11.168 35.5994 11.1618 35.5994 11.1556C35.5994 11.1494 35.5994 11.1432 35.5994 11.1371C35.5994 11.1309 35.5994 11.1248 35.5994 11.1187C35.5994 11.1126 35.5994 11.1065 35.5994 11.1004C35.5994 11.0944 35.5994 11.0883 35.5994 11.0823C35.5994 11.0763 35.5994 11.0703 35.5994 11.0644C35.5994 11.0584 35.5994 11.0525 35.5994 11.0466C35.5994 11.0407 35.5994 11.0348 35.5994 11.0289C35.5994 11.0231 35.5994 11.0172 35.5994 11.0114C35.5994 11.0056 35.5994 10.9998 35.5994 10.9941C35.5994 10.9883 35.5994 10.9826 35.5994 10.9769C35.5994 10.9712 35.5994 10.9655 35.5994 10.9598C35.5994 10.9542 35.5994 10.9486 35.5994 10.943C35.5994 10.9374 35.5994 10.9318 35.5994 10.9262C35.5994 10.9207 35.5994 10.9152 35.5994 10.9097C35.5994 10.9042 35.5994 10.8987 35.5994 10.8932C35.5994 10.8878 35.5994 10.8824 35.5994 10.877C35.5994 10.8716 35.5994 10.8662 35.5994 10.8609C35.5994 10.8555 35.5994 10.8502 35.5994 10.8449C35.5994 10.8396 35.5994 10.8344 35.5994 10.8292C35.5994 10.8239 35.5994 10.8187 35.5994 10.8135C35.5994 10.8083 35.5994 10.8032 35.5994 10.7981C35.5994 10.7929 35.5994 10.7878 35.5994 10.7827C35.5994 10.7777 35.5994 10.7726 35.5994 10.7676C35.5994 10.7626 35.5994 10.7576 35.5994 10.7526C35.5994 10.7476 35.5994 10.7427 35.5994 10.7378C35.5994 10.7329 35.5994 10.728 35.5994 10.7231C35.5994 10.7183 35.5994 10.7134 35.5994 10.7086C35.5994 10.7038 35.5994 10.6991 35.5994 10.6943C35.5994 10.6896 35.5994 10.6848 35.5994 10.6801C35.5994 10.6754 35.5994 10.6708 35.5994 10.6661C35.5994 10.6615 35.5994 10.6569 35.5994 10.6523C35.5994 10.6477 35.5994 10.6431 35.5994 10.6386C35.5994 10.6341 35.5994 10.6296 35.5994 10.6251C35.5994 10.6206 35.5994 10.6162 35.5994 10.6118C35.5994 10.6074 35.5994 10.603 35.5994 10.5986C35.5994 10.5942 35.5994 10.5899 35.5994 10.5856C35.5994 10.5813 35.5994 10.577 35.5994 10.5728C35.5994 10.5685 35.5994 10.5643 35.5994 10.5601C35.5994 10.5559 35.5994 10.5518 35.5994 10.5476C35.5994 10.5435 35.5994 10.5394 35.5994 10.5353C35.5994 10.5312 35.5994 10.5272 35.5994 10.5232C35.5994 10.5191 35.5994 10.5151 35.5994 10.5112C35.5994 10.5072 35.5994 10.5033 35.5994 10.4994C35.5994 10.4955 35.5994 10.4916 35.5994 10.4878C35.5994 10.4839 35.5994 10.4801 35.5994 10.4763C35.5994 10.4725 35.5994 10.4687 35.5994 10.465C35.5994 10.4613 35.5994 10.4576 35.5994 10.4539C35.5994 10.4502 35.5994 10.4466 35.5994 10.443C35.5994 10.4394 35.5994 10.4358 35.5994 10.4322C35.5994 10.4287 35.5994 10.4252 35.5994 10.4217C35.5994 10.4182 35.5994 10.4147 35.5994 10.4113C35.5994 10.4078 35.5994 10.4044 35.5994 10.401C35.5994 10.3977 35.5994 10.3943 35.5994 10.391C35.5994 10.3877 35.5994 10.3844 35.5994 10.3811C35.5994 10.3779 35.5994 10.3747 35.5994 10.3715C35.5994 10.3683 35.5994 10.3651 35.5994 10.362C35.5994 10.3588 35.5994 10.3557 35.5994 10.3527C35.5994 10.3496 35.5994 10.3465 35.5994 10.3435C35.5994 10.3405 35.5994 10.3375 35.5994 10.3346C35.5994 10.3316 35.5994 10.3287 35.5994 10.3258C35.5994 10.3229 35.5994 10.32 35.5994 10.3172C35.5994 10.3144 35.5994 10.3116 35.5994 10.3088C35.5994 10.306 35.5994 10.3033 35.5994 10.3006C35.5994 10.2979 35.5994 10.2952 35.5994 10.2926C35.5994 10.2899 35.5994 10.2873 35.5994 10.2847C35.5994 10.2821 35.5994 10.2796 35.5994 10.2771C35.5994 10.2745 35.5994 10.2721 35.5994 10.2696C35.5994 10.2671 35.5994 10.2647 35.5994 10.2623C35.5994 10.2599 35.5994 10.2576 35.5994 10.2552C35.5994 10.2529 35.5994 10.2506 35.5994 10.2483C35.5994 10.2461 35.5994 10.2438 35.5994 10.2416C35.5994 10.2394 35.5994 10.2372 35.5994 10.2351C35.5994 10.2329 35.5994 10.2308 35.5994 10.2288C35.5994 10.2267 35.5994 10.2246 35.5994 10.2226C35.5994 10.2206 35.5994 10.2186 35.5994 10.2167C35.5994 10.2147 35.5994 10.2128 35.5994 10.2109C35.5994 10.209 35.5994 10.2072 35.5994 10.2054C35.5994 10.2035 35.5994 10.2017 35.5994 10.2C35.5994 10.1982 35.5994 10.1965 35.5994 10.1948C35.5994 10.1931 35.5994 10.1915 35.5994 10.1898C35.5994 10.1882 35.5994 10.1866 35.5994 10.1851C35.5994 10.1835 35.5994 10.182 35.5994 10.1805C35.5994 10.179 35.5994 10.1775 35.5994 10.1761C35.5994 10.1747 35.5994 10.1733 35.5994 10.1719C35.5994 10.1705 35.5994 10.1692 35.5994 10.1679C35.5994 10.1666 35.5994 10.1654 35.5994 10.1641C35.5994 10.1629 35.5994 10.1617 35.5994 10.1605C35.5994 10.1594 35.5994 10.1582 35.5994 10.1571C35.5994 10.156 35.5994 10.155 35.5994 10.1539C35.5994 10.1529 35.5994 10.1519 35.5994 10.151C35.5994 10.15 35.5994 10.1491 35.5994 10.1482C35.5994 10.1473 35.5994 10.1464 35.5994 10.1456C35.5994 10.1448 35.5994 10.144 35.5994 10.1432C35.5994 10.1424 35.5994 10.1417 35.5994 10.141C35.5994 10.1403 35.5994 10.1397 35.5994 10.1391C35.5994 10.1384 35.5994 10.1378 35.5994 10.1373C35.5994 10.1367 35.5994 10.1362 35.5994 10.1357C35.5994 10.1352 35.5994 10.1348 35.5994 10.1344C35.5994 10.134 35.5994 10.1336 35.5994 10.1332C35.5994 10.1329 35.5994 10.1326 35.5994 10.1323C35.5994 10.132 35.5994 10.1318 35.5994 10.1315C35.5994 10.1313 35.5994 10.1312 35.5994 10.131C35.5994 10.1309 35.5994 10.1308 35.5994 10.1307C35.5994 10.1306 35.5994 10.1306 33.5994 10.1306C31.5994 10.1306 31.5994 10.1306 31.5994 10.1307C31.5994 10.1308 31.5994 10.1309 31.5994 10.131C31.5994 10.1312 31.5994 10.1313 31.5994 10.1315C31.5994 10.1318 31.5994 10.132 31.5994 10.1323C31.5994 10.1326 31.5994 10.1329 31.5994 10.1332C31.5994 10.1336 31.5994 10.134 31.5994 10.1344C31.5994 10.1348 31.5994 10.1352 31.5994 10.1357C31.5994 10.1362 31.5994 10.1367 31.5994 10.1373C31.5994 10.1378 31.5994 10.1384 31.5994 10.1391C31.5994 10.1397 31.5994 10.1403 31.5994 10.141C31.5994 10.1417 31.5994 10.1424 31.5994 10.1432C31.5994 10.144 31.5994 10.1448 31.5994 10.1456C31.5994 10.1464 31.5994 10.1473 31.5994 10.1482C31.5994 10.1491 31.5994 10.15 31.5994 10.151C31.5994 10.1519 31.5994 10.1529 31.5994 10.1539C31.5994 10.155 31.5994 10.156 31.5994 10.1571C31.5994 10.1582 31.5994 10.1594 31.5994 10.1605C31.5994 10.1617 31.5994 10.1629 31.5994 10.1641C31.5994 10.1654 31.5994 10.1666 31.5994 10.1679C31.5994 10.1692 31.5994 10.1705 31.5994 10.1719C31.5994 10.1733 31.5994 10.1747 31.5994 10.1761C31.5994 10.1775 31.5994 10.179 31.5994 10.1805C31.5994 10.182 31.5994 10.1835 31.5994 10.1851C31.5994 10.1866 31.5994 10.1882 31.5994 10.1898C31.5994 10.1915 31.5994 10.1931 31.5994 10.1948C31.5994 10.1965 31.5994 10.1982 31.5994 10.2C31.5994 10.2017 31.5994 10.2035 31.5994 10.2054C31.5994 10.2072 31.5994 10.209 31.5994 10.2109C31.5994 10.2128 31.5994 10.2147 31.5994 10.2167C31.5994 10.2186 31.5994 10.2206 31.5994 10.2226C31.5994 10.2246 31.5994 10.2267 31.5994 10.2288C31.5994 10.2308 31.5994 10.2329 31.5994 10.2351C31.5994 10.2372 31.5994 10.2394 31.5994 10.2416C31.5994 10.2438 31.5994 10.2461 31.5994 10.2483C31.5994 10.2506 31.5994 10.2529 31.5994 10.2552C31.5994 10.2576 31.5994 10.2599 31.5994 10.2623C31.5994 10.2647 31.5994 10.2671 31.5994 10.2696C31.5994 10.2721 31.5994 10.2745 31.5994 10.2771C31.5994 10.2796 31.5994 10.2821 31.5994 10.2847C31.5994 10.2873 31.5994 10.2899 31.5994 10.2926C31.5994 10.2952 31.5994 10.2979 31.5994 10.3006C31.5994 10.3033 31.5994 10.306 31.5994 10.3088C31.5994 10.3116 31.5994 10.3144 31.5994 10.3172C31.5994 10.32 31.5994 10.3229 31.5994 10.3258C31.5994 10.3287 31.5994 10.3316 31.5994 10.3346C31.5994 10.3375 31.5994 10.3405 31.5994 10.3435C31.5994 10.3465 31.5994 10.3496 31.5994 10.3527C31.5994 10.3557 31.5994 10.3588 31.5994 10.362C31.5994 10.3651 31.5994 10.3683 31.5994 10.3715C31.5994 10.3747 31.5994 10.3779 31.5994 10.3811C31.5994 10.3844 31.5994 10.3877 31.5994 10.391C31.5994 10.3943 31.5994 10.3977 31.5994 10.401C31.5994 10.4044 31.5994 10.4078 31.5994 10.4113C31.5994 10.4147 31.5994 10.4182 31.5994 10.4217C31.5994 10.4252 31.5994 10.4287 31.5994 10.4322C31.5994 10.4358 31.5994 10.4394 31.5994 10.443C31.5994 10.4466 31.5994 10.4502 31.5994 10.4539C31.5994 10.4576 31.5994 10.4613 31.5994 10.465C31.5994 10.4687 31.5994 10.4725 31.5994 10.4763C31.5994 10.4801 31.5994 10.4839 31.5994 10.4878C31.5994 10.4916 31.5994 10.4955 31.5994 10.4994C31.5994 10.5033 31.5994 10.5072 31.5994 10.5112C31.5994 10.5151 31.5994 10.5191 31.5994 10.5232C31.5994 10.5272 31.5994 10.5312 31.5994 10.5353C31.5994 10.5394 31.5994 10.5435 31.5994 10.5476C31.5994 10.5518 31.5994 10.5559 31.5994 10.5601C31.5994 10.5643 31.5994 10.5685 31.5994 10.5728C31.5994 10.577 31.5994 10.5813 31.5994 10.5856C31.5994 10.5899 31.5994 10.5942 31.5994 10.5986C31.5994 10.603 31.5994 10.6074 31.5994 10.6118C31.5994 10.6162 31.5994 10.6206 31.5994 10.6251C31.5994 10.6296 31.5994 10.6341 31.5994 10.6386C31.5994 10.6431 31.5994 10.6477 31.5994 10.6523C31.5994 10.6569 31.5994 10.6615 31.5994 10.6661C31.5994 10.6708 31.5994 10.6754 31.5994 10.6801C31.5994 10.6848 31.5994 10.6896 31.5994 10.6943C31.5994 10.6991 31.5994 10.7038 31.5994 10.7086C31.5994 10.7134 31.5994 10.7183 31.5994 10.7231C31.5994 10.728 31.5994 10.7329 31.5994 10.7378C31.5994 10.7427 31.5994 10.7476 31.5994 10.7526C31.5994 10.7576 31.5994 10.7626 31.5994 10.7676C31.5994 10.7726 31.5994 10.7777 31.5994 10.7827C31.5994 10.7878 31.5994 10.7929 31.5994 10.7981C31.5994 10.8032 31.5994 10.8083 31.5994 10.8135C31.5994 10.8187 31.5994 10.8239 31.5994 10.8292C31.5994 10.8344 31.5994 10.8396 31.5994 10.8449C31.5994 10.8502 31.5994 10.8555 31.5994 10.8609C31.5994 10.8662 31.5994 10.8716 31.5994 10.877C31.5994 10.8824 31.5994 10.8878 31.5994 10.8932C31.5994 10.8987 31.5994 10.9042 31.5994 10.9097C31.5994 10.9152 31.5994 10.9207 31.5994 10.9262C31.5994 10.9318 31.5994 10.9374 31.5994 10.943C31.5994 10.9486 31.5994 10.9542 31.5994 10.9598C31.5994 10.9655 31.5994 10.9712 31.5994 10.9769C31.5994 10.9826 31.5994 10.9883 31.5994 10.9941C31.5994 10.9998 31.5994 11.0056 31.5994 11.0114C31.5994 11.0172 31.5994 11.0231 31.5994 11.0289C31.5994 11.0348 31.5994 11.0407 31.5994 11.0466C31.5994 11.0525 31.5994 11.0584 31.5994 11.0644C31.5994 11.0703 31.5994 11.0763 31.5994 11.0823C31.5994 11.0883 31.5994 11.0944 31.5994 11.1004C31.5994 11.1065 31.5994 11.1126 31.5994 11.1187C31.5994 11.1248 31.5994 11.1309 31.5994 11.1371C31.5994 11.1432 31.5994 11.1494 31.5994 11.1556C31.5994 11.1618 31.5994 11.168 31.5994 11.1743C31.5994 11.1806 31.5994 11.1868 31.5994 11.1931C31.5994 11.1994 31.5994 11.2058 31.5994 11.2121C31.5994 11.2185 31.5994 11.2249 31.5994 11.2313C31.5994 11.2377 31.5994 11.2441 31.5994 11.2505C31.5994 11.257 31.5994 11.2635 31.5994 11.27C31.5994 11.2765 31.5994 11.283 31.5994 11.2895C31.5994 11.2961 31.5994 11.3026 31.5994 11.3092C31.5994 11.3158 31.5994 11.3224 31.5994 11.3291C31.5994 11.3357 31.5994 11.3424 31.5994 11.3491C31.5994 11.3558 31.5994 11.3625 31.5994 11.3692C31.5994 11.376 31.5994 11.3827 31.5994 11.3895C31.5994 11.3963 31.5994 11.4031 31.5994 11.4099C31.5994 11.4167 31.5994 11.4236 31.5994 11.4305C31.5994 11.4373 31.5994 11.4442 31.5994 11.4512C31.5994 11.4581 31.5994 11.465 31.5994 11.472C31.5994 11.479 31.5994 11.486 31.5994 11.493C31.5994 11.5 31.5994 11.507 31.5994 11.5141C31.5994 11.5211 31.5994 11.5282 31.5994 11.5353C31.5994 11.5424 31.5994 11.5496 31.5994 11.5567C31.5994 11.5639 31.5994 11.571 31.5994 11.5782C31.5994 11.5854 31.5994 11.5926 31.5994 11.5999C31.5994 11.6071 31.5994 11.6144 31.5994 11.6217C31.5994 11.629 31.5994 11.6363 31.5994 11.6436C31.5994 11.6509 31.5994 11.6583 31.5994 11.6656C31.5994 11.673 31.5994 11.6804 31.5994 11.6878C31.5994 11.6952 31.5994 11.7027 31.5994 11.7101C31.5994 11.7176 31.5994 11.7251 31.5994 11.7326C31.5994 11.7401 31.5994 11.7476 31.5994 11.7552C31.5994 11.7627 31.5994 11.7703 31.5994 11.7779C31.5994 11.7855 31.5994 11.7931 31.5994 11.8007C31.5994 11.8084 31.5994 11.816 31.5994 11.8237C31.5994 11.8314 31.5994 11.8391 31.5994 11.8468C31.5994 11.8545 31.5994 11.8622 31.5994 11.87C31.5994 11.8778 31.5994 11.8856 31.5994 11.8934C31.5994 11.9012 31.5994 11.909 31.5994 11.9168C31.5994 11.9247 31.5994 11.9325 31.5994 11.9404C31.5994 11.9483 31.5994 11.9562 31.5994 11.9642C31.5994 11.9721 31.5994 11.98 31.5994 11.988C31.5994 11.996 31.5994 12.004 31.5994 12.012C31.5994 12.02 31.5994 12.028 31.5994 12.0361C31.5994 12.0441 31.5994 12.0522 31.5994 12.0603C31.5994 12.0684 31.5994 12.0765 31.5994 12.0847C31.5994 12.0928 31.5994 12.1009 31.5994 12.1091C31.5994 12.1173 31.5994 12.1255 31.5994 12.1337C31.5994 12.1419 31.5994 12.1502 31.5994 12.1584C31.5994 12.1667 31.5994 12.1749 31.5994 12.1832C31.5994 12.1915 31.5994 12.1999 31.5994 12.2082C31.5994 12.2165 31.5994 12.2249 31.5994 12.2333C31.5994 12.2416 31.5994 12.25 31.5994 12.2584C31.5994 12.2669 31.5994 12.2753 31.5994 12.2837C31.5994 12.2922 31.5994 12.3007 31.5994 12.3092C31.5994 12.3176 31.5994 12.3262 31.5994 12.3347C31.5994 12.3432 31.5994 12.3518 31.5994 12.3603C31.5994 12.3689 31.5994 12.3775 31.5994 12.3861C31.5994 12.3947 31.5994 12.4033 31.5994 12.412C31.5994 12.4206 31.5994 12.4293 31.5994 12.438C31.5994 12.4466 31.5994 12.4553 31.5994 12.4641C31.5994 12.4728 31.5994 12.4815 31.5994 12.4903C31.5994 12.499 31.5994 12.5078 31.5994 12.5166C31.5994 12.5254 31.5994 12.5342 31.5994 12.543C31.5994 12.5519 31.5994 12.5607 31.5994 12.5696C31.5994 12.5785 31.5994 12.5874 31.5994 12.5963C31.5994 12.6052 31.5994 12.6141 31.5994 12.623C31.5994 12.632 31.5994 12.6409 31.5994 12.6499C31.5994 12.6589 31.5994 12.6679 31.5994 12.6769C31.5994 12.6859 31.5994 12.6949 31.5994 12.704C31.5994 12.713 31.5994 12.7221 31.5994 12.7312C31.5994 12.7403 31.5994 12.7494 31.5994 12.7585C31.5994 12.7676 31.5994 12.7767 31.5994 12.7859C31.5994 12.7951 31.5994 12.8042 31.5994 12.8134C31.5994 12.8226 31.5994 12.8318 31.5994 12.841C31.5994 12.8503 31.5994 12.8595 31.5994 12.8688C31.5994 12.878 31.5994 12.8873 31.5994 12.8966C31.5994 12.9059 31.5994 12.9152 31.5994 12.9245C31.5994 12.9339 31.5994 12.9432 31.5994 12.9526C31.5994 12.9619 31.5994 12.9713 31.5994 12.9807C31.5994 12.9901 31.5994 12.9995 31.5994 13.0089C31.5994 13.0184 31.5994 13.0278 31.5994 13.0373C31.5994 13.0467 31.5994 13.0562 31.5994 13.0657C31.5994 13.0752 31.5994 13.0847 31.5994 13.0942C31.5994 13.1038 31.5994 13.1133 31.5994 13.1229C31.5994 13.1324 31.5994 13.142 31.5994 13.1516C31.5994 13.1612 31.5994 13.1708 31.5994 13.1804C31.5994 13.1901 31.5994 13.1997 31.5994 13.2094C31.5994 13.219 31.5994 13.2287 31.5994 13.2384C31.5994 13.2481 31.5994 13.2578 31.5994 13.2675C31.5994 13.2772 31.5994 13.287 31.5994 13.2967C31.5994 13.3065 31.5994 13.3162 31.5994 13.326C31.5994 13.3358 31.5994 13.3456 31.5994 13.3554C31.5994 13.3652 31.5994 13.3751 31.5994 13.3849C31.5994 13.3948 31.5994 13.4046 31.5994 13.4145C31.5994 13.4244 31.5994 13.4343 31.5994 13.4442C31.5994 13.4541 31.5994 13.464 31.5994 13.474C31.5994 13.4839 31.5994 13.4939 31.5994 13.5038C31.5994 13.5138 31.5994 13.5238 31.5994 13.5338C31.5994 13.5438 31.5994 13.5538 31.5994 13.5638C31.5994 13.5738 31.5994 13.5839 31.5994 13.5939C31.5994 13.604 31.5994 13.6141 31.5994 13.6242C31.5994 13.6342 31.5994 13.6443 31.5994 13.6545C31.5994 13.6646 31.5994 13.6747 31.5994 13.6848C31.5994 13.695 31.5994 13.7052 31.5994 13.7153C31.5994 13.7255 31.5994 13.7357 31.5994 13.7459C31.5994 13.7561 31.5994 13.7663 31.5994 13.7765C31.5994 13.7868 31.5994 13.797 31.5994 13.8073C31.5994 13.8175 31.5994 13.8278 31.5994 13.8381C31.5994 13.8484 31.5994 13.8587 31.5994 13.869C31.5994 13.8793 31.5994 13.8896 31.5994 13.9C31.5994 13.9103 31.5994 13.9207 31.5994 13.931C31.5994 13.9414 31.5994 13.9518 31.5994 13.9622C31.5994 13.9726 31.5994 13.983 31.5994 13.9934C31.5994 14.0038 31.5994 14.0143 31.5994 14.0247C31.5994 14.0352 31.5994 14.0456 31.5994 14.0561C31.5994 14.0666 31.5994 14.0771 31.5994 14.0876C31.5994 14.0981 31.5994 14.1086 31.5994 14.1191C31.5994 14.1297 31.5994 14.1402 31.5994 14.1507C31.5994 14.1613 31.5994 14.1719 31.5994 14.1824C31.5994 14.193 31.5994 14.2036 31.5994 14.2142C31.5994 14.2248 31.5994 14.2354 31.5994 14.2461C31.5994 14.2567 31.5994 14.2674 31.5994 14.278C31.5994 14.2887 31.5994 14.2993 31.5994 14.31C31.5994 14.3207 31.5994 14.3314 31.5994 14.3421C31.5994 14.3528 31.5994 14.3635 31.5994 14.3742C31.5994 14.385 31.5994 14.3957 31.5994 14.4065C31.5994 14.4172 31.5994 14.428 31.5994 14.4388C31.5994 14.4495 31.5994 14.4603 31.5994 14.4711C31.5994 14.4819 31.5994 14.4927 31.5994 14.5036C31.5994 14.5144 31.5994 14.5252 31.5994 14.5361C31.5994 14.5469 31.5994 14.5578 31.5994 14.5687C31.5994 14.5795 31.5994 14.5904 31.5994 14.6013C31.5994 14.6122 31.5994 14.6231 31.5994 14.634C31.5994 14.645 31.5994 14.6559 31.5994 14.6668C31.5994 14.6778 31.5994 14.6887 31.5994 14.6997C31.5994 14.7106 31.5994 14.7216 31.5994 14.7326C31.5994 14.7436 31.5994 14.7546 31.5994 14.7656C31.5994 14.7766 31.5994 14.7876 31.5994 14.7986C31.5994 14.8097 31.5994 14.8207 31.5994 14.8318C31.5994 14.8428 31.5994 14.8539 31.5994 14.865C31.5994 14.876 31.5994 14.8871 31.5994 14.8982C31.5994 14.9093 31.5994 14.9204 31.5994 14.9315C31.5994 14.9426 31.5994 14.9538 31.5994 14.9649C31.5994 14.976 31.5994 14.9872 31.5994 14.9983C31.5994 15.0095 31.5994 15.0206 31.5994 15.0318C31.5994 15.043 31.5994 15.0542 31.5994 15.0654C31.5994 15.0766 31.5994 15.0878 31.5994 15.099C31.5994 15.1102 31.5994 15.1214 31.5994 15.1327C31.5994 15.1439 31.5994 15.1552 31.5994 15.1664C31.5994 15.1777 31.5994 15.1889 31.5994 15.2002C31.5994 15.2115 31.5994 15.2228 31.5994 15.2341C31.5994 15.2454 31.5994 15.2567 31.5994 15.268C31.5994 15.2793 31.5994 15.2906 31.5994 15.302C31.5994 15.3133 31.5994 15.3246 31.5994 15.336C31.5994 15.3473 31.5994 15.3587 31.5994 15.3701C31.5994 15.3814 31.5994 15.3928 31.5994 15.4042C31.5994 15.4156 31.5994 15.427 31.5994 15.4384C31.5994 15.4498 31.5994 15.4612 31.5994 15.4726C31.5994 15.4841 31.5994 15.4955 31.5994 15.5069C31.5994 15.5184 31.5994 15.5298 31.5994 15.5413C31.5994 15.5527 31.5994 15.5642 31.5994 15.5757C31.5994 15.5872 31.5994 15.5986 31.5994 15.6101C31.5994 15.6216 31.5994 15.6331 31.5994 15.6446C31.5994 15.6561 31.5994 15.6677 31.5994 15.6792C31.5994 15.6907 31.5994 15.7022 31.5994 15.7138C31.5994 15.7253 31.5994 15.7369 31.5994 15.7484C31.5994 15.76 31.5994 15.7716 31.5994 15.7831C31.5994 15.7947 31.5994 15.8063 31.5994 15.8179C31.5994 15.8295 31.5994 15.8411 31.5994 15.8527C31.5994 15.8643 31.5994 15.8759 31.5994 15.8875C31.5994 15.8991 31.5994 15.9108 31.5994 15.9224C31.5994 15.934 31.5994 15.9457 31.5994 15.9573C31.5994 15.969 31.5994 15.9807 31.5994 15.9923C31.5994 16.004 31.5994 16.0157 31.5994 16.0273C31.5994 16.039 31.5994 16.0507 31.5994 16.0624C31.5994 16.0741 31.5994 16.0858 31.5994 16.0975C31.5994 16.1092 31.5994 16.1209 31.5994 16.1327C31.5994 16.1444 31.5994 16.1561 31.5994 16.1679C31.5994 16.1796 31.5994 16.1913 31.5994 16.2031C31.5994 16.2148 31.5994 16.2266 31.5994 16.2384C31.5994 16.2501 31.5994 16.2619 31.5994 16.2737C31.5994 16.2854 31.5994 16.2972 31.5994 16.309C31.5994 16.3208 31.5994 16.3326 31.5994 16.3444C31.5994 16.3562 31.5994 16.368 31.5994 16.3798C31.5994 16.3916 31.5994 16.4035 31.5994 16.4153C31.5994 16.4271 31.5994 16.439 31.5994 16.4508C31.5994 16.4626 31.5994 16.4745 31.5994 16.4863C31.5994 16.4982 31.5994 16.51 31.5994 16.5219C31.5994 16.5338 31.5994 16.5456 31.5994 16.5575C31.5994 16.5694 31.5994 16.5813 31.5994 16.5932C31.5994 16.605 31.5994 16.6169 31.5994 16.6288C31.5994 16.6407 31.5994 16.6526 31.5994 16.6645C31.5994 16.6765 31.5994 16.6884 31.5994 16.7003C31.5994 16.7122 31.5994 16.7241 31.5994 16.7361C31.5994 16.748 31.5994 16.7599 31.5994 16.7719C31.5994 16.7838 31.5994 16.7958 31.5994 16.8077C31.5994 16.8197 31.5994 16.8316 31.5994 16.8436C31.5994 16.8555 31.5994 16.8675 31.5994 16.8795C31.5994 16.8914 31.5994 16.9034 31.5994 16.9154C31.5994 16.9274 31.5994 16.9394 31.5994 16.9513C31.5994 16.9633 31.5994 16.9753 31.5994 16.9873C31.5994 16.9993 31.5994 17.0113 31.5994 17.0233C31.5994 17.0353 31.5994 17.0473 31.5994 17.0594C31.5994 17.0714 31.5994 17.0834 31.5994 17.0954C31.5994 17.1074 31.5994 17.1195 31.5994 17.1315C31.5994 17.1435 31.5994 17.1556 31.5994 17.1676C31.5994 17.1797 31.5994 17.1917 31.5994 17.2037C31.5994 17.2158 31.5994 17.2278 31.5994 17.2399C31.5994 17.252 31.5994 17.264 31.5994 17.2761C31.5994 17.2881 31.5994 17.3002 31.5994 17.3123C31.5994 17.3244 31.5994 17.3364 31.5994 17.3485C31.5994 17.3606 31.5994 17.3727 31.5994 17.3848C31.5994 17.3968 31.5994 17.4089 31.5994 17.421C31.5994 17.4331 31.5994 17.4452 31.5994 17.4573C31.5994 17.4694 31.5994 17.4815 31.5994 17.4936C31.5994 17.5057 31.5994 17.5178 31.5994 17.5299C31.5994 17.542 31.5994 17.5542 31.5994 17.5663C31.5994 17.5784 31.5994 17.5905 31.5994 17.6026C31.5994 17.6147 31.5994 17.6269 31.5994 17.639C31.5994 17.6511 31.5994 17.6633 31.5994 17.6754C31.5994 17.6875 31.5994 17.6997 31.5994 17.7118C31.5994 17.7239 31.5994 17.7361 31.5994 17.7482C31.5994 17.7604 31.5994 17.7725 31.5994 17.7847C31.5994 17.7968 31.5994 17.809 31.5994 17.8211C31.5994 17.8333 31.5994 17.8454 31.5994 17.8576C31.5994 17.8697 31.5994 17.8819 31.5994 17.894C31.5994 17.9062 31.5994 17.9184 31.5994 17.9305C31.5994 17.9427 31.5994 17.9549 31.5994 17.967C31.5994 17.9792 31.5994 17.9914 31.5994 18.0035C31.5994 18.0157 31.5994 18.0279 31.5994 18.0401C31.5994 18.0522 31.5994 18.0644 31.5994 18.0766C31.5994 18.0888 31.5994 18.1009 31.5994 18.1131C31.5994 18.1253 31.5994 18.1375 31.5994 18.1497C31.5994 18.1618 31.5994 18.174 31.5994 18.1862C31.5994 18.1984 31.5994 18.2106 31.5994 18.2228C31.5994 18.235 31.5994 18.2472 31.5994 18.2593C31.5994 18.2715 31.5994 18.2837 31.5994 18.2959C31.5994 18.3081 31.5994 18.3203 31.5994 18.3325C31.5994 18.3447 31.5994 18.3569 31.5994 18.3691C31.5994 18.3813 31.5994 18.3935 31.5994 18.4057C31.5994 18.4179 31.5994 18.4301 31.5994 18.4423C31.5994 18.4545 31.5994 18.4666 31.5994 18.4788C31.5994 18.491 31.5994 18.5032 31.5994 18.5154C31.5994 18.5276 31.5994 18.5398 31.5994 18.552C31.5994 18.5642 31.5994 18.5764 31.5994 18.5886C31.5994 18.6008 31.5994 18.613 31.5994 18.6252C31.5994 18.6374 31.5994 18.6496 31.5994 18.6618C31.5994 18.674 31.5994 18.6862 31.5994 18.6984C31.5994 18.7106 31.5994 18.7228 31.5994 18.735C31.5994 18.7472 31.5994 18.7594 31.5994 18.7716C31.5994 18.7838 31.5994 18.796 31.5994 18.8082C31.5994 18.8204 31.5994 18.8326 31.5994 18.8448C31.5994 18.857 31.5994 18.8692 31.5994 18.8814C31.5994 18.8936 31.5994 18.9058 31.5994 18.918C31.5994 18.9302 31.5994 18.9423 31.5994 18.9545C31.5994 18.9667 31.5994 18.9789 31.5994 18.9911C31.5994 19.0033 31.5994 19.0155 31.5994 19.0277C31.5994 19.0399 31.5994 19.052 31.5994 19.0642C31.5994 19.0764 31.5994 19.0886 31.5994 19.1008C31.5994 19.113 31.5994 19.1251 31.5994 19.1373C31.5994 19.1495 31.5994 19.1617 31.5994 19.1738C31.5994 19.186 31.5994 19.1982 31.5994 19.2104C31.5994 19.2225 31.5994 19.2347 31.5994 19.2469C31.5994 19.259 31.5994 19.2712 31.5994 19.2834C31.5994 19.2955 31.5994 19.3077 31.5994 19.3199C31.5994 19.332 31.5994 19.3442 31.5994 19.3563C31.5994 19.3685 31.5994 19.3807 31.5994 19.3928C31.5994 19.405 31.5994 19.4171 31.5994 19.4293C31.5994 19.4414 31.5994 19.4536 31.5994 19.4657C31.5994 19.4779 31.5994 19.49 31.5994 19.5021C31.5994 19.5143 31.5994 19.5264 31.5994 19.5385C31.5994 19.5507 31.5994 19.5628 31.5994 19.5749C31.5994 19.5871 31.5994 19.5992 31.5994 19.6113C31.5994 19.6235 31.5994 19.6356 31.5994 19.6477C31.5994 19.6598 31.5994 19.6719 31.5994 19.684C31.5994 19.6961 31.5994 19.7083 31.5994 19.7204C31.5994 19.7325 31.5994 19.7446 31.5994 19.7567C31.5994 19.7688 31.5994 19.7809 31.5994 19.793C31.5994 19.8051 31.5994 19.8172 31.5994 19.8292C31.5994 19.8413 31.5994 19.8534 31.5994 19.8655C31.5994 19.8776 31.5994 19.8897 31.5994 19.9017C31.5994 19.9138 31.5994 19.9259 31.5994 19.9379C31.5994 19.95 31.5994 19.9621 31.5994 19.9741C31.5994 19.9862 31.5994 19.9982 31.5994 20.0103C31.5994 20.0223 31.5994 20.0344 31.5994 20.0464C31.5994 20.0585 31.5994 20.0705 31.5994 20.0825C31.5994 20.0946 31.5994 20.1066 31.5994 20.1186C31.5994 20.1307 31.5994 20.1427 31.5994 20.1547C31.5994 20.1667 31.5994 20.1787 31.5994 20.1908C31.5994 20.2028 31.5994 20.2148 31.5994 20.2268C31.5994 20.2388 31.5994 20.2508 31.5994 20.2628C31.5994 20.2748 31.5994 20.2867 31.5994 20.2987C31.5994 20.3107 31.5994 20.3227 31.5994 20.3347C31.5994 20.3466 31.5994 20.3586 31.5994 20.3706C31.5994 20.3825 31.5994 20.3945 31.5994 20.4064C31.5994 20.4184 31.5994 20.4303 31.5994 20.4423C31.5994 20.4542 31.5994 20.4662 31.5994 20.4781C31.5994 20.49 31.5994 20.502 31.5994 20.5139C31.5994 20.5258 31.5994 20.5377 31.5994 20.5496C31.5994 20.5616 31.5994 20.5735 31.5994 20.5854C31.5994 20.5973 31.5994 20.6092 31.5994 20.621C31.5994 20.6329 31.5994 20.6448 31.5994 20.6567C31.5994 20.6686 31.5994 20.6805 31.5994 20.6923C31.5994 20.7042 31.5994 20.7161 31.5994 20.7279C31.5994 20.7398 31.5994 20.7516 31.5994 20.7635C31.5994 20.7753 31.5994 20.7871 31.5994 20.799C31.5994 20.8108 31.5994 20.8226 31.5994 20.8345C31.5994 20.8463 31.5994 20.8581 31.5994 20.8699C31.5994 20.8817 31.5994 20.8935 31.5994 20.9053C31.5994 20.9171 31.5994 20.9289 31.5994 20.9407C31.5994 20.9524 31.5994 20.9642 31.5994 20.976C31.5994 20.9878 31.5994 20.9995 31.5994 21.0113C31.5994 21.023 31.5994 21.0348 31.5994 21.0465C31.5994 21.0583 31.5994 21.07 31.5994 21.0817C31.5994 21.0935 31.5994 21.1052 31.5994 21.1169C31.5994 21.1286 31.5994 21.1403 31.5994 21.152C31.5994 21.1637 31.5994 21.1754 31.5994 21.1871C31.5994 21.1988 31.5994 21.2105 31.5994 21.2221C31.5994 21.2338 31.5994 21.2455 31.5994 21.2571C31.5994 21.2688 31.5994 21.2804 31.5994 21.2921C31.5994 21.3037 31.5994 21.3154 31.5994 21.327C31.5994 21.3386 31.5994 21.3502 31.5994 21.3618C31.5994 21.3734 31.5994 21.3851 31.5994 21.3966C31.5994 21.4082 31.5994 21.4198 31.5994 21.4314C31.5994 21.443 31.5994 21.4546 31.5994 21.4661C31.5994 21.4777 31.5994 21.4893 31.5994 21.5008C31.5994 21.5123 31.5994 21.5239 31.5994 21.5354C31.5994 21.547 31.5994 21.5585 31.5994 21.57C31.5994 21.5815 31.5994 21.593 31.5994 21.6045C31.5994 21.616 31.5994 21.6275 31.5994 21.639C31.5994 21.6505 31.5994 21.6619 31.5994 21.6734C31.5994 21.6849 31.5994 21.6963 31.5994 21.7078C31.5994 21.7192 31.5994 21.7307 31.5994 21.7421C31.5994 21.7535 31.5994 21.7649 31.5994 21.7764C31.5994 21.7878 31.5994 21.7992 31.5994 21.8106C31.5994 21.822 31.5994 21.8333 31.5994 21.8447C31.5994 21.8561 31.5994 21.8675 31.5994 21.8788C31.5994 21.8902 31.5994 21.9015 31.5994 21.9129C31.5994 21.9242 31.5994 21.9355 31.5994 21.9469C31.5994 21.9582 31.5994 21.9695 31.5994 21.9808C31.5994 21.9921 31.5994 22.0034 31.5994 22.0147C31.5994 22.0259 31.5994 22.0372 31.5994 22.0485C31.5994 22.0597 31.5994 22.071 31.5994 22.0822C31.5994 22.0935 31.5994 22.1047 31.5994 22.1159C31.5994 22.1272 31.5994 22.1384 31.5994 22.1496C31.5994 22.1608 31.5994 22.172 31.5994 22.1832C31.5994 22.1944 31.5994 22.2055 31.5994 22.2167C31.5994 22.2279 31.5994 22.239 31.5994 22.2502C31.5994 22.2613 31.5994 22.2724 31.5994 22.2835C31.5994 22.2947 31.5994 22.3058 31.5994 22.3169C31.5994 22.328 31.5994 22.3391 31.5994 22.3502C31.5994 22.3612 31.5994 22.3723 31.5994 22.3834C31.5994 22.3944 31.5994 22.4055 31.5994 22.4165C31.5994 22.4275 31.5994 22.4386 31.5994 22.4496C31.5994 22.4606 31.5994 22.4716 31.5994 22.4826C31.5994 22.4936 31.5994 22.5046 31.5994 22.5155C31.5994 22.5265 31.5994 22.5375 31.5994 22.5484C31.5994 22.5594 31.5994 22.5703 31.5994 22.5812C31.5994 22.5922 31.5994 22.6031 31.5994 22.614C31.5994 22.6249 31.5994 22.6358 31.5994 22.6467C31.5994 22.6575 31.5994 22.6684 31.5994 22.6793C31.5994 22.6901 31.5994 22.701 31.5994 22.7118C31.5994 22.7226 31.5994 22.7335 31.5994 22.7443C31.5994 22.7551 31.5994 22.7659 31.5994 22.7767C31.5994 22.7875 31.5994 22.7982 31.5994 22.809C31.5994 22.8198 31.5994 22.8305 31.5994 22.8412C31.5994 22.852 31.5994 22.8627 31.5994 22.8734C31.5994 22.8841 31.5994 22.8948 31.5994 22.9055C31.5994 22.9162 31.5994 22.9269 31.5994 22.9376C31.5994 22.9482 31.5994 22.9589 31.5994 22.9695C31.5994 22.9802 31.5994 22.9908 31.5994 23.0014C31.5994 23.012 31.5994 23.0226 31.5994 23.0332C31.5994 23.0438 31.5994 23.0544 31.5994 23.0649C31.5994 23.0755 31.5994 23.086 31.5994 23.0966C31.5994 23.1071 31.5994 23.1176 31.5994 23.1282C31.5994 23.1387 31.5994 23.1492 31.5994 23.1597C31.5994 23.1701 31.5994 23.1806 31.5994 23.1911C31.5994 23.2015 31.5994 23.212 31.5994 23.2224C31.5994 23.2328 31.5994 23.2433 31.5994 23.2537C31.5994 23.2641 31.5994 23.2745 31.5994 23.2848C31.5994 23.2952 31.5994 23.3056 31.5994 23.3159C31.5994 23.3263 31.5994 23.3366 31.5994 23.347C31.5994 23.3573 31.5994 23.3676 31.5994 23.3779C31.5994 23.3882 31.5994 23.3985 31.5994 23.4087C31.5994 23.419 31.5994 23.4293 31.5994 23.4395C31.5994 23.4497 31.5994 23.46 31.5994 23.4702C31.5994 23.4804 31.5994 23.4906 31.5994 23.5008C31.5994 23.511 31.5994 23.5211 31.5994 23.5313C31.5994 23.5414 31.5994 23.5516 31.5994 23.5617C31.5994 23.5718 31.5994 23.5819 31.5994 23.592C31.5994 23.6021 31.5994 23.6122 31.5994 23.6223C31.5994 23.6324 31.5994 23.6424 31.5994 23.6524C31.5994 23.6625 31.5994 23.6725 31.5994 23.6825C31.5994 23.6925 31.5994 23.7025 31.5994 23.7125C31.5994 23.7225 31.5994 23.7324 31.5994 23.7424C31.5994 23.7523 31.5994 23.7623 31.5994 23.7722C31.5994 23.7821 31.5994 23.792 31.5994 23.8019C31.5994 23.8118 31.5994 23.8217 31.5994 23.8315C31.5994 23.8414 31.5994 23.8512 31.5994 23.8611C31.5994 23.8709 31.5994 23.8807 31.5994 23.8905C31.5994 23.9003 31.5994 23.9101 31.5994 23.9198C31.5994 23.9296 31.5994 23.9393 31.5994 23.9491C31.5994 23.9588 31.5994 23.9685 31.5994 23.9782C31.5994 23.9879 31.5994 23.9976 31.5994 24.0073C31.5994 24.017 31.5994 24.0266 31.5994 24.0363C31.5994 24.0459 31.5994 24.0555 31.5994 24.0651C31.5994 24.0747 31.5994 24.0843 31.5994 24.0939C31.5994 24.1035 31.5994 24.113 31.5994 24.1226C31.5994 24.1321 31.5994 24.1416 31.5994 24.1511C31.5994 24.1606 31.5994 24.1701 31.5994 24.1796H35.5994ZM34.4938 8.34175L24.7113 3.45047L22.9224 7.02818L32.705 11.9195L34.4938 8.34175ZM19.0764 7.02818C20.287 6.4229 21.7119 6.4229 22.9224 7.02818L24.7113 3.45047C22.3746 2.28213 19.6242 2.28213 17.2875 3.45047L19.0764 7.02818Z" fill="url(#paint0_linear_2946_506)" mask="url(#path-1-inside-1_2946_506)"/>
</g>
<defs>
<filter id="filter0_d_2946_506" x="4.39941" y="4.57422" width="33.2002" height="40.8555" filterUnits="userSpaceOnUse" color-interpolation-filters="sRGB">
<feFlood flood-opacity="0" result="BackgroundImageFix"/>
<feColorMatrix in="SourceAlpha" type="matrix" values="0 0 0 0 0 0 0 0 0 0 0 0 0 0 0 0 0 0 127 0" result="hardAlpha"/>
<feOffset dy="4"/>
<feGaussianBlur stdDeviation="2"/>
<feComposite in2="hardAlpha" operator="out"/>
<feColorMatrix type="matrix" values="0 0 0 0 0 0 0 0 0 0 0 0 0 0 0 0 0 0 0.25 0"/>
<feBlend mode="normal" in2="BackgroundImageFix" result="effect1_dropShadow_2946_506"/>
<feBlend mode="normal" in="SourceGraphic" in2="effect1_dropShadow_2946_506" result="shape"/>
</filter>
<linearGradient id="paint0_linear_2946_506" x1="8.39941" y1="21.0024" x2="33.5994" y2="21.0024" gradientUnits="userSpaceOnUse">
<stop stop-color="#F4A21A"/>
<stop offset="0.5" stop-color="#FFDE00"/>
<stop offset="1" stop-color="#F4A21A"/>
</linearGradient>
</defs>
</svg>
