<svg width="57" height="53" viewBox="0 0 57 53" fill="none" xmlns="http://www.w3.org/2000/svg">
<g clip-path="url(#clip0_2893_182)">
<path d="M8.49408 16.3649C11.0705 14.155 13.6558 11.9384 16.2367 9.7263C15.1268 7.3649 15.2962 5.19286 17.1616 3.32602C18.6504 1.83567 20.926 1.48368 22.8316 2.33691C24.96 3.29038 25.9518 5.11934 25.856 7.98198C27.8106 8.69931 29.783 9.42555 31.7465 10.1451C34.5414 6.86589 37.7039 6.69658 40.4899 9.70625C41.5284 9.19832 42.5849 8.68149 43.6435 8.16688C44.6888 7.65673 45.7363 7.14881 46.8239 6.61861C46.4183 4.91439 46.6835 3.33939 47.7801 1.96042C48.5802 0.953484 49.6299 0.336402 50.9025 0.0891233C53.2694 -0.372017 55.75 0.995811 56.6438 3.27924C57.5598 5.62058 56.675 8.26268 54.5309 9.57927C52.4248 10.8714 49.5474 10.6107 47.6419 8.26268C47.5862 8.27604 47.5104 8.2805 47.4502 8.31169C45.5201 9.25179 43.5945 10.1963 41.6622 11.1298C41.3992 11.2567 41.2677 11.3704 41.3279 11.7068C41.7246 13.9033 41.0404 15.7211 39.2106 16.9954C37.4409 18.2273 35.5175 18.3008 33.6632 17.1959C31.751 16.0553 30.9263 14.3043 31.1626 12.0766C31.1693 12.0231 31.1626 11.9674 31.1626 11.8471C30.1975 11.4907 29.2169 11.1275 28.234 10.7666C27.2467 10.4035 26.2571 10.0426 25.2297 9.66838C24.3649 10.9872 23.2038 11.8716 21.637 12.1545C20.0835 12.4352 18.7062 12.0097 17.4336 11.0718C14.8393 13.2974 12.254 15.5117 9.682 17.7172C10.8811 21.012 10.1901 23.5026 7.72071 24.8972C5.55214 26.1224 2.74393 25.5944 1.18604 23.6697C-0.440935 21.6603 -0.37853 18.8912 1.32868 16.9464C2.79519 15.2756 5.72376 14.3667 8.50077 16.3694L8.49408 16.3649ZM55.2129 5.19063C55.2196 3.34607 53.713 1.81339 51.8809 1.80002C49.9843 1.78443 48.4531 3.26364 48.4309 5.12826C48.4086 6.97505 49.9509 8.55228 51.7918 8.56787C53.6416 8.58347 55.2062 7.03742 55.2129 5.19063ZM39.6452 12.785C39.6541 10.8959 38.1586 9.37877 36.2887 9.37209C34.4277 9.3654 32.8876 10.9025 32.8899 12.7605C32.8899 14.5961 34.4032 16.1266 36.2374 16.1444C38.1118 16.1644 39.6385 14.6585 39.6452 12.7827V12.785ZM5.15989 17.0199C3.2766 17.0266 1.77443 18.5414 1.7878 20.4172C1.80118 22.2551 3.31672 23.7566 5.16657 23.7655C7.03426 23.7744 8.57209 22.2462 8.56986 20.386C8.56986 18.5147 7.04763 17.0132 5.16211 17.0221L5.15989 17.0199ZM17.3555 7.08421C17.3645 8.93322 18.8644 10.4392 20.7098 10.4525C22.5552 10.4659 24.1153 8.91317 24.1175 7.06193C24.1198 5.19954 22.5931 3.68691 20.7143 3.68691C18.8287 3.68691 17.3466 5.1884 17.3555 7.08421Z" fill="#FFDE00"/>
<path d="M47.2012 34.983C47.2012 29.8124 47.2012 24.6441 47.2012 19.4735C47.2012 17.8963 48.0615 17.0252 49.6283 17.0208C51.1304 17.0163 52.6326 17.0119 54.1348 17.0208C55.5567 17.0297 56.4415 17.9341 56.4415 19.3666C56.4415 29.7812 56.4415 40.1937 56.4415 50.6083C56.4415 52.0697 55.55 52.9719 54.1013 52.9764C52.617 52.9808 51.1349 52.9786 49.6506 52.9764C48.0793 52.9764 47.2012 52.1076 47.2012 50.5482C47.2012 45.3598 47.2012 40.1714 47.2012 34.983ZM48.9886 34.9429C48.9886 40.1135 48.9886 45.2818 48.9886 50.4524C48.9886 51.1185 49.0599 51.1897 49.7219 51.1897C51.1505 51.1897 52.5769 51.1786 54.0055 51.1964C54.4869 51.2031 54.663 51.0115 54.663 50.537C54.6563 40.1781 54.6563 29.8213 54.663 19.4624C54.663 18.9901 54.4892 18.7963 54.0077 18.8007C52.617 18.8163 51.2263 18.8052 49.8355 18.8074C49.0131 18.8074 48.9864 18.8319 48.9864 19.654C48.9864 24.7488 48.9864 29.8458 48.9864 34.9407L48.9886 34.9429Z" fill="#FFDE00"/>
<path d="M16.1182 35.9085C16.1182 31.0921 16.1182 26.2735 16.1182 21.4572C16.1182 19.7084 16.9183 18.9064 18.659 18.902C20.0876 18.8997 21.514 18.8953 22.9426 18.902C24.4693 18.9109 25.3541 19.7931 25.3541 21.3235C25.3586 31.0698 25.3586 40.8162 25.3541 50.5603C25.3541 52.0907 24.4559 52.9707 22.9337 52.9729C21.5251 52.9729 20.1099 52.9061 18.708 52.9907C17.1523 53.0865 16.0781 52.0194 16.0959 50.411C16.1561 45.5768 16.1182 40.7404 16.1182 35.904V35.9085ZM17.9101 35.8907C17.9101 40.7449 17.9101 45.5991 17.9101 50.4534C17.9101 51.1417 17.9591 51.1907 18.63 51.193C19.9828 51.193 21.3379 51.193 22.6908 51.193C23.5265 51.193 23.5577 51.1618 23.5577 50.3108C23.5577 44.7348 23.5577 39.1565 23.5577 33.5805C23.5577 29.5416 23.5577 25.5027 23.5577 21.4639C23.5577 20.7644 23.4886 20.6975 22.7955 20.6953C21.4605 20.6931 20.1255 20.6953 18.7905 20.6953C18.2036 20.6953 17.9101 20.9804 17.9101 21.5507C17.9101 26.3315 17.9101 31.1099 17.9101 35.8907Z" fill="#FFDE00"/>
<path d="M40.879 38.7922C40.879 42.6818 40.879 46.5737 40.879 50.4633C40.879 52.1564 40.0544 52.974 38.3516 52.9762C36.9052 52.9784 35.4587 52.9829 34.0123 52.9762C32.5569 52.9673 31.6476 52.0784 31.6454 50.6215C31.6364 42.7286 31.6364 34.8358 31.6454 26.9429C31.6454 25.486 32.5658 24.5993 34.0212 24.5971C35.5234 24.5926 37.0255 24.5926 38.5277 24.5971C39.992 24.6015 40.8723 25.477 40.8746 26.954C40.8812 30.8993 40.8746 34.8469 40.8768 38.7922H40.879ZM39.0871 38.8434C39.0871 34.9338 39.0871 31.0241 39.0871 27.1144C39.0871 26.4372 39.0314 26.3837 38.3561 26.3815C36.9475 26.3815 35.5367 26.3949 34.1282 26.3726C33.6178 26.3637 33.435 26.5642 33.435 27.0587C33.4417 34.8781 33.4417 42.6974 33.435 50.5145C33.435 51.0113 33.62 51.2051 34.1304 51.1962C35.5211 51.1717 36.9119 51.1895 38.3026 51.1873C39.0604 51.1873 39.0893 51.1606 39.0893 50.4032C39.0893 46.5492 39.0893 42.6952 39.0893 38.8412L39.0871 38.8434Z" fill="#FFDE00"/>
<path d="M9.79839 42.6225C9.79839 45.2713 9.79839 47.9201 9.79839 50.5689C9.79839 52.0949 8.91804 52.9726 7.38466 52.9793C5.88249 52.986 4.38255 52.9882 2.88038 52.9793C1.45622 52.9681 0.562494 52.0659 0.560265 50.6468C0.558037 45.2758 0.558037 39.9047 0.560265 34.5314C0.560265 33.1725 1.44062 32.2524 2.80238 32.2302C4.3781 32.2034 5.95381 32.2057 7.52953 32.2302C8.92026 32.2502 9.79616 33.168 9.79839 34.5671C9.80285 37.2537 9.79839 39.9381 9.79839 42.6248V42.6225ZM2.34326 42.5379C2.34326 45.1867 2.35217 47.8354 2.33657 50.4842C2.33434 51.0122 2.52156 51.206 3.05422 51.1971C4.48062 51.1726 5.90924 51.1748 7.33563 51.1971C7.84601 51.2038 8.02208 51.0033 8.01986 50.5065C8.01094 45.2468 8.00871 39.9871 8.01986 34.7275C8.01986 34.195 7.82595 34.0034 7.29997 34.0123C5.89141 34.0324 4.48285 34.0168 3.07428 34.0213C2.41458 34.0213 2.34326 34.097 2.34326 34.7609C2.34326 37.3539 2.34326 39.947 2.34326 42.5401V42.5379Z" fill="#FFDE00"/>
</g>
<defs>
<clipPath id="clip0_2893_182">
<rect width="57" height="53" fill="white"/>
</clipPath>
</defs>
</svg>
