<svg width="18" height="18" viewBox="0 0 18 18" fill="none" xmlns="http://www.w3.org/2000/svg">
  <path d="M8.70222 4.98568C8.40758 4.63211 7.88211 4.58434 7.52855 4.87898C7.17498 5.17362 7.12721 5.69909 7.42185 6.05265L8.70222 4.98568ZM10.8242 8.83375L11.4644 9.36724C11.7219 9.0582 11.7219 8.6093 11.4644 8.30026L10.8242 8.83375ZM7.42185 11.6149C7.12721 11.9684 7.17498 12.4939 7.52855 12.7885C7.88211 13.0832 8.40758 13.0354 8.70222 12.6818L7.42185 11.6149ZM7.42185 6.05265L10.184 9.36724L11.4644 8.30026L8.70222 4.98568L7.42185 6.05265ZM10.184 8.30026L7.42185 11.6149L8.70222 12.6818L11.4644 9.36724L10.184 8.30026ZM9 2.33333C12.6819 2.33333 15.6667 5.3181 15.6667 9L17.3333 9C17.3333 4.39763 13.6024 0.666666 9 0.666667L9 2.33333ZM15.6667 9C15.6667 12.6819 12.6819 15.6667 9 15.6667L9 17.3333C13.6024 17.3333 17.3333 13.6024 17.3333 9L15.6667 9ZM9 15.6667C5.3181 15.6667 2.33333 12.6819 2.33333 9L0.666667 9C0.666667 13.6024 4.39763 17.3333 9 17.3333L9 15.6667ZM2.33333 9C2.33333 5.3181 5.3181 2.33333 9 2.33333L9 0.666667C4.39763 0.666667 0.666666 4.39763 0.666667 9L2.33333 9Z" fill="#FFDE00" />
</svg>