<svg width="26" height="15" viewBox="0 0 26 15" fill="currentColor" xmlns="http://www.w3.org/2000/svg">
	<path
		d="M14.0551 14.2761C14.0551 14.2761 14.5171 14.2257 14.7538 13.9762C14.9704 13.7476 14.9629 13.3162 14.9629 13.3162C14.9629 13.3162 14.9341 11.3018 15.8869 11.0043C16.826 10.7118 18.0318 12.9524 19.3114 13.814C20.278 14.4654 21.0117 14.3228 21.0117 14.3228L24.4312 14.2761C24.4312 14.2761 26.2192 14.1679 25.3715 12.7877C25.3014 12.6746 24.877 11.7664 22.8298 9.90065C20.6849 7.94768 20.9729 8.26355 23.5548 4.88488C25.1274 2.82744 25.7559 1.57135 25.5594 1.03425C25.3728 0.520507 24.2159 0.656932 24.2159 0.656932L20.3669 0.680284C20.3669 0.680284 20.0814 0.642183 19.8698 0.766318C19.6632 0.887994 19.5293 1.17191 19.5293 1.17191C19.5293 1.17191 18.9207 2.76353 18.1081 4.11795C16.394 6.97427 15.7091 7.12544 15.4286 6.94846C14.7763 6.53427 14.9391 5.28678 14.9391 4.40063C14.9391 1.63157 15.3673 0.47749 14.1064 0.17883C13.6882 0.0792765 13.3802 0.0141367 12.3097 0.00307514C10.9361 -0.0104445 9.77418 0.00799137 9.11557 0.323858C8.67734 0.534027 8.33927 1.00353 8.54587 1.03056C8.80005 1.06375 9.37601 1.18297 9.68152 1.59101C10.0759 2.11828 10.0622 3.30063 10.0622 3.30063C10.0622 3.30063 10.2888 6.56008 9.53252 6.96444C9.01415 7.2422 8.30296 6.67561 6.77415 4.08353C5.99159 2.75616 5.4006 1.28867 5.4006 1.28867C5.4006 1.28867 5.28666 1.01459 5.08257 0.8671C4.83591 0.688887 4.49158 0.63358 4.49158 0.63358L0.834204 0.656932C0.834204 0.656932 0.284534 0.671681 0.0829463 0.90643C-0.0961036 1.11414 0.0691732 1.54554 0.0691732 1.54554C0.0691732 1.54554 2.93272 8.12221 6.17565 11.437C9.14938 14.4752 12.525 14.2761 12.525 14.2761H14.0551Z"
		fill="currentColor" />
</svg>
	