<svg width="58" height="62" viewBox="0 0 58 62" fill="none" xmlns="http://www.w3.org/2000/svg">
<g clip-path="url(#clip0_2893_198)">
<path d="M34.0058 45.9688C34.5809 49.0971 35.1378 52.1142 35.6999 55.1649C36.3708 55.1649 36.995 55.1649 37.6167 55.1649C39.2046 55.1726 40.2977 56.2206 40.3417 57.8171C40.3676 58.7434 40.3521 59.6698 40.3469 60.5935C40.3417 61.626 39.9739 61.996 38.9378 61.9986C35.446 62.0037 31.9517 61.9986 28.4599 61.9986C25.3541 61.9986 22.2509 61.9986 19.1451 61.9986C17.9717 61.9986 17.6298 61.6596 17.6246 60.5107C17.622 59.6491 17.6142 58.7874 17.6246 57.9258C17.6505 56.2128 18.7229 55.1649 20.4351 55.1623C21.422 55.1623 22.4115 55.1623 23.4476 55.1623C24.0097 52.1038 24.5641 49.0867 25.1391 45.9662H24.3361C17.6298 45.9662 10.926 45.9662 4.21964 45.9662C1.5542 45.9688 0 44.4214 0 41.7718C0 29.2377 0 16.7063 0 4.17485C0 1.57179 1.56715 0.00115002 4.18597 0.00115002C20.7226 0.00115002 37.2593 -0.00143752 53.7985 0.00115002C56.4173 0.00115002 57.9715 1.5692 57.9715 4.18779C57.9715 16.5045 57.9352 28.8211 58 41.1378C58.013 43.7564 56.1894 46.0153 53.1639 45.9843C47.0636 45.9248 40.9608 45.9662 34.858 45.9662C34.6042 45.9662 34.3477 45.9662 34.0084 45.9662L34.0058 45.9688ZM55.8967 33.9264V33.2122C55.8967 23.5426 55.8967 13.8729 55.8967 4.20331C55.8967 2.72842 55.2517 2.08412 53.7622 2.08153C37.2437 2.08153 20.7252 2.08153 4.20669 2.08153C2.71725 2.08153 2.07226 2.72583 2.07226 4.20072C2.07226 13.8704 2.07226 23.54 2.07226 33.2096V33.9264H55.8967ZM2.07744 36.0611C2.07744 38.157 2.05154 40.1804 2.10075 42.2013C2.11112 42.5894 2.34684 43.0241 2.59551 43.345C3.01773 43.8884 3.67567 43.8884 4.31289 43.8884C20.5879 43.8884 36.8603 43.8884 53.1354 43.8884C53.2649 43.8884 53.3944 43.891 53.5239 43.8884C54.9564 43.8366 55.8889 42.8922 55.8967 41.4561C55.907 40.0148 55.8967 38.571 55.8967 37.1297C55.8967 36.7727 55.8967 36.4182 55.8967 36.0637H2.07744V36.0611ZM33.5188 55.1364C33.5188 55.0226 33.5292 54.9579 33.5188 54.8958C32.9982 52.0262 32.4827 49.154 31.9361 46.2896C31.9102 46.1551 31.6098 45.9895 31.4336 45.9843C30.2058 45.9584 28.9806 45.9791 27.7528 45.9636C27.3901 45.9584 27.2321 46.0541 27.1648 46.4475C26.8539 48.2665 26.4964 50.0752 26.1649 51.8916C25.968 52.9603 25.7867 54.0315 25.5898 55.139H33.5214L33.5188 55.1364ZM38.2643 59.8949C38.2643 59.2894 38.2643 58.7538 38.2643 58.2208C38.2617 57.3281 38.1633 57.2323 37.2567 57.2323C31.7419 57.2323 26.2245 57.2323 20.7097 57.2323C20.5594 57.2323 20.3781 57.1806 20.2641 57.2478C20.0647 57.3643 19.7668 57.5402 19.7538 57.711C19.6968 58.4278 19.7305 59.1549 19.7305 59.8949H38.2643Z" fill="#FFDE00"/>
<path d="M42.3318 23.8935C42.3318 25.2054 42.4639 26.5328 42.3007 27.8214C42.0261 29.9949 40.1145 31.4414 37.8531 31.3896C35.7938 31.343 33.9055 29.7155 33.776 27.617C33.6283 25.2571 33.6931 22.8844 33.6982 20.5168C33.6982 19.8388 34.1516 19.4455 34.7551 19.4585C35.3586 19.4688 35.755 19.8673 35.7602 20.5633C35.7783 22.5868 35.7601 24.6128 35.7757 26.6363C35.7783 27.04 35.8042 27.4643 35.9285 27.8421C36.2704 28.8849 37.3325 29.48 38.4411 29.3118C39.5291 29.1462 40.3295 28.1836 40.3424 26.9597C40.3632 25.0657 40.3476 23.169 40.3476 21.2749C40.3476 21.0809 40.3476 20.8868 40.3476 20.6927C40.358 19.8828 40.7491 19.4067 41.3915 19.4222C42.0261 19.4378 42.4199 19.9242 42.4251 20.729C42.4328 21.7847 42.4251 22.8404 42.4251 23.8935H42.3266H42.3318Z" fill="#FFDE00"/>
<path d="M16.4538 9.15586C16.4538 10.2944 16.573 11.4484 16.4279 12.5662C16.1741 14.5431 14.4438 15.8369 12.3819 15.7593C10.5453 15.692 8.89786 14.2093 8.79425 12.3308C8.68286 10.2918 8.7269 8.24505 8.74244 6.2009C8.74762 5.52814 9.20352 5.13483 9.80448 5.15294C10.3899 5.17106 10.7966 5.57989 10.8069 6.27076C10.8302 7.99147 10.8095 9.71477 10.8251 11.4355C10.8277 11.7977 10.8406 12.1755 10.9468 12.5171C11.1851 13.2778 11.9337 13.7332 12.7574 13.6892C13.532 13.6478 14.1951 13.1096 14.3712 12.3411C14.4386 12.0513 14.4619 11.746 14.4645 11.4458C14.4722 9.78981 14.4645 8.1312 14.4697 6.47518C14.4697 5.58765 14.8297 5.14259 15.5136 5.15294C16.1819 5.16329 16.5445 5.63164 16.5497 6.50881C16.5549 7.39116 16.5497 8.27351 16.5497 9.15586H16.4564H16.4538Z" fill="#FFDE00"/>
<path d="M20.6546 12.49C20.1417 13.2818 19.6702 14.0218 19.1858 14.7515C18.7584 15.3984 18.1912 15.5743 17.6601 15.2431C17.1032 14.8938 17.0255 14.2961 17.4581 13.6104C18.0332 12.7021 18.6341 11.8069 19.1858 10.8857C19.2843 10.7201 19.2843 10.3915 19.1858 10.2259C18.5875 9.23226 17.9399 8.26452 17.3208 7.28126C16.909 6.63178 16.9893 6.047 17.5125 5.69509C18.0332 5.34578 18.6263 5.51138 19.046 6.14533C19.577 6.94746 20.0951 7.75736 20.6597 8.62936C21.1908 7.80653 21.6777 7.05096 22.1647 6.29282C22.7735 5.35095 23.2889 5.11031 23.9028 5.4855C24.5142 5.8607 24.5142 6.49723 23.8977 7.45203C23.3122 8.35508 22.7398 9.2659 22.1388 10.1586C21.9394 10.4536 21.9445 10.6683 22.144 10.9607C22.7683 11.8897 23.3666 12.8341 23.9676 13.7786C24.3976 14.4565 24.3328 15.0775 23.8044 15.4242C23.2553 15.7839 22.688 15.6054 22.2373 14.9223C21.7192 14.1331 21.2089 13.3387 20.6572 12.49H20.6546Z" fill="#FFDE00"/>
<path d="M39.7493 13.5441C41.9018 13.5441 44.0544 13.5415 46.207 13.5441C47.0229 13.5441 47.4866 13.9297 47.484 14.5791C47.4814 15.2183 46.997 15.6167 46.194 15.6167C41.8889 15.6193 37.5812 15.6193 33.276 15.6167C32.4653 15.6167 31.9835 15.2338 31.9653 14.5972C31.9472 13.9322 32.4264 13.5441 33.289 13.5441C35.4416 13.5415 37.5941 13.5441 39.7467 13.5441H39.7493Z" fill="#FFDE00"/>
<path d="M16.6065 23.7653C14.4747 23.7653 12.3429 23.7653 10.211 23.7653C9.34327 23.7653 8.89255 23.3927 8.91068 22.6993C8.92622 22.0395 9.36399 21.6953 10.2084 21.6953C14.4928 21.6953 18.7772 21.6953 23.0616 21.6953C23.9216 21.6953 24.3853 22.0757 24.3672 22.7588C24.3516 23.4134 23.9035 23.7628 23.0642 23.7628C20.9117 23.7628 18.7591 23.7628 16.604 23.7628L16.6065 23.7653Z" fill="#FFDE00"/>
<path d="M39.705 9.05826C38.0446 9.05826 36.3842 9.06085 34.7238 9.05826C33.9 9.05826 33.4415 8.67789 33.4493 8.02583C33.4571 7.38671 33.9363 6.98564 34.7445 6.98306C38.0653 6.97788 41.3861 6.98306 44.7069 6.98047C45.2405 6.98047 45.7119 7.12278 45.9088 7.66617C46.0642 8.09829 46.0072 8.55369 45.5928 8.82021C45.3596 8.97029 45.0358 9.04532 44.7509 9.04791C43.0698 9.06861 41.3861 9.05826 39.705 9.05826Z" fill="#FFDE00"/>
<path d="M16.5997 29.7537C14.8952 29.7537 13.1934 29.7641 11.489 29.7486C10.6678 29.7408 10.2197 29.2621 10.3207 28.5609C10.401 27.9864 10.8051 27.6759 11.5485 27.6734C13.3825 27.663 15.2138 27.6708 17.0478 27.6708C18.558 27.6708 20.0655 27.663 21.5757 27.6734C22.415 27.6785 22.8786 28.1184 22.819 28.8119C22.7698 29.4018 22.3735 29.7434 21.6456 29.7486C19.9645 29.7615 18.2808 29.7537 16.5997 29.7537Z" fill="#FFDE00"/>
<path d="M45.7346 25.4463C45.7346 27.0376 45.7346 28.6264 45.7346 30.2177C45.7346 30.7818 45.561 31.2424 44.9523 31.395C44.2374 31.5736 43.6779 31.1078 43.6546 30.285C43.6287 29.3819 43.6468 28.4789 43.6468 27.5758C43.6468 25.3842 43.6468 23.19 43.6468 20.9983C43.6468 20.7836 43.6416 20.5662 43.6727 20.3566C43.7634 19.777 44.1934 19.4044 44.727 19.4225C45.2683 19.4406 45.6906 19.821 45.7113 20.4161C45.7476 21.4899 45.7294 22.5638 45.7346 23.6402C45.7346 24.2431 45.7346 24.8434 45.7346 25.4463Z" fill="#FFDE00"/>
<path d="M28.9848 38.3656C29.9769 38.3656 30.9664 38.3604 31.9585 38.3656C32.7201 38.3708 33.1682 38.7615 33.1682 39.4006C33.1682 40.0397 32.7227 40.433 31.9611 40.4356C29.9795 40.4408 27.9979 40.4408 26.0137 40.4356C25.247 40.4356 24.8066 40.0475 24.8066 39.4058C24.8066 38.7615 25.247 38.3733 26.0111 38.3682C27.0032 38.3604 27.9927 38.3682 28.9848 38.3682V38.3656Z" fill="#FFDE00"/>
</g>
<defs>
<clipPath id="clip0_2893_198">
<rect width="58" height="62" fill="white"/>
</clipPath>
</defs>
</svg>
