<svg width="62" height="62" viewBox="0 0 62 62" fill="none" xmlns="http://www.w3.org/2000/svg">
  <path d="M32.4601 27.6202V48.4202H28.5801V26.1602L32.4601 27.6202Z" fill="currentColor" />
  <path
    d="M16.96 25.6809C16.96 20.3609 19.86 17.4609 23.26 17.4609C26.66 17.4609 27.14 17.9409 31 19.8809C34.86 21.8209 35.84 22.3009 37.78 22.3009C39.72 22.3009 40.68 20.8409 40.68 17.9409H44.06C44.54 23.7409 41.16 26.1609 37.76 26.1609C34.36 26.1609 33.4 25.6809 30.02 23.7409C26.64 21.8009 25.66 21.3209 23.72 21.3209C21.78 21.3209 20.82 22.7809 20.34 26.1609L16.96 25.6809Z"
    fill="currentColor" />
  <path
    d="M31 61C14.46 61 1 47.54 1 31C1 14.46 14.46 1 31 1C47.54 1 61 14.46 61 31C61 47.54 47.54 61 31 61ZM31 2.94C15.52 2.94 2.94 15.52 2.94 31C2.94 46.48 15.52 59.06 31 59.06C46.48 59.06 59.06 46.48 59.06 31C59.06 15.52 46.48 2.94 31 2.94Z"
    fill="currentColor" stroke="black" />
</svg>
  