<svg width="30" height="30" viewBox="0 0 30 30" fill="none" xmlns="http://www.w3.org/2000/svg">
	<path
		d="M8.17857 2.05292C8.48215 2.02646 8.74236 2.1032 8.91073 2.39162C9.28829 3.02667 9.6684 3.66172 10.0281 4.31265C10.4439 5.06413 10.8266 5.83677 11.2347 6.59619C11.3393 6.79994 11.4848 6.98516 11.6072 7.18097C11.7194 7.36619 11.8266 7.55671 11.9312 7.74193C12.1455 8.16265 12.1353 8.58602 11.8164 8.92207C11.3623 9.40365 10.8623 9.85083 10.3801 10.3086C9.97707 10.6923 9.5587 11.0601 9.16584 11.4517C8.85971 11.7586 8.78063 12.1423 8.98726 12.5472C9.30614 13.1663 9.62248 13.7855 9.97197 14.3915C11.2679 16.6327 12.9236 18.5378 15.0154 20.0064C15.8216 20.5753 16.6609 21.0965 17.5078 21.594C18.3063 22.0624 18.6175 21.983 19.2374 21.2659C19.814 20.6017 20.3701 19.927 20.9441 19.2575C21.0819 19.0961 21.2477 18.9532 21.4084 18.8156C21.7349 18.5299 22.0921 18.4981 22.4671 18.6939C22.5717 18.7469 22.6839 18.7945 22.7758 18.8633C23.7707 19.6015 24.8829 20.1228 25.934 20.7499C26.4978 21.086 27.0462 21.4458 27.5998 21.7898C27.8983 21.9724 28.0182 22.2396 27.9978 22.6074C27.9417 23.642 27.7758 24.6581 27.1968 25.5313C26.9544 25.8938 26.61 26.2114 26.2631 26.468C25.3013 27.1666 24.2273 27.5979 23.0844 27.8625C22.0462 28.1033 21.0104 28.016 20.0155 27.6931C18.0946 27.0793 16.2017 26.3754 14.4593 25.3091C12.8776 24.338 11.4388 23.1658 10.1072 21.856C8.42093 20.1916 6.9158 18.3764 5.69894 16.3098C4.90556 14.9683 4.33922 13.5235 3.82646 12.0497C3.51523 11.1606 3.2091 10.2795 3.07135 9.3375C2.91318 8.27114 3.02287 7.24447 3.35196 6.23368C3.64789 5.32079 4.01779 4.4476 4.57647 3.66701C5.01526 3.06107 5.56373 2.61653 6.27293 2.41808C6.84182 2.26196 7.41581 2.13759 7.98724 2C8.06123 2.06086 8.1199 2.06086 8.17857 2.05292Z"
		fill="url(#paint0_linear_978_6)" />
	<defs>
		<linearGradient id="paint0_linear_978_6" x1="3" y1="15" x2="28" y2="15"
			gradientUnits="userSpaceOnUse">
			<stop stop-color="#F4A21A" />
			<stop offset="0.5" stop-color="#FFDE00" />
			<stop offset="1" stop-color="#F4A21A" />
		</linearGradient>
	</defs>
</svg>
	