<svg
	xmlns="http://www.w3.org/2000/svg"

	viewBox="0 0 24 24"
	fill="none"
>
	<path
		d="M22.2438 10.625L20.25 8.63262V3.75C20.25 2.99375 19.6312 2.375 18.875 2.375H17.5C16.7437 2.375 16.125 2.99375 16.125 3.75V4.51037L13.375 1.76312C12.9996 1.40838 12.6559 1 12 1C11.3441 1 11.0004 1.40838 10.625 1.76312L1.75625 10.625C1.32725 11.0719 1 11.3977 1 12C1 12.7741 1.594 13.375 2.375 13.375H3.75V21.625C3.75 22.3812 4.36875 23 5.125 23H7.875C8.63439 23 9.25 22.3844 9.25 21.625V16.125C9.25 15.3687 9.86875 14.75 10.625 14.75H13.375C14.1312 14.75 14.75 15.3687 14.75 16.125V21.625C14.75 22.3844 14.6781 23 15.4375 23H18.875C19.6312 23 20.25 22.3812 20.25 21.625V13.375H21.625C22.406 13.375 23 12.7741 23 12C23 11.3977 22.6728 11.0719 22.2438 10.625Z"
		strokeWidth="1"
		stroke="currentColor"
		strokeLinejoin="round"
	/>
</svg>