<svg width="30" height="30" viewBox="0 0 30 30" fill="none" xmlns="http://www.w3.org/2000/svg">
	<path
		d="M11.493 24.5642C10.6618 24.5642 10.803 24.2706 10.5164 23.5303L8.07227 16.0055L26.8861 5.56445"
		fill="#1E96C8" />
	<path
		d="M11.4922 24.5629C12.1336 24.5629 12.4169 24.2885 12.7749 23.9629L16.1956 20.8513L11.9288 18.4443"
		fill="#1182B1" />
	<path
		d="M11.9294 18.4458L22.2684 25.5915C23.4482 26.2004 24.2997 25.8852 24.5936 24.5668L28.8021 6.01442C29.233 4.3984 28.1436 3.66545 27.015 4.14481L2.30261 13.0589C0.615757 13.6918 0.625591 14.5722 1.99513 14.9645L8.33687 16.8161L23.0187 8.15122C23.7118 7.75804 24.3479 7.96942 23.8258 8.40289"
		fill="url(#paint0_linear_4035_70)" />
	<defs>
		<linearGradient id="paint0_linear_4035_70" x1="12.9851" y1="15.038" x2="15.4104" y2="23.4242"
			gradientUnits="userSpaceOnUse">
			<stop stop-color="#37AEE2" />
			<stop offset="1" stop-color="#6FCDF6" />
		</linearGradient>
	</defs>
</svg>
	