<svg width="18" height="20" viewBox="0 0 18 20" fill="none" xmlns="http://www.w3.org/2000/svg">
	<path
		d="M1.70614 14.6439L1.28936 14.3677L1.28936 14.3677L1.70614 14.6439ZM2.71875 11.2473L2.21875 11.2532L2.21888 11.2588L2.71875 11.2473ZM2.69495 9.20825L3.19495 9.20241L3.19482 9.1968L2.69495 9.20825ZM16.5077 14.3215L16.9171 14.0344L16.9171 14.0344L16.5077 14.3215ZM15.3813 10.9574L14.8813 10.963L14.8815 10.9689L15.3813 10.9574ZM15.3599 9.01937L15.8599 9.01383L15.8597 9.00793L15.3599 9.01937ZM6.99125 17.8083C6.77125 17.6414 6.45761 17.6845 6.29072 17.9045C6.12384 18.1245 6.1669 18.4381 6.38691 18.605L6.99125 17.8083ZM12.0069 18.4763C12.2191 18.2996 12.2477 17.9843 12.0709 17.7721C11.8942 17.56 11.5789 17.5313 11.3667 17.7081L12.0069 18.4763ZM0.40241 4.39672C0.310231 4.65703 0.446522 4.94277 0.706825 5.03495C0.967128 5.12713 1.25287 4.99084 1.34505 4.73053L0.40241 4.39672ZM3.86878 1.54981C4.10569 1.40794 4.18273 1.10088 4.04086 0.863965C3.89899 0.627053 3.59193 0.550007 3.35502 0.691877L3.86878 1.54981ZM14.1989 0.455474C13.9571 0.321946 13.653 0.409646 13.5194 0.651358C13.3859 0.893071 13.4736 1.19726 13.7153 1.33079L14.1989 0.455474ZM16.4042 4.37176C16.5056 4.62863 16.796 4.75469 17.0529 4.65333C17.3097 4.55197 17.4358 4.26156 17.3344 4.0047L16.4042 4.37176ZM2.12292 14.9202C2.69939 14.0503 3.25376 12.7708 3.21862 11.2359L2.21888 11.2588C2.24816 12.5375 1.78551 13.6191 1.28936 14.3677L2.12292 14.9202ZM3.21871 11.2415L3.19492 9.20241L2.19499 9.21408L2.21878 11.2532L3.21871 11.2415ZM16.9171 14.0344C16.4082 13.3087 15.9108 12.24 15.8812 10.946L14.8815 10.9689C14.9167 12.5079 15.5067 13.7648 16.0983 14.6085L16.9171 14.0344ZM15.8813 10.9519L15.8598 9.01383L14.8599 9.02491L14.8814 10.963L15.8813 10.9519ZM15.8597 9.00793C15.7664 4.93052 12.65 1.61876 8.81151 1.70664L8.8344 2.70638C12.0404 2.63298 14.7774 5.42167 14.86 9.03081L15.8597 9.00793ZM16.1591 15.7748C16.6409 15.7638 16.9239 15.3924 17.033 15.0929C17.1445 14.7864 17.1525 14.3702 16.9171 14.0344L16.0983 14.6085C16.0976 14.6076 16.1057 14.6189 16.108 14.6497C16.1103 14.6807 16.1054 14.7175 16.0933 14.7509C16.0807 14.7854 16.0671 14.7985 16.0681 14.7977C16.0727 14.7935 16.0975 14.776 16.1362 14.7751L16.1591 15.7748ZM3.19482 9.1968C3.11347 5.64345 5.67951 2.77861 8.8344 2.70638L8.81151 1.70664C5.02418 1.79335 2.10301 5.19808 2.19508 9.21969L3.19482 9.1968ZM2.09346 15.0966C2.13339 15.0957 2.15926 15.1128 2.16349 15.1164C2.16376 15.1166 2.14872 15.1027 2.13417 15.0668C2.12007 15.032 2.11366 14.9937 2.11497 14.9614C2.11627 14.9295 2.12418 14.9183 2.12292 14.9202L1.28936 14.3677C1.05925 14.7149 1.08401 15.1376 1.20722 15.442C1.32731 15.7387 1.62709 16.1075 2.11635 16.0963L2.09346 15.0966ZM16.1362 14.7751L2.09346 15.0966L2.11635 16.0963L16.1591 15.7748L16.1362 14.7751ZM9.19592 18.4976C8.34714 18.517 7.575 18.2511 6.99125 17.8083L6.38691 18.605C7.1536 19.1866 8.14758 19.5219 9.21881 19.4973L9.19592 18.4976ZM11.3667 17.7081C10.8039 18.1771 10.0447 18.4782 9.19592 18.4976L9.21881 19.4973C10.29 19.4728 11.2676 19.0924 12.0069 18.4763L11.3667 17.7081ZM1.34505 4.73053C1.82482 3.37573 2.70924 2.24418 3.86878 1.54981L3.35502 0.691877C1.97569 1.51786 0.951579 2.84593 0.40241 4.39672L1.34505 4.73053ZM13.7153 1.33079C14.926 1.99961 15.8881 3.06381 16.4042 4.37176L17.3344 4.0047C16.7299 2.47278 15.6055 1.23254 14.1989 0.455474L13.7153 1.33079Z"
		fill="url(#paint0_linear_978_1037)" />
	<path
		d="M7.59668 7.6582V6.88184C7.75944 6.88184 7.9043 6.86556 8.03125 6.83301C8.1582 6.7972 8.26074 6.75651 8.33887 6.71094C8.41699 6.66211 8.48698 6.59538 8.54883 6.51074C8.61393 6.42285 8.66276 6.34473 8.69531 6.27637C8.72786 6.20475 8.7653 6.11198 8.80762 5.99805H9.5498V13H8.44629V7.6582H7.59668Z"
		fill="#FFDE00" />
	<defs>
		<linearGradient id="paint0_linear_978_1037" x1="1.73732" y1="1.16376" x2="19.0438" y2="16.775"
			gradientUnits="userSpaceOnUse">
			<stop stop-color="#FFDE00" />
			<stop offset="1" stop-color="#FF7A00" />
		</linearGradient>
	</defs>
</svg>
	