<svg width="62" height="62" viewBox="0 0 62 62" fill="none" xmlns="http://www.w3.org/2000/svg">
<g clip-path="url(#clip0_2893_191)">
<path d="M61.0138 9.37516C60.9823 11.0187 60.1802 12.89 58.6246 14.4463C54.8009 18.2666 50.9821 22.0893 47.1609 25.9096C36.9814 36.0907 26.802 46.2741 16.6055 56.4406C16.2299 56.8163 15.6969 57.112 15.1832 57.2623C11.0372 58.4816 6.87918 59.6573 2.72597 60.8451C2.62905 60.8717 2.52728 60.8839 2.4352 60.9227C2.00146 61.0948 1.53138 61.0972 1.28665 60.7045C1.10249 60.4063 1.01284 59.9336 1.10491 59.5991C1.9845 56.38 2.91255 53.173 3.82606 49.9635C3.99568 49.3648 4.23557 48.7757 4.33491 48.1673C4.58934 46.6013 5.44954 45.462 6.5569 44.3591C20.2281 30.7335 33.8629 17.0764 47.5098 3.43381C50.5993 0.345567 55.1208 0.144371 58.3702 2.9393C60.0276 4.36222 61.0138 6.55841 61.0114 9.37516H61.0138ZM39.7583 14.1845C29.1911 24.7509 18.5973 35.3465 8.0035 45.9396C9.89352 46.4995 11.6212 47.4934 13.0726 48.9478C14.5241 50.3998 15.503 52.133 16.0821 54.0432C26.6929 43.4307 37.2892 32.8327 47.8466 22.2711C45.1691 19.5925 42.4358 16.8582 39.7607 14.1845H39.7583ZM54.263 15.9759C55.3461 14.9117 56.468 13.8694 57.5172 12.7591C59.5478 10.6066 59.5914 7.242 57.6675 4.98763C55.7459 2.73811 52.3488 2.18058 49.9838 3.93559C48.513 5.02641 47.2772 6.43479 45.9614 7.67348C48.7747 10.4878 51.5079 13.2173 54.263 15.9734V15.9759ZM44.5924 9.33396C43.4899 10.4369 42.3607 11.5689 41.3285 12.6016C44.0157 15.2874 46.7562 18.0315 49.4362 20.7125C50.4975 19.6483 51.617 18.526 52.7025 17.4376C50.0105 14.7493 47.2796 12.0174 44.5924 9.33396ZM5.00854 52.9281C6.89614 53.7814 8.22884 55.151 9.08905 57.0005C10.8943 56.4842 12.6413 55.9824 14.3811 55.4831C13.6663 51.2119 9.96137 48.0873 6.51329 47.6437C6.01413 49.389 5.51497 51.1416 5.00611 52.9257L5.00854 52.9281ZM4.45849 54.8383C4.09503 56.1158 3.75095 57.3205 3.37536 58.6319C4.69111 58.2538 5.90751 57.9071 7.16268 57.5459C6.54963 56.317 5.68701 55.4588 4.45849 54.8383Z" fill="#FFDE00"/>
<path d="M31.3515 46.5673C32.1123 45.7964 32.7738 45.1201 33.4426 44.4535C34.0072 43.8887 34.5233 43.8305 34.974 44.2596C35.4126 44.6765 35.3496 45.2849 34.7947 45.8425C34.1405 46.497 33.4741 47.1418 32.8635 47.7381C34.0339 48.9089 35.1654 50.0434 36.3649 51.2457C36.6993 50.9015 37.1088 50.47 37.5255 50.0482C38.3785 49.1901 39.2338 48.3368 40.0916 47.4811C40.7749 46.7976 41.2741 46.7054 41.7539 47.166C42.2215 47.6169 42.1149 48.2035 41.4413 48.8774C40.317 50.0046 39.1902 51.1318 38.0635 52.2589C37.9229 52.3995 37.7897 52.5474 37.6952 52.6492C38.8558 53.8128 39.9923 54.9521 41.1675 56.1326C41.8193 55.466 42.4881 54.7678 43.1738 54.0867C43.6972 53.5631 44.2254 53.5243 44.6616 53.9485C45.0687 54.3461 45.0396 54.9521 44.5526 55.4442C43.8741 56.1302 43.1738 56.7968 42.5026 57.4513C43.198 58.1785 43.7917 58.9251 44.5065 59.5238C45.4806 60.3383 46.9005 60.1759 47.8577 59.2281C49.6338 57.4682 51.3954 55.6938 53.1643 53.9267C55.1464 51.9438 57.1285 49.9658 59.1082 47.9805C60.3561 46.7297 60.3633 45.2995 59.1227 44.056C54.6763 39.6054 50.2275 35.1573 45.7811 30.7091C45.6526 30.5806 45.517 30.4594 45.4031 30.3188C45.0614 29.8898 45.0711 29.3662 45.42 29.0002C45.7835 28.6196 46.3335 28.6026 46.7818 28.9614C46.8909 29.0486 46.9878 29.1553 47.0871 29.2547C51.5505 33.7174 56.0138 38.1776 60.4748 42.6427C62.5078 44.6789 62.5029 47.3478 60.4627 49.3913C56.7723 53.088 53.0819 56.7798 49.3842 60.4692C47.3391 62.5103 44.6737 62.5151 42.6383 60.4838C38.1725 56.0235 33.7116 51.5608 29.2482 47.0981C29.178 47.0278 29.1028 46.9575 29.035 46.8824C28.5988 46.3976 28.5819 45.8207 28.9889 45.4304C29.3815 45.0522 29.9461 45.0571 30.3944 45.491C30.7263 45.811 31.0098 46.1819 31.3466 46.5673H31.3515Z" fill="#FFDE00"/>
<path d="M4.48911 19.5736C5.15789 18.8852 5.77094 18.2452 6.39367 17.615C7.02126 16.9799 7.62219 16.8878 8.06077 17.3435C8.51147 17.8138 8.43151 18.3204 7.78696 18.9628C7.14726 19.6027 6.50029 20.2354 5.87998 20.8487C7.05033 22.0171 8.18919 23.1515 9.3644 24.3248C10.4839 23.2049 11.6373 22.051 12.7882 20.8972C12.9603 20.725 13.1275 20.5529 13.3019 20.3857C13.835 19.8766 14.436 19.8257 14.8406 20.2524C15.2574 20.6911 15.2089 21.2074 14.6855 21.7431C14.2348 22.2061 13.7769 22.6594 13.3189 23.1127C12.4466 23.9781 11.5718 24.8411 10.7262 25.6774C11.8941 26.8458 13.033 27.9827 14.2397 29.1874C14.8939 28.5135 15.5845 27.7839 16.2993 27.0785C16.7379 26.647 17.3195 26.63 17.7072 26.9912C18.1336 27.3912 18.1385 27.9584 17.6684 28.436C16.9657 29.1511 16.2363 29.8419 15.4197 30.637C15.7735 30.9376 16.0788 31.1703 16.3502 31.4394C16.9245 32.0042 16.9948 32.5811 16.5659 33.0174C16.1346 33.4562 15.5506 33.3931 14.986 32.8283C13.0306 30.877 11.08 28.9232 9.12694 26.9694C6.6166 24.4605 4.10869 21.9516 1.60077 19.4403C-0.529139 17.3071 -0.533986 14.6892 1.58865 12.5657C5.25239 8.90052 8.91613 5.23535 12.5823 1.5726C14.6807 -0.524201 17.3146 -0.524201 19.413 1.5726C23.8643 6.01832 28.3107 10.4689 32.7546 14.9194C32.9243 15.0891 33.089 15.2734 33.2005 15.4818C33.4161 15.8891 33.3459 16.3351 32.9824 16.5605C32.7038 16.7351 32.2797 16.7666 31.9356 16.7229C31.7176 16.6963 31.514 16.4345 31.3323 16.2527C26.9101 11.836 22.4928 7.41457 18.0706 2.99552C16.7064 1.63078 15.2792 1.63321 13.9174 2.99552C10.2537 6.65827 6.58752 10.3234 2.92621 13.9886C1.62258 15.2927 1.62258 16.6938 2.92136 17.998C3.4181 18.4973 3.91484 18.9967 4.48669 19.5736H4.48911Z" fill="#FFDE00"/>
<path d="M16.4771 8.7324C15.9586 8.7227 15.5176 8.27425 15.5176 7.76036C15.5176 7.21979 15.9949 6.77134 16.5401 6.79801C17.0756 6.82467 17.4682 7.25373 17.4512 7.79672C17.4367 8.33243 17.0078 8.7421 16.4747 8.7324H16.4771Z" fill="#FFDE00"/>
</g>
<defs>
<clipPath id="clip0_2893_191">
<rect width="62" height="62" fill="white"/>
</clipPath>
</defs>
</svg>
