<svg width="51" height="62" viewBox="0 0 51 62" fill="none" xmlns="http://www.w3.org/2000/svg">
<g clip-path="url(#clip0_2893_225)">
<path d="M42.8421 53.8011V60.0895C43.4654 60.0895 44.0653 60.0895 44.6651 60.0895C46.3577 60.0895 48.0503 60.0895 49.7429 60.0895C50.5045 60.0895 50.9087 60.4031 50.9348 60.9911C50.9635 61.6132 50.554 61.966 49.769 61.9948C49.6177 62 49.4665 61.9948 49.3126 61.9948C33.4271 61.9948 17.5442 61.9948 1.65871 61.9948C1.3979 61.9948 1.1371 61.9922 0.881514 61.9582C0.320788 61.8876 0.0156482 61.54 0.0417285 60.9885C0.0678087 60.4318 0.417285 60.113 0.972795 60.0973C1.73173 60.0738 2.49067 60.0895 3.25221 60.0895C4.87441 60.0895 6.4966 60.0895 8.15531 60.0895V53.8011C6.74436 53.8011 5.36211 53.8011 3.97985 53.8011C2.84797 53.8011 1.8517 53.4535 1.04843 52.625C0.234723 51.7913 0 50.7667 0 49.6376C0.00782409 38.2449 0.00521606 26.8522 0.00521606 15.4595C0.00521606 11.6985 0.00521606 7.93753 0.00521606 4.17654C0.00521606 1.51589 1.50222 0 4.14155 0C18.3762 0 32.6134 0 46.848 0C49.503 0 50.9974 1.50282 50.9974 4.16348C50.9974 19.3172 50.9974 34.4709 50.9974 49.6246C50.9974 52.3218 49.5056 53.7985 46.7933 53.8011C45.4944 53.8011 44.1957 53.8011 42.8395 53.8011H42.8421ZM31.3668 35.5215C31.3668 34.0814 31.3668 32.7328 31.3668 31.3868C31.3668 30.3518 31.651 30.0617 32.6656 30.0591C35.5944 30.0591 38.5232 30.0591 41.4546 30.0591C42.5474 30.0591 42.816 30.3335 42.816 31.4574C42.816 38.0019 42.816 44.5463 42.816 51.0882C42.816 51.3391 42.816 51.5926 42.816 51.8331C42.9699 51.8592 43.0325 51.8801 43.0951 51.8801C44.3756 51.8827 45.6562 51.888 46.9367 51.8853C48.4702 51.8801 49.0857 51.2555 49.0857 49.7004C49.0857 37.6569 49.0857 25.6107 49.0857 13.5672V12.8746H1.91951C1.91951 13.6561 1.91951 14.3905 1.91951 15.1249C1.91951 26.6902 1.91951 38.258 1.91951 49.8232C1.91951 51.1797 2.59499 51.8618 3.95116 51.8827C4.6449 51.8932 5.33863 51.8827 6.03498 51.8853C6.74175 51.8853 7.44592 51.8853 8.18921 51.8853C8.18921 50.4165 8.1866 49.0496 8.18921 47.6827C8.19182 46.7653 8.52304 46.4255 9.44889 46.4203C11.0554 46.4098 12.6594 46.4177 14.2659 46.4177C14.4954 46.4177 14.7249 46.4177 15.0118 46.4177C15.0118 44.9776 15.0066 43.6342 15.0118 42.2882C15.017 41.2375 15.2804 40.9735 16.3315 40.9709C18.3501 40.9657 20.3687 40.9709 22.3847 40.9683C22.6351 40.9683 22.8828 40.9474 23.1749 40.9317C23.1749 40.6416 23.1749 40.4273 23.1749 40.213C23.1749 39.0604 23.1697 37.9078 23.1749 36.7552C23.1802 35.8509 23.4957 35.5294 24.3772 35.5215C25.157 35.5137 25.9395 35.5215 26.7219 35.5215C28.2371 35.5215 29.7524 35.5215 31.3589 35.5215H31.3668ZM49.0805 10.8778C49.0805 8.40798 49.0883 6.01652 49.0753 3.62507C49.0701 2.84361 48.6371 2.31043 47.933 2.04384C47.6017 1.91839 47.2131 1.89748 46.8506 1.89748C32.616 1.88964 18.384 1.89225 4.14937 1.89225C4.03984 1.89225 3.93291 1.89225 3.82337 1.89225C2.65758 1.92362 1.92473 2.65543 1.91951 3.82109C1.91168 5.7996 1.91951 7.7781 1.9169 9.7566C1.9169 10.1199 1.9169 10.4832 1.9169 10.8778H49.0805ZM33.2941 35.4431C34.5042 35.6679 34.619 35.809 34.619 36.9982C34.619 44.4339 34.619 51.867 34.619 59.3028V60.045H40.8626V31.9775H33.2967V35.4457L33.2941 35.4431ZM32.689 60.0712V37.4216H25.131V40.882C25.9968 41.1086 26.4298 41.6853 26.4298 42.6123C26.4298 48.1766 26.4298 53.7436 26.4298 59.308C26.4298 59.5589 26.4298 59.8098 26.4298 60.0712H32.689ZM24.5546 42.9128H16.9496V46.3732C18.1154 46.5536 18.2536 46.713 18.2536 47.8604C18.2536 51.6632 18.2536 55.4686 18.2536 59.2714V60.0372H24.552V42.9154L24.5546 42.9128ZM10.127 60.0529H16.3445V48.3753H10.127V60.0529Z" fill="#FFDE00"/>
<path d="M39.2196 19.2211C37.8765 18.9912 36.7107 18.7925 35.5475 18.5965C34.9294 18.492 34.3035 18.4109 33.688 18.2933C32.9812 18.16 32.6578 17.7183 32.783 17.1146C32.8977 16.5736 33.3828 16.32 34.0531 16.4324C36.5516 16.8532 39.0527 17.2583 41.5486 17.6948C41.8954 17.7549 42.2893 17.8699 42.537 18.0973C43.0091 18.5285 42.8656 19.1689 42.2475 19.5661C41.1522 20.2692 40.0438 20.9514 38.9432 21.6413C29.3143 27.6709 19.6855 33.7005 10.054 39.7275C9.85321 39.853 9.64978 39.9941 9.4281 40.0699C8.98213 40.2267 8.61439 40.0673 8.35881 39.6831C8.098 39.2884 8.12408 38.8885 8.46574 38.5566C8.66395 38.3632 8.91171 38.2142 9.14904 38.0653C18.8874 31.9651 28.6284 25.8676 38.3694 19.7674C38.6015 19.621 38.831 19.4694 39.217 19.2211H39.2196Z" fill="#FFDE00"/>
<path d="M15.9942 16.3806C19.0326 16.3806 22.0709 16.3806 25.1093 16.3806C25.3231 16.3806 25.6178 16.3336 25.7378 16.4486C26.009 16.7099 26.3533 17.0575 26.3611 17.379C26.3663 17.6534 25.9882 17.9958 25.7013 18.2023C25.5213 18.333 25.1979 18.2833 24.9397 18.2833C18.9491 18.2859 12.9611 18.2859 6.97043 18.2833C5.95851 18.2833 5.47081 17.9749 5.46298 17.3372C5.45516 16.689 5.93504 16.3754 6.94434 16.3754C9.96183 16.3754 12.9767 16.3754 15.9942 16.3754V16.3806Z" fill="#FFDE00"/>
<path d="M12.5449 23.7357C10.6776 23.7357 8.81283 23.7357 6.94548 23.7357C6.72901 23.7357 6.50994 23.7383 6.29608 23.7121C5.76404 23.6494 5.48498 23.3227 5.45629 22.8026C5.43021 22.3165 5.82663 21.8878 6.34563 21.8669C7.06023 21.8382 7.77744 21.8591 8.49465 21.8565C11.7286 21.8565 14.9626 21.8565 18.1965 21.8565C18.3713 21.8565 18.546 21.846 18.7181 21.8617C19.2815 21.9087 19.6101 22.2407 19.6153 22.7869C19.6205 23.3332 19.3023 23.7017 18.7312 23.7121C17.5393 23.7383 16.3448 23.7304 15.1503 23.733C14.2819 23.733 13.4134 23.733 12.5449 23.733V23.7357Z" fill="#FFDE00"/>
<path d="M17.2947 7.36629C13.826 7.36629 10.3547 7.36629 6.88605 7.36629C6.64872 7.36629 6.40096 7.37413 6.17667 7.31663C5.70462 7.19117 5.43338 6.86447 5.45425 6.36527C5.47511 5.90267 5.73852 5.59687 6.19754 5.50017C6.40618 5.45574 6.62786 5.45313 6.84172 5.45313C13.8234 5.45313 20.8077 5.45313 27.7894 5.45313C28.0059 5.45313 28.2276 5.45312 28.4336 5.50278C28.8848 5.61255 29.1404 5.91051 29.1508 6.38618C29.1612 6.86447 28.9135 7.17288 28.4727 7.30095C28.251 7.36629 28.0033 7.36367 27.7659 7.36367C24.2738 7.36629 20.7842 7.36367 17.2921 7.36367L17.2947 7.36629Z" fill="#FFDE00"/>
<path d="M34.1866 6.39712C34.1918 6.89371 33.7302 7.35893 33.2346 7.3537C32.7417 7.34848 32.2827 6.87541 32.2931 6.38667C32.3036 5.91622 32.7365 5.48497 33.2138 5.46929C33.7145 5.451 34.1787 5.89792 34.1866 6.39974V6.39712Z" fill="#FFDE00"/>
<path d="M44.5565 7.35146C44.061 7.33317 43.6176 6.84965 43.6437 6.35829C43.6724 5.85387 44.1496 5.43046 44.6504 5.46705C45.1407 5.50364 45.5423 5.9375 45.5267 6.4184C45.511 6.93067 45.0546 7.36976 44.5565 7.35146Z" fill="#FFDE00"/>
<path d="M38.9096 7.36001C38.4062 7.35739 37.9915 6.91308 37.9942 6.38252C37.9942 5.88593 38.3958 5.47821 38.8913 5.46514C39.4077 5.45207 39.838 5.87286 39.8406 6.40081C39.8432 6.91831 39.4103 7.36523 38.9096 7.36001Z" fill="#FFDE00"/>
</g>
<defs>
<clipPath id="clip0_2893_225">
<rect width="51" height="62" fill="white"/>
</clipPath>
</defs>
</svg>
