<svg width="62" height="62" viewBox="0 0 62 62" fill="none" xmlns="http://www.w3.org/2000/svg">
<g clip-path="url(#clip0_2893_251)">
<path d="M31.0359 0C39.4543 0 47.8755 0 56.2939 0C59.4802 0 62 2.53231 62.0029 5.73435C62.0029 22.4516 62.0029 39.1689 62.0029 55.8891C62.0029 59.5712 59.5808 61.9971 55.9003 61.9971C39.302 61.9971 22.7037 61.9971 6.1026 61.9971C2.42208 61.9971 0 59.574 0 55.8891C0 39.1718 0 22.4545 0 5.73723C0 2.53806 2.52264 0 5.7061 0C14.1503 0 22.5917 0 31.0359 0ZM2.29853 11.5204C2.29853 11.7878 2.29853 12.0206 2.29853 12.2534C2.29853 26.8178 2.29853 41.3822 2.29853 55.9495C2.29853 58.2777 3.72362 59.7034 6.05376 59.7034C22.675 59.7034 39.2991 59.7034 55.9204 59.7034C58.2936 59.7034 59.6986 58.2892 59.6986 55.9035C59.6986 41.3621 59.6986 26.8207 59.6986 12.2793V11.5233H2.29853V11.5204ZM59.7015 9.15772C59.7015 8.17469 59.7015 7.26926 59.7015 6.36096C59.7015 3.66769 58.3396 2.29662 55.6647 2.29662C39.2158 2.29662 22.767 2.29662 6.31809 2.29662C6.12559 2.29662 5.93596 2.29087 5.74345 2.29949C4.20631 2.37135 2.73238 3.35438 2.49965 4.75132C2.26118 6.1885 2.31002 7.67167 2.22958 9.15484H59.7015V9.15772Z" fill="#FFDE00"/>
<path d="M30.9966 16.0742C38.122 16.0742 45.2503 16.0742 52.3758 16.0742C53.6055 16.0742 53.9646 16.4278 53.9646 17.635C53.9646 23.4929 53.9646 29.3509 53.9646 35.2117C53.9646 36.3758 53.594 36.7438 52.4189 36.7438C38.1421 36.7438 23.8654 36.7438 9.58862 36.7438C8.40775 36.7438 8.03711 36.3787 8.03711 35.2175C8.03711 29.3337 8.03711 23.4527 8.03711 17.5689C8.03711 16.4508 8.41637 16.0742 9.54552 16.0742C16.6968 16.0742 23.8453 16.0742 30.9966 16.0742ZM10.3701 34.3925H51.6086V18.4111H10.3701V34.3925Z" fill="#FFDE00"/>
<path d="M18.3683 40.7552C21.3076 40.7552 24.2497 40.7552 27.1889 40.7552C28.3181 40.7552 28.7031 41.1317 28.7031 42.2441C28.7031 45.472 28.7031 48.6999 28.7031 51.925C28.7031 52.9913 28.3066 53.3823 27.2292 53.3823C21.3248 53.3823 15.4176 53.3823 9.51324 53.3823C8.43293 53.3823 8.03931 52.9942 8.03643 51.9278C8.03643 48.6769 8.03356 45.426 8.03643 42.1751C8.03643 41.1518 8.44155 40.7552 9.47302 40.7552C12.4381 40.7523 15.4032 40.7552 18.3655 40.7552H18.3683ZM10.3867 43.0863V51.031H26.3672V43.0863H10.3867Z" fill="#FFDE00"/>
<path d="M45.3562 44.2033C42.9428 44.2033 40.5293 44.2061 38.1159 44.2033C37.2597 44.2033 36.7569 43.7807 36.7425 43.0765C36.7281 42.3694 37.2338 41.9095 38.0699 41.9067C42.9227 41.9009 47.7726 41.9009 52.6253 41.9067C53.4643 41.9067 53.9729 42.3608 53.9642 43.065C53.9556 43.7664 53.4499 44.1889 52.5995 44.2033C52.4558 44.2033 52.3122 44.2033 52.1685 44.2033C49.8987 44.2033 47.6289 44.2033 45.3562 44.2033Z" fill="#FFDE00"/>
<path d="M45.3495 48.7966C42.959 48.7966 40.5685 48.7966 38.1809 48.7966C37.2644 48.7966 36.7529 48.3885 36.7443 47.6641C36.7328 46.934 37.2471 46.5 38.1493 46.5C42.9532 46.5 47.7572 46.5 52.5611 46.5C53.4604 46.5 53.9776 46.9369 53.9632 47.667C53.9517 48.3885 53.4345 48.7966 52.5209 48.7966C50.1304 48.7966 47.7399 48.7966 45.3523 48.7966H45.3495Z" fill="#FFDE00"/>
<path d="M45.3906 51.0878C47.827 51.0878 50.2664 51.0821 52.7028 51.0907C53.4786 51.0936 53.9727 51.5736 53.9612 52.2548C53.9498 52.9102 53.4699 53.3528 52.7344 53.3844C52.6626 53.3873 52.5907 53.3844 52.5189 53.3844C47.738 53.3844 42.9599 53.3844 38.179 53.3844C37.2624 53.3844 36.751 52.9763 36.7424 52.2519C36.7309 51.4988 37.2481 51.0878 38.2192 51.0878C40.6097 51.0878 43.0001 51.0878 45.3877 51.0878H45.3906Z" fill="#FFDE00"/>
<path d="M47.1495 4.59503C48.9653 4.59503 50.7812 4.59215 52.597 4.59503C53.4474 4.59503 53.9531 5.02331 53.9617 5.72753C53.9704 6.43175 53.4618 6.88877 52.6257 6.89164C48.9222 6.89739 45.2187 6.89739 41.5152 6.89164C40.682 6.89164 40.1734 6.42887 40.1878 5.72465C40.2022 5.02043 40.7021 4.60078 41.5583 4.5979C43.423 4.59215 45.2848 4.5979 47.1495 4.5979V4.59503Z" fill="#FFDE00"/>
<path d="M8.03425 4.59766C8.65772 4.59766 9.17202 5.10067 9.18351 5.72153C9.195 6.34239 8.69507 6.8684 8.07447 6.8914C7.42513 6.91439 6.88211 6.37976 6.89073 5.73016C6.89935 5.10354 7.4079 4.60053 8.03425 4.59766Z" fill="#FFDE00"/>
<path d="M12.5964 6.89072C11.9729 6.87348 11.4759 6.35034 11.4845 5.72948C11.4931 5.077 12.0476 4.55961 12.6998 4.59985C13.3204 4.63722 13.806 5.1776 13.7773 5.79559C13.7485 6.41645 13.217 6.91084 12.5964 6.8936V6.89072Z" fill="#FFDE00"/>
<path d="M18.3701 5.75256C18.3643 6.37342 17.85 6.88506 17.2294 6.88793C16.5772 6.89081 16.0486 6.3418 16.0773 5.6922C16.1031 5.06846 16.6289 4.57694 17.2524 4.59419C17.8759 4.61144 18.3758 5.12882 18.3701 5.75256Z" fill="#FFDE00"/>
<path d="M18.1003 30.9902C17.948 30.8695 17.5745 30.6827 17.359 30.3809C16.5976 29.3145 15.888 28.2107 15.1611 27.1213C14.8508 26.6557 14.8335 26.1872 15.1467 25.7186C15.8851 24.6063 16.6178 23.491 17.3734 22.3901C17.7929 21.7779 18.4278 21.6428 18.9881 21.9992C19.5455 22.3556 19.692 23.0052 19.3042 23.629C18.8387 24.3763 18.356 25.1208 17.8331 25.8279C17.5113 26.2619 17.5171 26.581 17.8475 27.015C18.3819 27.7163 18.8646 28.4579 19.3157 29.2139C19.8098 30.0417 19.2553 31.019 18.1032 30.9902H18.1003Z" fill="#FFDE00"/>
<path d="M43.6689 21.6445C44.051 21.9377 44.413 22.1073 44.6141 22.3919C45.387 23.4784 46.1111 24.6022 46.8495 25.7146C47.1598 26.1831 47.1511 26.6545 46.8408 27.1202C46.0996 28.2326 45.3727 29.3507 44.6113 30.4487C44.1918 31.0523 43.5367 31.1702 42.9879 30.7994C42.4392 30.4286 42.3156 29.7962 42.715 29.161C43.1977 28.3935 43.689 27.6318 44.2263 26.9017C44.5021 26.5252 44.4705 26.2608 44.209 25.8986C43.666 25.1455 43.1172 24.3838 42.6863 23.5646C42.5196 23.2456 42.5368 22.708 42.692 22.3775C42.8357 22.0757 43.2839 21.9176 43.666 21.6474L43.6689 21.6445Z" fill="#FFDE00"/>
</g>
<defs>
<clipPath id="clip0_2893_251">
<rect width="62" height="62" fill="white"/>
</clipPath>
</defs>
</svg>
