<svg
	xmlns="http://www.w3.org/2000/svg"
	width="100%"
	height="60"
	viewBox="0 0 54 60"
	fill="none"
>
	<path
		d="M28.9905 31.7609C28.6892 31.9416 28.5049 32.2671 28.5049 32.6184V58.2631C28.5049 59.034 29.3403 59.515 30.007 59.128L32.846 57.4797C33.1543 57.3007 33.344 56.9713 33.344 56.6148V46.7387C33.344 46.3875 33.5282 46.0621 33.8293 45.8813L45.4739 38.8907C45.775 38.71 45.9592 38.3846 45.9592 38.0334V34.6739C45.9592 33.8965 45.1111 33.4164 44.4445 33.8165L34.8587 39.5712C34.1921 39.9713 33.344 39.4912 33.344 38.7138V35.4042C33.344 35.0525 33.5287 34.7266 33.8305 34.5461L47.6718 26.264C48.3384 25.8651 49.1853 26.3453 49.1853 27.1221V35.4618C49.1853 36.2502 50.0551 36.7286 50.7209 36.3063L53.5359 34.521C53.8251 34.3376 54.0003 34.0189 54.0003 33.6765V18.525C54.0003 17.7477 53.1524 17.2676 52.4859 17.6674L28.9905 31.7609Z"
		fill="currentColor"
	/>
	<path
		d="M1.51368 17.6653C0.847138 17.2662 0 17.7464 0 18.5233V32.7103C0 33.06 0.182718 33.3844 0.481849 33.5656L3.3209 35.2855C3.98734 35.6893 4.83905 35.2095 4.83905 34.4303V25.3584L4.81735 20.2058C4.81587 19.8557 4.63141 19.5319 4.33103 19.352L1.51368 17.6653Z"
		fill="currentColor"
	/>
	<path
		d="M14.0945 25.2179C14.088 25.214 14.084 25.207 14.084 25.1994C14.084 25.1918 14.08 25.1848 14.0735 25.1809L10.7827 23.2107C10.1162 22.8116 9.26904 23.2918 9.26904 24.0687V38.2214C9.26904 38.5765 9.45731 38.9049 9.7637 39.0843L12.6028 40.747C13.2694 41.1374 14.1081 40.6566 14.1081 39.884V32.6676C14.1081 31.8908 14.9551 31.4106 15.6216 31.8095L20.1941 34.5459C20.4958 34.7265 20.6806 35.0523 20.6806 35.404V40.4803V46.1725V56.6161C20.6806 56.9717 20.8694 57.3006 21.1766 57.4798L23.9916 59.1223C24.6582 59.5113 25.4955 59.0304 25.4955 58.2586V32.6184C25.4955 32.267 25.3111 31.9414 25.0098 31.7607L20.7287 29.1937L14.0945 25.2179Z"
		fill="currentColor"
	/>
	<path
		d="M47.1383 12.4392C46.8262 12.2555 46.4392 12.2549 46.1265 12.4376L37.1412 17.6886C36.8322 17.8691 36.4503 17.8709 36.1398 17.6931L24.3833 10.9628C24.0731 10.7853 23.6918 10.7868 23.383 10.9667L20.5123 12.6395C19.8479 13.0267 19.8509 13.9876 20.5177 14.3707L30.2845 19.9806C30.9503 20.363 30.9546 21.3219 30.2923 21.7103L27.4877 23.355C27.1785 23.5363 26.7958 23.5383 26.4848 23.3601L12.4529 15.3213C11.7858 14.9392 11.7815 13.9785 12.4452 13.5904L29.372 3.69217C30.0303 3.30719 30.0327 2.35651 29.3763 1.96823L26.5549 0.299393C26.2425 0.114591 25.8545 0.1136 25.5411 0.296803L2.71876 13.6396C2.0551 14.0276 2.0592 14.9881 2.72616 15.3704L26.509 29.0033C26.82 29.1816 27.2026 29.1798 27.5118 28.9986L49.9785 15.8364C50.637 15.4506 50.638 14.4989 49.9802 14.1118L47.1383 12.4392Z"
		fill="currentColor"
	/>
</svg>