<svg
	width="30"
	height="30"
	viewBox="0 0 30 30"
	fill="none"
	xmlns="http://www.w3.org/2000/svg"
>
	<rect width="30" height="30" rx="15" fill="#2F2F2F" />
	<path
		d="M15 12.7414L9.49333 18.8448C9.4 18.9483 9.29111 19 9.16667 19C9.04222 19 8.93333 18.9483 8.84 18.8448L8.14 18.069C8.04667 17.9655 8 17.8534 8 17.7328C8 17.6121 8.04667 17.5 8.14 17.3966L14.6733 10.1552C14.7667 10.0517 14.8756 10 15 10C15.1244 10 15.2333 10.0517 15.3267 10.1552L21.86 17.3966C21.9533 17.5 22 17.6121 22 17.7328C22 17.8534 21.9533 17.9655 21.86 18.069L21.16 18.8448C21.0667 18.9483 20.9578 19 20.8333 19C20.7089 19 20.6 18.9483 20.5067 18.8448L15 12.7414Z"
		fill="#F4A21A"
	/>
</svg>