<svg xmlns="http://www.w3.org/2000/svg" width="14" height="14" viewBox="0 0 14 14" fill="none">
	<path fill-rule="evenodd" clip-rule="evenodd"
		d="M7 14C10.8662 14 14 10.8672 14 7C14 3.13281 10.8662 0 7 0C3.13379 0 0 3.13281 0 7C0 10.8672 3.13379 14 7 14ZM6.35742 8.92188H7.61914C7.62207 8.63672 7.66211 8.37891 7.7373 8.16016C7.8125 7.93359 7.95605 7.72266 8.16699 7.53125L8.59473 7.10938L8.85156 6.83984C9.0625 6.60547 9.23438 6.35547 9.36621 6.08984C9.4209 5.97656 9.46387 5.85938 9.49609 5.73828C9.54199 5.5625 9.56445 5.37891 9.56445 5.18359C9.56445 4.72266 9.46875 4.33203 9.27637 4.00781C9.08789 3.67969 8.81445 3.42969 8.45605 3.26172C8.09766 3.08594 7.66602 3 7.16016 3C6.94727 3 6.74414 3.01953 6.5498 3.05469C6.32812 3.09375 6.11914 3.15625 5.92188 3.24219C5.55273 3.40625 5.25781 3.64844 5.04004 3.97266C4.82129 4.29688 4.70801 4.69531 4.7002 5.17188H6.06348C6.07129 4.92188 6.12598 4.72266 6.22754 4.57422C6.3291 4.41797 6.46289 4.30469 6.62891 4.23438C6.79492 4.15625 6.97168 4.12109 7.16016 4.12109C7.38672 4.12109 7.5752 4.16406 7.72656 4.25C7.88086 4.33594 7.99805 4.46484 8.07715 4.62891C8.11328 4.70312 8.14062 4.78516 8.16016 4.875C8.18359 4.98438 8.19531 5.10547 8.19531 5.23438C8.19531 5.35547 8.18262 5.47266 8.15625 5.57812C8.13574 5.66406 8.10742 5.74219 8.07129 5.81641C7.98828 5.98438 7.87695 6.14062 7.7373 6.29297L7.26855 6.76172C7.0459 6.98047 6.86621 7.1875 6.73047 7.38281C6.59863 7.57812 6.50488 7.79688 6.44824 8.03906C6.3916 8.27734 6.36133 8.57031 6.35742 8.92188ZM6.45312 10.1719C6.31445 10.3125 6.24414 10.4844 6.24414 10.6875C6.24414 10.8906 6.31445 11.0625 6.45312 11.207C6.59277 11.3477 6.7832 11.418 7.02441 11.418C7.2666 11.418 7.45703 11.3477 7.5957 11.207C7.73535 11.0625 7.80566 10.8906 7.80566 10.6875C7.80566 10.5742 7.78418 10.4688 7.74023 10.375C7.70508 10.3008 7.65723 10.2344 7.5957 10.1719C7.45703 10.0273 7.2666 9.95703 7.02441 9.95703C6.85742 9.95703 6.71484 9.98828 6.59668 10.0586C6.54395 10.0898 6.49609 10.1289 6.45312 10.1719Z"
		fill="currentColor" />
</svg>