<svg width="63" height="63" viewBox="0 0 63 63" fill="none" xmlns="http://www.w3.org/2000/svg">
<g clip-path="url(#clip0_2893_302)">
<path d="M60.965 52.8322H62.9562C62.9715 53.0331 62.9944 53.2137 62.9944 53.3943C62.9969 54.8976 63.002 56.4009 62.9944 57.9016C62.9791 60.7402 60.7489 62.9964 57.9236 62.9964C40.3134 63.0041 22.7032 63.0015 5.09558 62.9964C2.2627 62.9964 0.0197788 60.7479 0.00452087 57.9219C-0.00565109 56.2533 0.00452087 54.5847 0.00452087 52.8449H2.03637C2.03637 52.5269 2.03637 52.2777 2.03637 52.0309C2.03637 41.9125 2.03637 31.7966 2.03637 21.6781C2.03637 18.3816 4.16994 16.2577 7.48345 16.2577C10.151 16.2577 12.8161 16.2577 15.4837 16.2577C15.7126 16.2577 15.944 16.2577 16.2593 16.2577C16.2593 15.024 16.2593 13.826 16.2593 12.628C16.2593 11.8123 16.6594 11.3027 17.4596 11.0993C17.7673 11.0204 18.0775 10.9568 18.3852 10.8805C19.3999 10.6287 19.6796 9.96227 19.1481 9.07964C18.7769 8.46663 18.4056 7.85362 18.0648 7.28894C19.8983 5.45754 21.7038 3.65158 23.5526 1.80493C24.1604 2.17375 24.8419 2.59344 25.531 3.00296C26.1566 3.37433 26.8915 3.04875 27.0695 2.334C27.2348 1.67775 27.3747 1.01641 27.5781 0.372878C27.6265 0.215174 27.8731 0.0167731 28.0308 0.0142295C30.3373 -0.00866298 32.6438 -0.0112066 34.9528 0.0142295C35.1181 0.0142295 35.3775 0.24061 35.4309 0.413575C35.6394 1.07746 35.7767 1.76169 35.9522 2.43574C36.0997 3.00805 36.888 3.34126 37.4017 3.04112C38.1112 2.62397 38.8131 2.1941 39.4641 1.80238C41.295 3.63632 43.1006 5.44228 44.9366 7.28385C44.5755 7.88414 44.1711 8.55311 43.7719 9.22208C43.3727 9.8885 43.6753 10.6211 44.4204 10.8067C45.0358 10.9594 45.641 11.1527 46.264 11.262C46.676 11.3358 46.7574 11.5291 46.7548 11.9056C46.737 13.3224 46.7472 14.7392 46.7472 16.2551C46.9939 16.2551 47.2151 16.2551 47.4389 16.2551C50.2107 16.2551 52.9851 16.2526 55.757 16.2551C58.7577 16.2602 60.9701 18.4655 60.9701 21.4619C60.9752 31.644 60.9701 41.8235 60.9701 52.0055C60.9701 52.2548 60.9701 52.5066 60.9701 52.8246L60.965 52.8322ZM39.492 28.6985C38.8538 28.3169 38.2002 27.9252 37.5492 27.536C36.8346 27.1087 36.1226 27.3936 35.9242 28.1847C35.764 28.818 35.6292 29.4615 35.4258 30.0822C35.3699 30.2526 35.1079 30.4688 34.9376 30.4714C32.6514 30.4968 30.3653 30.4815 28.0817 30.4942C27.7409 30.4942 27.6036 30.3874 27.5375 30.0466C27.4129 29.4056 27.2247 28.7773 27.0645 28.1414C26.8839 27.4317 26.149 27.1163 25.5183 27.4902C24.8317 27.8972 24.1502 28.3169 23.5628 28.6705C21.7064 26.8187 19.8983 25.0153 18.0725 23.1966C18.1945 22.9779 18.3446 22.7108 18.5149 22.4081H8.16497V48.7319H54.8136V22.4081H44.4788C44.6645 22.7388 44.8145 23.0135 44.9518 23.2602C43.1336 25.0713 41.3357 26.8594 39.4895 28.6985H39.492ZM60.9549 54.9179H2.03637C2.03637 55.7878 2.03637 56.612 2.03637 57.4361C2.03637 59.7966 3.21632 60.9666 5.59655 60.9666C22.866 60.9666 40.1354 60.9666 57.4049 60.9666C57.6159 60.9666 57.8295 60.9717 58.0406 60.9615C59.5817 60.8852 60.8684 59.6643 60.9447 58.128C60.9981 57.0749 60.9549 56.0168 60.9549 54.9179ZM43.6854 20.1418C43.7185 20.2028 43.7516 20.2613 43.7846 20.3224C47.3601 20.3224 50.9355 20.3224 54.5109 20.3224C56.1232 20.3224 56.8988 21.0855 56.8988 22.6752C56.8988 31.2675 56.8988 39.8598 56.8988 48.4546C56.8988 50.0164 56.1181 50.8049 54.572 50.8049C39.1843 50.8049 23.7993 50.8049 8.41164 50.8049C6.89348 50.8049 6.09498 50.0139 6.09498 48.5081C6.09498 42.7926 6.09498 37.0796 6.09498 31.3642C6.09498 28.3805 6.08989 25.3969 6.09752 22.4107C6.10006 21.1923 6.95959 20.3402 8.17514 20.3224C8.81089 20.3147 9.44409 20.3224 10.0798 20.3224C13.1263 20.3224 16.1728 20.3224 19.2193 20.3224C19.2524 20.2715 19.2855 20.2206 19.3185 20.1698C19.1176 20.0121 18.9422 19.7831 18.7158 19.7094C18.1767 19.5339 17.6173 19.4041 17.0578 19.3049C16.5034 19.2057 16.0889 19.0328 16.2644 18.2926C15.9999 18.2926 15.7939 18.2926 15.5854 18.2926C12.8542 18.2926 10.1256 18.2926 7.39445 18.2926C5.33208 18.2926 4.06822 19.5517 4.06822 21.6094C4.06822 31.7889 4.06822 41.971 4.06822 52.1505C4.06822 52.3718 4.06822 52.5931 4.06822 52.7991H58.9307V52.3336C58.9307 42.0473 58.9332 31.761 58.9281 21.4746C58.9281 19.5873 57.6185 18.3002 55.7189 18.2951C52.9241 18.2875 50.1319 18.2951 47.3372 18.2951C47.1515 18.2951 46.9659 18.3129 46.7014 18.3282C46.9888 19.1218 46.4446 19.1905 45.9284 19.3024C45.3714 19.4245 44.812 19.5389 44.2703 19.7119C44.0516 19.7806 43.8787 19.9942 43.6854 20.1443V20.1418ZM39.1793 26.1243C40.2626 25.0433 41.3077 24.0004 42.3809 22.9296C42.0656 22.4056 41.7451 21.8384 41.3917 21.2915C41.2162 21.0193 41.1857 20.8057 41.3408 20.4902C41.6587 19.8493 41.8774 19.1599 42.1902 18.519C42.2995 18.2951 42.5411 18.0636 42.7725 17.9848C43.3879 17.7788 44.0313 17.6541 44.6645 17.4939V12.9866C44.0135 12.8264 43.4032 12.6559 42.7827 12.5339C42.4216 12.4626 42.2715 12.2719 42.1546 11.9386C41.9231 11.2849 41.6561 10.6389 41.351 10.0157C41.2035 9.71299 41.1857 9.49933 41.3764 9.21445C41.7477 8.6574 42.0732 8.07237 42.3529 7.6018C41.2493 6.49533 40.2092 5.44991 39.1513 4.38669C38.9072 4.53167 38.5893 4.66648 38.335 4.88015C37.5746 5.50842 36.8346 5.65849 35.9726 5.03276C35.6267 4.78349 35.1359 4.74279 34.7443 4.54439C34.5358 4.43756 34.3145 4.22135 34.2459 4.00515C34.0373 3.37179 33.9026 2.71299 33.7398 2.06437H29.254C29.0836 2.73843 28.9412 3.39977 28.7378 4.03821C28.6742 4.23661 28.4733 4.45028 28.28 4.54185C27.6137 4.85471 26.9322 5.14214 26.2354 5.37869C26.004 5.45754 25.6734 5.43719 25.4548 5.33036C24.875 5.04039 24.3307 4.67666 23.8196 4.36888C22.7414 5.44991 21.7013 6.49279 20.6231 7.57382C20.9079 8.04439 21.2003 8.58109 21.5411 9.08218C21.7801 9.4332 21.8106 9.72317 21.597 10.1098C21.3249 10.6058 21.0757 11.1349 20.9333 11.6792C20.7782 12.2795 20.4425 12.5313 19.8576 12.6178C19.3414 12.6966 18.8404 12.8696 18.3268 13.0019V17.4964C18.9803 17.6541 19.6059 17.7686 20.206 17.967C20.44 18.0458 20.6892 18.2748 20.7985 18.4986C21.1113 19.1421 21.3326 19.8289 21.6428 20.4724C21.7903 20.7751 21.803 20.9913 21.6148 21.2737C21.2461 21.8307 20.9206 22.4132 20.6434 22.8787C21.7522 23.9902 22.7948 25.0331 23.8578 26.0964C24.346 25.8013 24.8978 25.491 25.4268 25.1425C25.7192 24.9492 25.9506 24.9288 26.2838 25.0967C26.9017 25.4096 27.5502 25.6741 28.2088 25.898C28.5547 26.015 28.7199 26.1956 28.7937 26.5389C28.931 27.1723 29.0989 27.798 29.2514 28.4187H33.7449C33.8517 27.9862 33.989 27.5818 34.0424 27.1672C34.1441 26.3838 34.4646 25.8903 35.3165 25.7174C35.9929 25.5775 36.6566 24.9746 37.2746 25.0458C37.9434 25.1222 38.5486 25.7402 39.1767 26.1192L39.1793 26.1243Z" fill="#FFDE00"/>
<path d="M26.6729 33.4354C27.3773 32.8783 28.0843 32.3187 28.8319 31.7286C29.2617 32.2628 29.6685 32.7664 30.1034 33.3056C29.2947 33.9594 28.5293 34.58 27.7282 35.2286C28.7225 37.5967 28.7403 39.9521 27.5782 42.2642C26.6805 44.0524 25.2921 45.3369 23.4484 46.1178C19.8094 47.6567 15.5372 46.2984 13.4494 42.9459C11.3031 39.5019 11.9719 35.1345 14.9955 32.4713C17.7343 30.0575 22.9093 29.2867 26.6729 33.4379V33.4354ZM25.0174 34.7708C22.7898 32.1636 19.1609 31.7871 16.5518 33.8373C14.0114 35.834 13.4875 39.4841 15.3642 42.132C17.2562 44.8002 20.8851 45.4921 23.6366 43.7192C26.4008 41.9361 26.9399 38.4005 25.971 36.6301C24.8445 37.5306 23.723 38.4259 22.6016 39.3213C21.4852 40.2141 20.3663 41.1043 19.3262 41.9336C18.0623 40.677 16.8519 39.4764 15.6745 38.3064C16.0839 37.8714 16.5264 37.4009 17.0146 36.882C17.7928 37.7086 18.543 38.5073 19.316 39.3314C21.264 37.7722 23.1254 36.2842 25.0149 34.7733L25.0174 34.7708Z" fill="#FFDE00"/>
<path d="M42.7353 30.4844C47.183 30.4946 50.8093 34.1599 50.8042 38.6417C50.7992 43.1287 47.1322 46.7558 42.6158 46.7431C38.1427 46.7304 34.5317 43.0523 34.5469 38.5222C34.5622 34.0887 38.2444 30.4742 42.7353 30.4844ZM42.687 32.5218C39.3481 32.5167 36.5889 35.2664 36.5839 38.6036C36.5788 41.9433 39.3303 44.7031 42.6667 44.7082C46.0082 44.7133 48.7648 41.9637 48.7699 38.6239C48.7749 35.2816 46.026 32.5269 42.687 32.5218Z" fill="#FFDE00"/>
<path d="M6.06943 56.9375V58.8859H4.11133V56.9375H6.06943Z" fill="#FFDE00"/>
<path d="M10.1331 58.9113H8.16992V56.9375H10.1331V58.9113Z" fill="#FFDE00"/>
<path d="M12.2383 56.9297H14.1964V58.8857H12.2383V56.9297Z" fill="#FFDE00"/>
<path d="M22.3541 15.2331C22.3541 10.1841 26.4636 6.09648 31.5267 6.10157C36.5694 6.10665 40.6509 10.2197 40.6433 15.2891C40.6357 20.3229 36.5109 24.4028 31.4377 24.3926C26.4356 24.3825 22.3516 20.2644 22.3516 15.2357L22.3541 15.2331ZM31.4733 22.3552C35.3742 22.3679 38.5962 19.1706 38.6089 15.2713C38.6216 11.3694 35.4251 8.14917 31.5267 8.13645C27.6257 8.12373 24.4038 11.321 24.391 15.2178C24.3783 19.1172 27.5774 22.3399 31.4733 22.3527V22.3552Z" fill="#FFDE00"/>
<path d="M46.5099 40.8382C45.925 41.4029 45.4622 41.8531 44.9739 42.3237C44.2543 41.5809 43.5244 40.8255 42.7259 40.0014C41.9249 40.8662 41.2001 41.6496 40.4576 42.4534C39.8854 41.8684 39.4353 41.4054 38.9598 40.9196C39.71 40.1921 40.4652 39.4596 41.2968 38.6533C40.4296 37.8622 39.6413 37.1424 38.8301 36.4047C39.4226 35.8248 39.8854 35.3745 40.3686 34.9014C41.0959 35.6518 41.8257 36.4098 42.6268 37.239C43.4227 36.3666 44.1424 35.5806 44.9002 34.7539C45.4622 35.3695 45.897 35.8451 46.3573 36.3513C45.6402 37.0381 44.8824 37.7655 44.061 38.5541C44.9256 39.3604 45.7063 40.0904 46.5099 40.8408V40.8382Z" fill="#FFDE00"/>
<path d="M36.5798 15.236C36.5798 18.0391 34.3063 20.3232 31.5065 20.3258C28.7041 20.3258 26.4205 18.0518 26.418 15.2513C26.418 12.4482 28.6914 10.1666 31.4912 10.1641C34.2961 10.1641 36.5772 12.4355 36.5798 15.236ZM31.5014 12.1989C29.8535 12.1989 28.4702 13.5649 28.4549 15.208C28.4371 16.8817 29.8256 18.2858 31.4963 18.2883C33.1442 18.2883 34.5276 16.9224 34.5428 15.2767C34.5606 13.6005 33.1747 12.1989 31.5014 12.1989Z" fill="#FFDE00"/>
</g>
<defs>
<clipPath id="clip0_2893_302">
<rect width="63" height="63" fill="white"/>
</clipPath>
</defs>
</svg>
