<svg
	xmlns="http://www.w3.org/2000/svg"
   width="21"
      height="17"
	viewBox="0 0 21 17"
	fill="none"
>
	<path
		fillRule="evenodd"
		clipRule="evenodd"
		d="M0.563086 2.5112C0.563086 2.5112 8.95284 7.26881 10.5813 7.26881C12.2881 7.26881 20.5869 2.60208 20.5869 2.60208L20.6003 1.76827C20.6003 0.847753 19.8532 0.100662 18.9302 0.100662H2.23237C1.31018 0.100662 0.563086 0.847753 0.563086 1.76827V2.5112ZM20.5868 5.10348C20.5868 5.10348 12.3663 9.56176 10.5812 9.56176C8.95275 9.56176 0.575495 5.10348 0.576329 5.10348L0.562988 15.1092C0.562988 16.0297 1.31091 16.7768 2.23227 16.7768H18.9301C19.8531 16.7768 20.6002 16.0297 20.6002 15.1092L20.5868 5.10348Z"
		fill="currentColor"
	/>
</svg>
 