<svg width="499" height="213" viewBox="0 0 499 213" fill="none" xmlns="http://www.w3.org/2000/svg">
  <mask id="mask0_5018_466" style="mask-type:luminance" maskUnits="userSpaceOnUse" x="0" y="1" width="499" height="212">
  <path d="M499 1H0V213H499V1Z" fill="white"/>
  <path d="M1.2998 2H48.3998L69.3998 152.3H69.9998L90.9998 2H138.1V212H106.9V53H106.3L82.2998 212H54.6998L30.6998 53H30.0998V212H1.2998V2ZM188.226 2H232.926L267.126 212H234.126L228.126 170.3V170.9H190.626L184.626 212H154.026L188.226 2ZM224.226 142.4L209.526 38.6H208.926L194.526 142.4H224.226ZM283.136 2H316.136V90.5L358.136 2H391.136L351.836 79.1L391.736 212H357.236L329.336 118.4L316.136 145.1V212H283.136V2ZM407.355 2H497.355V32H440.355V87.5H485.655V117.5H440.355V182H497.355V212H407.355V2Z" fill="black"/>
  </mask>
  <g mask="url(#mask0_5018_466)">
  <path d="M1.2998 2V1H0.299805V2H1.2998ZM48.3998 2L49.3902 1.86162L49.2698 1H48.3998V2ZM69.3998 152.3L68.4094 152.438L68.5298 153.3H69.3998V152.3ZM69.9998 152.3V153.3H70.8698L70.9902 152.438L69.9998 152.3ZM90.9998 2V1H90.1298L90.0094 1.86162L90.9998 2ZM138.1 2H139.1V1H138.1V2ZM138.1 212V213H139.1V212H138.1ZM106.9 212H105.9V213H106.9V212ZM106.9 53H107.9V52H106.9V53ZM106.3 53V52H105.44L105.311 52.8507L106.3 53ZM82.2998 212V213H83.1602L83.2886 212.149L82.2998 212ZM54.6998 212L53.711 212.149L53.8394 213H54.6998V212ZM30.6998 53L31.6886 52.8507L31.5602 52H30.6998V53ZM30.0998 53V52H29.0998V53H30.0998ZM30.0998 212V213H31.0998V212H30.0998ZM1.2998 212H0.299805V213H1.2998V212ZM1.2998 3H48.3998V1H1.2998V3ZM47.4094 2.13837L68.4094 152.438L70.3902 152.162L49.3902 1.86162L47.4094 2.13837ZM69.3998 153.3H69.9998V151.3H69.3998V153.3ZM70.9902 152.438L91.9902 2.13837L90.0094 1.86162L69.0094 152.162L70.9902 152.438ZM90.9998 3H138.1V1H90.9998V3ZM137.1 2V212H139.1V2H137.1ZM138.1 211H106.9V213H138.1V211ZM107.9 212V53H105.9V212H107.9ZM106.9 52H106.3V54H106.9V52ZM105.311 52.8507L81.311 211.851L83.2886 212.149L107.289 53.1492L105.311 52.8507ZM82.2998 211H54.6998V213H82.2998V211ZM55.6886 211.851L31.6886 52.8507L29.711 53.1492L53.711 212.149L55.6886 211.851ZM30.6998 52H30.0998V54H30.6998V52ZM29.0998 53V212H31.0998V53H29.0998ZM30.0998 211H1.2998V213H30.0998V211ZM2.2998 212V2H0.299805V212H2.2998ZM188.226 2V1H187.375L187.239 1.83926L188.226 2ZM232.926 2L233.913 1.83926L233.776 1H232.926V2ZM267.126 212V213H268.302L268.113 211.839L267.126 212ZM234.126 212L233.136 212.142L233.259 213H234.126V212ZM228.126 170.3L229.116 170.158L227.126 170.3H228.126ZM228.126 170.9V171.9H229.126V170.9H228.126ZM190.626 170.9V169.9H189.761L189.636 170.756L190.626 170.9ZM184.626 212V213H185.49L185.615 212.144L184.626 212ZM154.026 212L153.039 211.839L152.85 213H154.026V212ZM224.226 142.4V143.4H225.377L225.216 142.26L224.226 142.4ZM209.526 38.6L210.516 38.4598L210.394 37.6H209.526V38.6ZM208.926 38.6V37.6H208.055L207.935 38.4626L208.926 38.6ZM194.526 142.4L193.535 142.263L193.377 143.4H194.526V142.4ZM188.226 3H232.926V1H188.226V3ZM231.939 2.16074L266.139 212.161L268.113 211.839L233.913 1.83926L231.939 2.16074ZM267.126 211H234.126V213H267.126V211ZM235.116 211.858L229.116 170.158L227.136 170.442L233.136 212.142L235.116 211.858ZM227.126 170.3V170.9H229.126V170.3H227.126ZM228.126 169.9H190.626V171.9H228.126V169.9ZM189.636 170.756L183.636 211.856L185.615 212.144L191.615 171.044L189.636 170.756ZM184.626 211H154.026V213H184.626V211ZM155.013 212.161L189.213 2.16074L187.239 1.83926L153.039 211.839L155.013 212.161ZM225.216 142.26L210.516 38.4598L208.536 38.7402L223.236 142.54L225.216 142.26ZM209.526 37.6H208.926V39.6H209.526V37.6ZM207.935 38.4626L193.535 142.263L195.516 142.537L209.916 38.7374L207.935 38.4626ZM194.526 143.4H224.226V141.4H194.526V143.4ZM283.136 2V1H282.136V2H283.136ZM316.136 2H317.136V1H316.136V2ZM316.136 90.5H315.136L317.039 90.9287L316.136 90.5ZM358.136 2V1H357.504L357.233 1.57125L358.136 2ZM391.136 2L392.027 2.45413L392.768 1H391.136V2ZM351.836 79.1L350.945 78.6459L350.763 79.0033L350.878 79.3875L351.836 79.1ZM391.736 212V213H393.08L392.694 211.712L391.736 212ZM357.236 212L356.278 212.286L356.491 213H357.236V212ZM329.336 118.4L330.294 118.114L329.567 115.676L328.44 117.957L329.336 118.4ZM316.136 145.1L315.24 144.657L315.136 144.866V145.1H316.136ZM316.136 212V213H317.136V212H316.136ZM283.136 212H282.136V213H283.136V212ZM283.136 3H316.136V1H283.136V3ZM315.136 2V90.5H317.136V2H315.136ZM317.039 90.9287L359.039 2.42874L357.233 1.57125L315.233 90.0712L317.039 90.9287ZM358.136 3H391.136V1H358.136V3ZM390.245 1.54586L350.945 78.6459L352.727 79.5541L392.027 2.45413L390.245 1.54586ZM350.878 79.3875L390.778 212.288L392.694 211.712L352.794 78.8124L350.878 79.3875ZM391.736 211H357.236V213H391.736V211ZM358.194 211.714L330.294 118.114L328.378 118.686L356.278 212.286L358.194 211.714ZM328.44 117.957L315.24 144.657L317.032 145.543L330.232 118.843L328.44 117.957ZM315.136 145.1V212H317.136V145.1H315.136ZM316.136 211H283.136V213H316.136V211ZM284.136 212V2H282.136V212H284.136ZM407.355 2V1H406.355V2H407.355ZM497.355 2H498.355V1H497.355V2ZM497.355 32V33H498.355V32H497.355ZM440.355 32V31H439.355V32H440.355ZM440.355 87.5H439.355V88.5H440.355V87.5ZM485.655 87.5H486.655V86.5H485.655V87.5ZM485.655 117.5V118.5H486.655V117.5H485.655ZM440.355 117.5V116.5H439.355V117.5H440.355ZM440.355 182H439.355V183H440.355V182ZM497.355 182H498.355V181H497.355V182ZM497.355 212V213H498.355V212H497.355ZM407.355 212H406.355V213H407.355V212ZM407.355 3H497.355V1H407.355V3ZM496.355 2V32H498.355V2H496.355ZM497.355 31H440.355V33H497.355V31ZM439.355 32V87.5H441.355V32H439.355ZM440.355 88.5H485.655V86.5H440.355V88.5ZM484.655 87.5V117.5H486.655V87.5H484.655ZM485.655 116.5H440.355V118.5H485.655V116.5ZM439.355 117.5V182H441.355V117.5H439.355ZM440.355 183H497.355V181H440.355V183ZM496.355 182V212H498.355V182H496.355ZM497.355 211H407.355V213H497.355V211ZM408.355 212V2H406.355V212H408.355Z" fill="#C0C0C0" fill-opacity="0.15"/>
  </g>
  </svg>
  